<?xml version="1.0" encoding="UTF-8"?>
<svg id="Layer_2" data-name="Layer 2" xmlns="http://www.w3.org/2000/svg" viewBox="0 0 222.69 116.01">
  <defs>
    <style>
      .cls-1 {
        fill: #000;
      }

      .cls-1, .cls-2, .cls-3, .cls-4, .cls-5, .cls-6, .cls-7, .cls-8, .cls-9, .cls-10, .cls-11, .cls-12, .cls-13, .cls-14, .cls-15, .cls-16, .cls-17, .cls-18, .cls-19, .cls-20, .cls-21, .cls-22, .cls-23, .cls-24, .cls-25 {
        stroke-width: 0px;
      }

      .cls-2 {
        fill: #f9f9f9;
      }

      .cls-3 {
        fill: #fdcd00;
      }

      .cls-4 {
        fill: #de0000;
      }

      .cls-5 {
        fill: #f7f7f7;
      }

      .cls-6 {
        fill: #291f08;
      }

      .cls-7 {
        fill: #fdfdfd;
      }

      .cls-8 {
        fill: #4e4f51;
      }

      .cls-9 {
        fill: #3e3b39;
      }

      .cls-10 {
        fill: #d90000;
      }

      .cls-11 {
        fill: #f2b124;
      }

      .cls-12 {
        fill: #f6b425;
      }

      .cls-13 {
        fill: #fbb825;
      }

      .cls-14 {
        fill: #2d2413;
      }

      .cls-15 {
        fill: #239e40;
      }

      .cls-16 {
        fill: #2a2314;
      }

      .cls-17 {
        fill: #3b2b08;
      }

      .cls-18 {
        fill: #fabd0b;
      }

      .cls-19 {
        fill: #fff;
      }

      .cls-20 {
        fill: #8fd123;
      }

      .cls-21 {
        fill: #ee2742;
      }

      .cls-22 {
        fill: #eeae23;
      }

      .cls-23 {
        fill: #f3b224;
      }

      .cls-24 {
        fill: #2f291b;
      }

      .cls-25 {
        fill: #211805;
      }
    </style>
  </defs>
  <g id="Layer_2-2" data-name="Layer 2">
    <g id="Layer_1-2" data-name="Layer 1-2">
      <g>
        <path class="cls-19" d="M17.23,0h33.82v96.44H0V17.23C0,7.72,7.72.01,17.22.01h.01Z"/>
        <g>
          <path class="cls-8" d="M39.23,51.13v14.67h5.2c.56,0,.99.51.89,1.06-.5,2.89-.47,5.08-3.5,5.08-1.28,0-1.46,1.04-1.46,2.31v1.31c0,.57-.46,1.03-1.03,1.03h-.1v5.07c0,3.25-2.64,5.88-5.88,5.88h-10.48l.45-.18h0v.18h-4.75c-3.25,0-5.88-2.63-5.88-5.88v-5.07h-.1c-.57,0-1.03-.46-1.03-1.03v-1.31c0-1.28-1.03-2.31-2.31-2.31-3.03,0-3-2.19-3.5-5.08-.1-.55.33-1.06.89-1.06h6.05v-14.67h-.1c-.57,0-1.03-.46-1.03-1.03v-1.31c0-1.28-1.03-2.31-2.31-2.31-3.03,0-3-2.19-3.5-5.08-.1-.55.33-1.06.89-1.06h6.05v-15.76h-.1c-.57,0-1.03-.46-1.03-1.03v-1.31c0-1.28-1.03-2.31-2.31-2.31-3.03,0-3-2.2-3.5-5.08-.1-.55.33-1.06.89-1.06h6.05c0-3.26,2.63-5.9,5.88-5.9h14.78c3.25,0,5.88,2.63,5.88,5.88h5.2c.56.01.99.52.89,1.07-.5,2.89-.47,5.08-3.5,5.08-1.28,0-1.46,1.03-1.46,2.31v1.31c0,.57-.46,1.03-1.03,1.03h-.1v15.76h5.2c.56,0,.99.51.89,1.06-.5,2.89-.47,5.08-3.5,5.08-1.28,0-1.46,1.04-1.46,2.31v1.31c0,.57-.46,1.03-1.03,1.03h-.1"/>
          <path class="cls-9" d="M39.23,51.13v14.67h5.2c.56,0,.99.51.89,1.06-.5,2.89-.47,5.08-3.5,5.08-1.28,0-1.46,1.04-1.46,2.31v1.31c0,.57-.46,1.03-1.03,1.03h-.1v5.07c0,3.25-2.64,5.88-5.88,5.88h-7.39V7.89h7.39c3.25,0,5.88,2.63,5.88,5.88h5.2c.56.01.99.52.89,1.07-.5,2.89-.47,5.08-3.5,5.08-1.28,0-1.46,1.03-1.46,2.31v1.31c0,.57-.46,1.03-1.03,1.03h-.1v15.76h5.2c.56,0,.99.51.89,1.06-.5,2.89-.47,5.08-3.5,5.08-1.28,0-1.46,1.04-1.46,2.31v1.31c0,.57-.46,1.03-1.03,1.03h-.1"/>
          <g>
            <path class="cls-21" d="M36.71,21.17c0,5.95-4.82,10.76-10.76,10.76s-10.76-4.82-10.76-10.76,4.82-10.77,10.76-10.77,10.76,4.82,10.76,10.77"/>
            <path class="cls-18" d="M36.71,47.74c0,5.95-4.82,10.77-10.76,10.77s-10.76-4.82-10.76-10.77,4.82-10.76,10.76-10.76,10.76,4.82,10.76,10.76"/>
            <path class="cls-20" d="M36.71,72.93c0,5.95-4.82,10.76-10.76,10.76s-10.76-4.82-10.76-10.76,4.82-10.77,10.76-10.77,10.76,4.82,10.76,10.77"/>
          </g>
        </g>
        <g>
          <path class="cls-1" d="M124.11,71.42h-17.86c.01-1.26.36-2.35,1.05-3.26s1.55-1.39,2.52-1.39h10.71c.97,0,1.81.46,2.51,1.39.7.91,1.05,2,1.06,3.26h.01Z"/>
          <path class="cls-1" d="M126.41,65.93v.34c-.07-.14-.14-.27-.23-.41h.17s.05.02.05.07h0Z"/>
          <rect class="cls-4" x="106.25" y="71.42" width="17.86" height="5.55"/>
          <rect class="cls-3" x="106.25" y="76.97" width="17.86" height="3.9"/>
        </g>
        <g>
          <path class="cls-15" d="M123.76,15.21h-17.08c0-1.49.34-2.75,1.01-3.83.67-1.09,1.48-1.62,2.41-1.62h10.25c.93,0,1.73.54,2.4,1.62s1.01,2.34,1.01,3.83Z"/>
          <path class="cls-10" d="M123.76,21.32v4.94h-17.08v-4.94h17.09,0Z"/>
          <path class="cls-7" d="M106.68,15.21v6.11h17.08v-6.11s-17.08,0-17.08,0ZM115.42,15.36s-.03-.01-.05-.01h.11s-.04.01-.06.01ZM117.33,16.5h.01v.02s0-.02-.01-.02Z"/>
          <g>
            <path class="cls-25" d="M118.18,20.89h-5.59v-.02s.02-.02.03-.03h5.42s.08,0,.11-.02c0,0,.03.07.03.07Z"/>
            <path class="cls-24" d="M112.59,20.87v.02h-.03c.02-.13-.03-.26.03-.39v.36h0Z"/>
            <path class="cls-6" d="M112.96,20.43c.06.05.12.08.14-.05,0-.06.05-.1.11-.11,0,.01.01.02,0,.03-.02.05-.11.09-.06.16.04.07.12.07.18.05.17-.08.35-.08.54-.07.01.01.02.02.03.03,0,0,.01.01.02.01h1.26c.06,0,.05-.04.06-.08.02-.02.02-.04.02-.07,0-.01,0-.03.02-.02.03.02,0,.05,0,.07,0,.06,0,.1.06.12.07.02.05-.04.07-.08.02-.05.05-.11.13-.1-.02.07-.11.1-.07.17s.12.07.18.05c.02,0,.04,0,.06-.01.18-.13.4,0,.59-.1,0,.02,0,.05.01.05.08,0,.15.02.22,0,.05-.01,0-.1.04-.14,0,0,.02.02.03.03-.02.07,0,.12.06.14.08.02.05-.07.07-.1.08-.13.2-.16.35-.16-.08.04-.15.06-.21.09-.05.03-.12.07-.08.15.03.07.09.1.17.07h.04v.05s-.02.06-.02.05c-.06-.11-.19.05-.26-.08-.02-.04-.08.01-.08.08h0c-.06-.02-.1-.26-.2-.03-.04-.03-.04-.1-.1-.09-.07.01,0,.09-.05.12-.08-.11-.1-.12-.13-.11-.05.02,0,.07-.02.11h0s-.04-.01-.05-.04c-.01-.04-.03-.07-.07-.08-.07,0-.04.07-.07.09-.05,0-.03-.1-.1-.08-.06.02-.03.08-.05.11h-.01c-.09-.08-.21.03-.3-.04-.02.06-.04.06-.07,0-.07-.12-.11-.06-.13.04-.06-.03-.04-.14-.13-.12-.07.02,0,.08-.03.12h0s-.03-.01-.04-.03c-.02-.03-.02-.09-.08-.09-.07-.01-.04.08-.08.09-.04-.03-.03-.1-.1-.09-.08.01,0,.09-.05.12-.06-.01-.04-.14-.13-.11-.06.02,0,.08-.03.12h0s-.03-.01-.04-.03c-.02-.05-.04-.11-.1-.09-.07.03.02.09-.02.13-.07-.01-.04-.11-.1-.13-.1-.03-.04.09-.08.12-.06-.03-.04-.14-.13-.12-.07.02,0,.08-.03.12h0s-.03-.01-.04-.03c-.02-.05-.04-.11-.11-.09-.07.03.02.09-.02.13-.05-.02-.05-.07-.07-.11-.05-.06-.09-.02-.1.09-.07,0-.04-.14-.13-.11-.07.02,0,.08-.03.12h0s-.03-.01-.04-.03c-.02-.05-.03-.11-.1-.09-.07.03.02.09-.02.13-.06,0-.04-.1-.09-.11-.08-.02-.06.06-.08.11-.06-.04-.06-.14-.14-.12-.07.01,0,.08-.03.11h0c-.07-.02-.1-.26-.2-.02-.04-.04-.04-.11-.1-.09-.07.01,0,.09-.04.11-.03,0-.04-.03-.04-.05-.01-.04-.03-.08-.08-.07-.06.01-.03.07-.04.1v.18s-.02.02-.03.03v-.36h.32s.04-.03.04-.05c0,0,.01-.01.02-.02h-.01Z"/>
            <path class="cls-6" d="M112.94,20.31s0,.09.02.13c0,0-.01.01-.02.02h-.02s-.03-.1.02-.14h0Z"/>
            <path class="cls-24" d="M114.14,15.79s.03.02.04.03h-.08s.02-.02.03-.04h.01Z"/>
            <path class="cls-16" d="M112.92,20.45h.02s0,.05-.04.05c.03-.01.01-.04.02-.05Z"/>
            <path class="cls-16" d="M112.97,20.25s.02.01.02.03h-.04s0-.03.03-.03h0Z"/>
            <path class="cls-6" d="M112.94,20.28h.04s-.01.05-.04.02v-.02h0Z"/>
            <path class="cls-12" d="M114.64,20.67s-.03-.1.03-.12c.09-.03.07.1.13.11.04-.03-.03-.1.05-.12.07-.01.06.06.1.09.04-.01,0-.1.08-.09.06,0,.06.06.08.09,0,.01.03.02.04.03h0s0,.01,0,0h-.01s-.04-.1.03-.12c.09-.02.07.09.13.12.02-.09.06-.15.13-.04.03.05.05.05.07,0,.09.07.21-.04.3.04h.01s-.01-.09.05-.11c.07-.02.05.08.1.08.03-.02,0-.1.07-.09.05,0,.06.04.07.08,0,.02.02.04.05.04h.01s0,0,0-.01c.02-.03-.03-.08.02-.11.03-.01.05,0,.13.11.04-.02-.03-.1.05-.12.07-.01.06.06.1.09.1-.23.13,0,.2.03h0s0,.01,0,0h-.01c0-.07.06-.12.08-.08.07.13.19-.03.26.08,0,0,.01-.03.02-.05.07-.04.1.02.15.06h.01s0-.01,0-.02c0-.03-.03-.07.02-.1.1-.05.07.11.14.11.03-.03-.02-.09.03-.11.1-.04.07.11.14.12.03-.04-.02-.08,0-.12.1-.04.11.07.15.11.06-.02-.02-.11.06-.12.07,0,.07.05.09.09.01.01.02.02.03.03,0-.01,0-.02.01-.03,0-.03-.03-.07.03-.09.07-.02.07.05.1.09,0,.02.02.04.04.03v-.03s-.02-.09.05-.09c.04,0,.07,0,.07.07v.2s-.07.02-.11.02h-5.42v-.18s-.02-.09.04-.1c.05-.01.07.02.08.07,0,.02.02.04.04.05.05-.02-.03-.1.04-.11s.07.05.1.09c.1-.24.13,0,.2.03h0s0,.01-.01,0c.03-.03-.04-.1.03-.11.08-.02.08.09.14.12.02-.05,0-.13.08-.11.05.01.03.11.09.11.04-.04-.05-.1.02-.13.07-.03.08.04.1.09,0,.01.03.02.04.03h0s0,.01-.01,0c.03-.03-.03-.1.03-.12.09-.03.07.11.13.11.01-.12.06-.16.1-.09.02.03.02.09.07.11.04-.03-.05-.1.02-.13.07-.02.08.04.11.09,0,.01.03.02.04.03h0s0,.01-.01,0c.02-.03-.03-.1.03-.12.09-.02.07.09.13.12.04-.02-.03-.15.08-.12.06.02.04.12.1.13.04-.03-.05-.1.02-.13.07-.03.08.04.1.09,0,.01.03.02.04.03h0s0,.01-.01.01h.08Z"/>
            <path class="cls-17" d="M117.51,20.56s.03.08,0,.12c-.07,0-.05-.15-.14-.12-.05.02,0,.08-.03.11-.07,0-.05-.16-.14-.11-.05.02-.01.06-.02.1,0,0,0,.01-.01.02-.04-.04-.08-.1-.15-.06v-.05c.16-.08.31-.11.48-.06v.05h0Z"/>
            <path class="cls-17" d="M117.86,20.64s0,.02-.01.03c-.01-.01-.02-.02-.03-.03h.05-.01Z"/>
            <path class="cls-17" d="M118.03,20.64v.03s-.03,0-.04-.03h.04Z"/>
            <path class="cls-24" d="M114.24,20.09v.05c-.08-.01-.1.07-.14.12-.06.07-.1.16-.19.22-.01-.01-.02-.02-.03-.03.11-.09.17-.23.27-.33.02-.02.05-.1.09-.02h0Z"/>
            <path class="cls-25" d="M117.52,19.69c.07.17.04.29-.05.4,0-.13,0-.25.05-.4Z"/>
            <path class="cls-6" d="M113.82,20.21c.08-.15.15-.25.25-.33,0,.15-.05.22-.25.33Z"/>
            <path class="cls-17" d="M114.12,19.47c.1.01.18,0,.25-.07-.04.15-.12.18-.25.07Z"/>
            <path class="cls-6" d="M114.38,19.62c-.05.14-.14.11-.23.07.07-.03.15-.03.21-.08,0,0,.01.01.02.02h0Z"/>
            <path class="cls-6" d="M114.36,19.61s0-.01.01-.02v.03s-.01-.01-.02-.02h0Z"/>
            <path class="cls-6" d="M116.61,20.33h.04s-.01.03-.02.04c0,0-.02-.02-.03-.03h0s0-.01,0-.01Z"/>
            <path class="cls-24" d="M115.25,20.42s0-.05.02-.07c0,.03,0,.05-.02.07Z"/>
            <path class="cls-6" d="M113.12,20.67h.01s0,.01,0,0h-.01Z"/>
            <path class="cls-6" d="M113.63,20.67h.01s0,.01,0,0h-.01Z"/>
            <path class="cls-6" d="M114.14,20.67h.01s0,.01,0,0h-.01Z"/>
            <path class="cls-6" d="M114.64,20.67h.01s-.01,0-.01,0Z"/>
            <path class="cls-6" d="M115.15,20.67h.01s0,.01,0,0h-.01Z"/>
            <path class="cls-6" d="M116.16,20.67v.02h-.01s.01-.02.01-.02Z"/>
            <path class="cls-6" d="M116.67,20.67h.01s0,.01,0,0h-.01Z"/>
            <path class="cls-17" d="M117.18,20.66v.03h-.01s0-.02.01-.03Z"/>
            <path class="cls-6" d="M115.98,20.12c.02.06.02.07-.02.06-.16-.03-.33-.03-.49-.02,0-.04.02-.02.04-.03.03,0,.05,0,.07-.02.08-.02.15-.01.23,0,.03.03.06.03.09.02h.08,0Z"/>
            <path class="cls-6" d="M116.02,19.72c-.02.11.02.21.02.32,0,.04.03.11-.06.09v-.16s.02-.04,0-.06c-.02-.06-.03-.13,0-.2h.04Z"/>
            <path class="cls-6" d="M115.88,19.59c.14-.01.18.02.15.12-.01,0-.03,0-.04-.01,0-.09-.1-.04-.11-.11Z"/>
            <path class="cls-24" d="M115.9,20.13s-.07.01-.09-.02c.03,0,.07,0,.09.02Z"/>
            <path class="cls-6" d="M115.47,20.16s0,.03-.01.04c-.02.01-.03,0-.04-.01,0-.03.02-.04.05-.03Z"/>
            <path class="cls-6" d="M115.78,19.53s.02-.03.04-.01c.02.01.02.02.01.04-.03.02-.04,0-.05-.03Z"/>
            <path class="cls-24" d="M115.58,20.11s-.04.03-.07.02c.02-.02.04-.02.07-.02Z"/>
            <path class="cls-6" d="M115.83,19.56s.05-.02.05.03c-.03.02-.04,0-.05-.03Z"/>
            <path class="cls-24" d="M115.98,19.92s.03.03,0,.06v-.06Z"/>
            <path class="cls-6" d="M115.7,19.44h.03v.03s-.03,0-.03-.03Z"/>
            <path class="cls-6" d="M115.73,19.47h.03s0,.02,0,.03c-.02,0-.04,0-.03-.03Z"/>
            <path class="cls-6" d="M115.75,19.5s.02-.02.03,0c.02.02,0,.02,0,.03-.02,0-.03,0-.03-.03Z"/>
            <path class="cls-24" d="M115.99,19.69s.03,0,.04.01h0s-.03.01-.04.01v-.03h0Z"/>
            <path class="cls-6" d="M115.42,20.19s.02.02,0,.03h-.03s0-.03.03-.03Z"/>
            <path class="cls-6" d="M115.4,20.22v.02h-.03s0-.04.03-.03h0Z"/>
            <path class="cls-6" d="M115.37,20.25s0,.04-.03.03c-.01-.03,0-.04.03-.03Z"/>
            <path class="cls-6" d="M115.35,20.28s0,.04-.03.03c-.01-.03,0-.04.03-.03Z"/>
            <path class="cls-6" d="M115.32,20.3v.04h-.02s0-.04.02-.03h0Z"/>
            <path class="cls-6" d="M116.66,19.78c-.07.06,0,.18-.09.24-.04.02.04.11,0,.18-.08-.06-.12,0-.15.08-.02.07-.04.14-.11.17.02-.16.13-.35.22-.35,0-.07-.06-.11-.07-.18.09.01.15,0,.07-.11-.01-.02-.01-.04,0-.05.17-.01.05-.15.08-.22v-.05s.02,0,.02.02c0,.09-.02.18.02.26h.01Z"/>
            <path class="cls-25" d="M116.18,20.23c.02-.15.06-.27.11-.38.06.13.03.24-.11.38Z"/>
            <path class="cls-25" d="M116.43,19.65c-.11.08-.16.07-.23-.07.08.03.15.07.23.07Z"/>
            <path class="cls-24" d="M116.66,19.78c-.04-.08-.02-.17-.02-.26.04.08.01.17.02.26Z"/>
            <g>
              <path class="cls-7" d="M118.31,16.61s-.01-.02-.03-.02h.01v.02h.02Z"/>
              <path class="cls-24" d="M118.18,20.89s-.02-.04-.03-.07v-.2c0-.06-.03-.06-.07-.07-.07,0-.06.04-.05.09h-.04s-.03-.11-.1-.09c-.05.02-.02.06-.03.09h-.05s-.03-.1-.09-.09c-.07.01,0,.09-.06.12-.04-.05-.05-.16-.15-.11v-.05c.14-.05.19-.19.24-.32.01-.03.02-.09.05-.09.14.02.04-.06.03-.1,0-.03-.03-.05-.04-.08h0s.08.03.12,0c.04-.04-.15-.17.05-.15v-.03c.01-.14,0-.3-.1-.38-.18-.14-.25-.33-.25-.56,0-.15-.05-.27-.17-.35-.08-.05-.15-.11-.22-.16.36.1.71.21.93-.27h.04c-.07.24-.25.38-.51.39-.12,0-.14.03-.07.14.06.1.06.21.06.32,0,.18.06.33.21.42.1.06.09.18.12.27.04.14,0,.29-.04.41-.03.07-.02.11-.03.17,0,.02,0,.05-.02.04-.15-.07-.12.09-.17.15-.03.04-.05.09-.09.16h.46c.07,0,.1.02.09.1v.29h-.02Z"/>
              <path class="cls-12" d="M117.78,19.92s.04.05.04.08c0,.04.11.11-.03.1-.03,0-.03.06-.05.09-.05.13-.1.27-.24.32-.17-.05-.33-.01-.48.06h-.04c-.08.04-.14,0-.17-.07-.04-.08.04-.12.08-.15.06-.04.13-.06.21-.09-.15,0-.27.02-.35.16-.02.03.01.12-.07.1-.07-.02-.08-.08-.06-.14,0-.01.01-.03.02-.04.16-.19.35-.22.57-.17.14.03.18-.02.16-.18-.01-.11-.04-.22,0-.33.02-.05-.01-.07-.05-.07-.28-.08-.43-.3-.54-.58-.08-.21-.18-.26-.4-.23-.02,0-.04.01-.05.04-.13.17-.3.11-.46.11.07.03.13.06.23.1-.2.08-.33-.08-.48-.07.1.06.19.11.3.17-.11.09-.22-.03-.33,0,.04.05.1.04.13.1-.04.03-.09.05-.14.03-.04-.01-.08-.03-.12-.05-.04-.01-.07-.06-.12-.02.04.05.11.06.14.11-.07.05-.14.03-.2-.02-.05-.04-.09-.08-.14-.12-.01-.02-.03-.03-.05-.01,0,.01.02.02.03.04.04.05.09.11.13.16-.1.06-.16-.02-.23-.05-.04.03.04.07-.01.09-.08.04-.14-.03-.23-.1.05.12.05.2,0,.27-.04.05-.08-.04-.13-.04-.06.28-.11.33-.23.25-.02.06.02.13-.02.18-.05,0-.06-.08-.11-.05,0,.1-.02.16-.05.18-.04-.08-.07,0-.09.02-.1.1-.16.24-.27.33-.18-.01-.36-.01-.54.07-.06.03-.14.02-.18-.05-.05-.07.04-.11.06-.16v-.03c-.06,0-.1.05-.11.11-.02.13-.07.09-.14.05-.03-.04.02-.09-.02-.13h0s.03,0,.04-.02c0-.02,0-.03-.02-.03h0s.02.02.04,0c.16-.19.36-.18.56-.13.08.02.12-.01.16-.08.08-.16.13-.33.29-.42-.07-.07-.13-.13-.17-.21-.01-.02-.03-.04-.05-.01v.05c-.22-.11-.38-.31-.52-.52-.05-.08-.11-.1-.18-.06-.1.02-.2.05-.3,0,.06-.1.07-.14.06-.33-.01-.21-.01-.2-.2-.17h-.15s-.07-.02-.08-.06c0-.05.03-.08.06-.09.14-.05.28-.05.42,0,.09.03.17.08.26.1.09.02.14.05.11.16,0,.04,0,.11.05.09.11-.04.1.04.14.11.07.12.05.25.08.37.04.16.05.17.19.11.02.07-.02.18.04.2.07.02.14-.06.2-.12.04.05.06.13.12.16.07.03.11-.01.13-.09.02-.05.05-.09.1-.02.06.08.12.1.17-.02.03-.07.05-.05.09-.02q.12.09.18-.07s0-.09.06-.04c.08.07.11,0,.13-.07.02-.05.03-.09.09-.06.1.05.13,0,.12-.1,0-.04-.03-.12.06-.1.1.02.11-.05.11-.12s-.04-.18-.01-.21c.06-.08.04-.15.04-.23h.11c.16,0,.18-.02.12-.17.02-.02.05-.01.07-.01.26.03.51,0,.76-.08.2-.06.4-.07.6,0,.04.02.07.03.11.05.09.06.19.11.3.15.17.05.33.05.48-.07.13-.16.13-.38,0-.55-.09-.11-.2-.19-.32-.26-.18-.1-.36-.19-.52-.34-.16-.28-.15-.56.04-.71.15-.13.46-.15.65.14.02.02.03.07.07.05h0v.03s.02,0,.03,0h0v.03h.03s-.02.02,0,.03h.03c.01.1.09.1.16.1.04,0,.11.02.11-.08h0c.07.01.06-.05.06-.09,0-.01,0-.03.01-.04,0-.06-.01-.07-.05-.05h0s.02-.02,0-.03c-.02-.02-.02,0-.03,0h0s.02-.02,0-.03c-.01-.02-.02,0-.03,0h0c.01-.06-.03-.06-.06-.06-.02-.02-.04-.03-.06-.02-.13,0,0-.09-.03-.12h0s.05,0,.08,0h.07s.04.04.05,0h0c-.01.06.03.08.06.08.01,0,.07-.03.03-.08h0s.02.02.03,0c.02-.02,0-.02,0-.03h0s.03,0,.05,0h.1s.05.02.07.05c-.01.05-.1.02-.09.09h0s-.02-.02-.03,0c-.02.02,0,.02,0,.03h0s-.02-.02-.03,0,0,.02,0,.03h0s-.05.02-.05.04c0,.09-.04.18-.02.27h0s-.03.01-.04.03h0s-.04.02-.03.05h-.03v.02h0s-.05-.02-.05.03h0s-.05,0-.08,0h-.07s-.07-.06-.1,0h0s0-.03-.01-.04c-.02,0-.03,0-.04.01h0c0-.06-.02-.08-.07-.06h0s.02-.02,0-.03c-.02-.02-.02,0-.03,0h0s.02-.02,0-.03c-.01-.02-.02,0-.03,0h0c.02-.07-.02-.1-.08-.11h0v-.03s-.02,0-.03,0h0s.02-.02,0-.03c-.01-.02-.02,0-.03,0h0s.02-.02,0-.03c-.01-.02-.02,0-.03,0h0c-.04-.14-.15-.14-.25-.14h-.02c-.05,0-.1.03-.14.07,0,0-.02.02-.03.03,0,0-.02.02-.02.03,0,.02-.02.03-.03.05-.05.09-.06.18-.03.28,0,.05.02.09.05.12.02.03.02.09.08.07h0c0,.06.02.08.07.06h0c0,.06.02.09.07.05h0s0,.03.01.04c.02.01.03,0,.04-.02h0s-.02.02,0,.03h.03s.02.06.05.03h0c.03.09.11.09.16.12.05.04.11.07.16.11.03.02.05.09.1.05h0s-.02.02,0,.03h.03c0,.06.02.08.07.06h0s0,.05.03.05h0s0,.04.03.03h0v.03s.02,0,.02,0h0s-.01.09.05.08h0s-.03.07.03.08h0c-.03.1,0,.2-.02.3-.22.48-.57.37-.93.27.07.05.15.11.22.16.12.08.17.2.17.35,0,.23.06.42.25.56.1.08.11.24.1.38v.03c-.2-.02,0,.11-.05.15-.04.03-.08-.02-.12,0v-.02h0l.02.03ZM114.97,19.27s0,.02.01.03h0s-.01-.01-.02-.02c0-.01,0-.02-.01-.03h0s0,.04.02.03h0ZM114.36,19.61c-.06.05-.14.05-.21.08.09.04.18.08.23-.07v-.03s0,.01-.01.02h-.01ZM116.94,18.91c.02.36.25.6.56.62-.24-.14-.48-.3-.56-.62ZM117.52,19.69c-.05.15-.06.28-.05.4.09-.11.12-.23.05-.4ZM113.82,20.21c.2-.11.25-.19.25-.33-.1.08-.17.19-.25.33ZM114.12,19.47c.13.11.21.09.25-.07-.07.06-.15.08-.25.07ZM116.82,18.76c-.05-.15-.12-.18-.23-.08.09,0,.16.02.23.08Z"/>
              <path class="cls-14" d="M114.11,19.39c-.06-.03-.07-.11-.12-.16-.06.06-.13.14-.2.12-.07-.02-.02-.14-.04-.2-.14.05-.15.05-.19-.11-.03-.12-.01-.25-.08-.37-.04-.07-.03-.15-.14-.11-.05.02-.06-.05-.05-.09.03-.11-.03-.14-.11-.16-.09-.02-.18-.06-.26-.1-.14-.05-.28-.05-.42,0-.04.01-.07.04-.06.09,0,.04.04.06.08.06h.15c.19-.03.19-.04.2.17.01.19,0,.23-.06.33.1.04.2.01.3,0v.05c-.12.05-.25.06-.37,0-.03-.02-.06-.02-.1-.02-.21,0-.25-.04-.24-.28,0-.1.02-.2-.01-.29-.01-.04,0-.07.02-.1.06-.12.04-.17-.09-.16-.11,0-.23.01-.31-.11.06-.09.15-.13.25-.11.12.02.17-.02.17-.17,0-.36.05-.72.19-1.06.33-.77,1.12-1.16,1.81-.91.05.02.1.04.18.08-.16.02-.29.04-.42.06-.01-.01-.03-.02-.04-.03.08-.02.15-.04.24-.06-.04-.01-.06-.03-.09-.04-.49-.09-.93.03-1.3.41-.42.44-.53,1.01-.53,1.62,0,.03,0,.07.04.06.04,0,.09,0,.1-.06v-.13c.02-.29.05-.57.15-.84.01.01.02.03.03.04-.08.29-.13.58-.13.88,0,.06,0,.11.07.11s.05-.07.05-.1c.01-.26.02-.52.1-.77.01,0,.02.02.04.02-.06.23-.07.48-.09.72-.01.13.02.19.15.17.06,0,.14-.02.2.03.03.02.04,0,.06-.02.04-.11.13-.17.2-.25-.04-.02-.08,0-.12,0-.01-.06.02-.12.04-.17.01-.04.1-.09-.02-.1-.04,0,0-.05,0-.06.09-.18.09-.41.25-.55-.01-.14.04-.26.06-.39.01-.09.04-.1.1-.07.04.02.08.03.12.06.05.04.07.06.12,0,.08-.1.08.02.11.06h-.04s-.02-.02-.03-.02c-.07.03-.01.11-.05.16-.04-.05-.08-.11-.13-.15-.07-.06-.14-.09-.16.06-.01.09-.07.17-.02.27.01.02,0,.04-.02.06-.17.13-.17.35-.25.53.03.04.08,0,.11.04-.09.15-.09.23.01.24.15.02,0,.03,0,.04-.04.07-.1.11-.15.17-.03.04-.09.1-.07.14.04.05.09,0,.13-.04h.04s-.02.08-.04.11c-.05.04-.02.09-.03.14h-.02s0-.09-.01-.16c-.14.1-.28.16-.44.14-.02,0-.05,0-.06.04,0,.03.02.05.04.06.11.04.22.07.32.12.07.03.11,0,.14-.07.05.02,0,.06,0,.08,0,.07-.06.16,0,.2.06.03.09-.07.14-.12h.02c-.01.07-.03.15-.02.22,0,.03,0,.06.03.07.03.02.05-.01.08-.03.05-.05.07-.12.12-.21v.28s-.02.03-.03.04c-.03-.02-.02-.12-.08-.05-.09.09-.04.21-.02.32,0,.04.01.1.05.1.08,0,.08-.11.12-.16h.01c0,.08.01.17.03.25.02.09.05.1.12.03.05-.05.05-.12.12-.2-.04.16.06.25.06.37v-.06ZM112.63,17.81c-.15.06-.31.08-.47.07-.03,0-.07.02-.07.06,0,.03.04.04.07.05.08,0,.16-.02.22.01.24.14.48-.04.71-.01.03,0,.06-.01.06-.05s-.03-.06-.06-.06c-.16,0-.32-.02-.47-.07h.01ZM112.62,18.54s.09-.02.14-.03c.03-.01.07-.03.05-.08-.01-.04-.05-.04-.07-.03-.07,0-.13.02-.2.03-.04,0-.1-.03-.1.04,0,.06.06.06.1.07h.08ZM112.59,18.69c.06,0,.12,0,.18-.03.03-.01.06-.03.04-.07-.01-.03-.04-.02-.07-.01-.07.01-.15.04-.23.02-.03,0-.07-.03-.08.03,0,.05.03.06.07.07h.09ZM112.43,18.74c.09.1.27.12.34.05.01-.01.02-.03.02-.04,0-.03-.03-.03-.05-.02-.1.04-.2.01-.32.01h.01Z"/>
              <path class="cls-16" d="M115.92,16v.73c.08-.15.1-.31.13-.47.02-.14.09-.11.17-.09.1.02.08.08.06.15-.03.11-.05.22-.08.33.06,0,.06-.04.07-.07.09-.24.19-.48.28-.72.04-.12.09-.13.19-.08.12.05.05.12.03.18-.11.27-.23.54-.35.81-.01.03-.04.06,0,.09s.05-.02.06-.05c.05-.07.09-.13.13-.2,0,0,.02.02.03.03-.12.19-.23.37-.35.56-.01.01-.03.03-.04.04-.02-.01-.04-.02-.06-.03,0-.02.02-.04.02-.06.17-.4.34-.8.51-1.2.02-.05.04-.09-.02-.12s-.08,0-.1.05c-.16.41-.32.83-.48,1.24-.01.01-.02.03-.03.04-.01,0-.03-.01-.04-.02v-.06s.02-.05.02-.08c.02-.02.03-.05.03-.07v-.04h0v-.02c.02-.09.05-.19.07-.28.02-.02.02-.05.02-.07.01-.06.02-.12.03-.18,0-.05.05-.1-.04-.13-.09-.03-.08.04-.09.09-.05.22-.09.43-.14.65,0,.01-.01.03-.02.04.02.03-.01.09.05.1v.04s-.06-.01-.1-.02c0-.02,0-.04-.03-.06,0-.35.02-.71.03-1.06h.04ZM115.93,16.82v-.03s-.01.02-.01.03v.03s0-.02.01-.03ZM116.39,16.93v-.02s-.02,0-.03.01,0,.02,0,.03c0,0,.02,0,.03-.01h0ZM116.19,16.69s0,.02-.01.03c0,0,.01.01.02.01s.02-.01.01-.03c0,0-.01,0-.02-.01Z"/>
              <path class="cls-14" d="M114.92,16.49c.11.13.17.3.3.43.02-.07-.02-.11-.03-.15-.12-.29-.24-.57-.37-.85-.03-.07-.03-.11.04-.13.06-.01.12-.12.17.02.08.22.16.43.24.64h-.04c-.08-.19-.16-.38-.23-.57-.03-.08-.07-.08-.12-.04-.06.04-.01.08,0,.12.14.35.29.69.44,1.04,0,.05,0,.1-.06.11h0s-.02-.03-.03-.04c-.12-.17-.23-.34-.33-.52v-.05h.02ZM115.25,16.94s-.01-.04-.03-.03c-.03.02,0,.03,0,.05s.02.04.03.06c.02-.03.02-.05,0-.08Z"/>
              <path class="cls-16" d="M117.83,16.41s-.06-.03-.07-.05c-.19-.28-.49-.27-.65-.14-.19.16-.2.44-.04.71,0,0-.02.02-.03.03-.02-.03-.05-.02-.08-.01-.02,0-.02-.02,0-.04.02-.04.01-.09-.02-.11-.04-.03-.05.03-.08.05-.04.02-.05.09-.1.06.03-.08.09-.11.14-.17.04-.05.03-.11,0-.16,0-.02-.03.03-.05.04v-.1l.03-.03c.06.05.06,0,.08-.05.08-.23.22-.35.42-.35.21,0,.4.12.48.33h-.03Z"/>
              <path class="cls-16" d="M113.8,19.44s-.01-.04,0-.05c.02-.02.04,0,.05.01.04.08.1.14.17.21-.16.1-.21.27-.29.42-.04.07-.08.1-.16.08-.2-.04-.4-.05-.56.13-.01.01-.03.02-.04,0,.14-.23.34-.22.55-.18.12.02.17-.02.21-.13.04-.1.08-.2.15-.27s.06-.1-.03-.12c-.03,0-.05-.03-.07-.06,0-.02.01-.04.02-.06v.02Z"/>
              <path class="cls-16" d="M115.71,16.81c0-.39-.01-.77-.02-1.16,0-.1.06-.09.11-.08.05,0,.14-.05.13.08v.21c-.04-.07.01-.16-.04-.22q-.15-.04-.15.12v.63c-.03.1-.03.2,0,.3v.11h-.04.01Z"/>
              <path class="cls-24" d="M114.11,15.83c-.05.05-.12.05-.18.07-.34.11-.62.3-.82.62v-.05c.25-.39.58-.61,1.02-.63h-.02Z"/>
              <path class="cls-24" d="M113.8,19.44s-.01.04-.02.06c-.22-.12-.39-.31-.53-.52-.04-.07-.09-.09-.16-.06v-.05c.08-.05.13-.03.18.06.14.22.3.41.52.52h.01Z"/>
              <path class="cls-25" d="M114.9,16.45s.01,0,.01.01c0,0-.02.02-.03.03-.06.04-.07.14-.02.2.06.09.13.17.17.27-.03.02-.04.06-.03.1h-.01c-.05-.12-.07-.28-.2-.36-.02-.01-.02-.04,0-.06.04-.08,0-.16-.02-.24h.02s.05.02.08.02c0,.01.02.02.03.03Z"/>
              <path class="cls-16" d="M117.19,16.29s.08-.06.14-.07c0,.01.02.01.02,0,.1,0,.21,0,.25.14-.03.02-.11-.05-.07.06,0,.01-.04.04-.06.06,0-.01-.02-.02-.03-.03.02-.03.02-.05,0-.08-.04-.1-.1.01-.15-.02,0-.02.02-.05.04-.09-.05.02-.08.04-.11.06,0-.01-.02-.02-.03-.03Z"/>
              <path class="cls-24" d="M115.35,16.18c.17-.05.17-.06.21.13.02.11.07.21.04.33,0,.02,0,.03-.01.05-.03-.13-.07-.26-.09-.4-.01-.09-.05-.09-.11-.07l-.05-.03h.01Z"/>
              <path class="cls-16" d="M117.91,17.34c-.06.03-.07-.03-.1-.05,0-.02.02-.03.03-.05.04-.02.1-.02.07-.1-.03-.07-.07-.05-.11-.03-.02.01-.05.02-.07.03-.01-.01-.02-.02-.03-.03.03-.02.07-.03.1-.05.1-.04.19.03.18.15,0,.04-.03.05-.05.05-.07.02,0,.06-.01.08h0Z"/>
              <path class="cls-16" d="M115.59,16.68s0-.03.01-.05c.06.07.04.16.07.24,0,.02-.01.06.04.05h.04v.19s-.08.01-.12.02v-.04c.07-.05,0-.12.02-.18,0-.02-.01-.03-.02-.05v-.07s-.01-.03-.02-.05c0-.02,0-.05-.01-.07h-.01Z"/>
              <path class="cls-16" d="M118.47,16.2c-.01-.08.08-.04.09-.09-.01-.03-.04-.04-.07-.05-.03-.04-.07-.04-.1,0-.02,0-.04.04-.05,0,.12-.1.24-.06.32.11-.06.01-.13.03-.19.04h0Z"/>
              <path class="cls-16" d="M118.1,16.22s.07,0,.06.06c-.09-.01-.17-.07-.27-.02.02-.1.04-.17.12-.18.03.03-.1.12.03.12.02.02.04.03.06.02Z"/>
              <path class="cls-14" d="M115.35,16.18s.03.02.05.03c-.07.08.02.16,0,.24,0,.02-.01.05-.02.07-.02-.09-.05-.18-.08-.28-.01-.04,0-.06.04-.06h0Z"/>
              <path class="cls-16" d="M118.18,16.53c0,.09-.07.08-.11.08-.06,0-.14,0-.16-.1.09.04.18.08.27.03h0Z"/>
              <path class="cls-16" d="M118.34,16.56c-.02-.09.02-.18.02-.27,0-.02.01-.07.05-.04-.05.1.02.22-.07.31Z"/>
              <path class="cls-16" d="M118.14,18.01c.03-.1,0-.2.02-.3.07.1.04.2.02.31h-.04,0Z"/>
              <path class="cls-16" d="M117.64,17.18c-.06-.04-.14-.04-.16-.12.07-.03.12.09.2.04.01.01.02.02.03.03v.04h-.07,0Z"/>
              <path class="cls-25" d="M114.45,16.29c.03.07.07.03.1,0,0,.01.02.02.03.04-.04.05-.09.1-.14.16,0-.07-.01-.12-.01-.17,0-.01.01-.02.02-.03Z"/>
              <path class="cls-25" d="M115.88,15.63c.05.07,0,.16.04.22v.14h-.04v-.36Z"/>
              <path class="cls-25" d="M114.6,16.26s.02-.01.03-.02c.09-.03.13,0,.14.1.01.15,0,.03,0,.05h0s-.02-.17-.13-.1c0-.01-.02-.02-.03-.03h-.01Z"/>
              <path class="cls-16" d="M117.93,16.7c.03-.06.07,0,.1,0,.02.03.05.03.07,0,.03,0,.05-.03.08,0-.09.08-.17.06-.26,0h.01Z"/>
              <path class="cls-25" d="M114.28,16.26s.03.05.05.07c0,0,.01,0,.01-.01s0-.02.01-.03c0,.01.02.02.03.03-.02.04-.04.09-.09.12-.02-.05-.03-.1-.04-.15,0-.01.02-.02.03-.03Z"/>
              <path class="cls-14" d="M115.38,16.69s.02,0,.03-.02c.02,0,.04,0,.06-.01h0s-.01.07.03.09h0c.01.09-.06.06-.09.07h0s.01-.03.02-.04h-.04s0-.05.01-.07l-.02-.02Z"/>
              <path class="cls-16" d="M116.68,16.49c.06-.15.12-.05.18,0,0,.01-.02.02-.03.03-.04-.02-.08-.08-.12,0-.01,0-.02-.02-.03-.03Z"/>
              <path class="cls-25" d="M114.05,16.34h.04s.04-.05.06-.07c0,.01.02.02.03.03-.02.05-.03.1-.05.15-.04-.03-.06-.06-.07-.11h0Z"/>
              <path class="cls-16" d="M118.21,16.34s.04,0,.05.05c0,.01,0,.03-.01.04,0,.04.01.1-.06.09,0-.06.04-.12.03-.19h-.01Z"/>
              <path class="cls-16" d="M118.21,16.08h-.05s-.05-.03-.07,0c-.03,0-.05.05-.08,0,.07-.07.14-.08.21,0h0Z"/>
              <path class="cls-16" d="M117.2,16.86c-.06.02-.06-.04-.08-.07v-.07s.04,0,.06-.01l.03.03s-.01.08,0,.12h0Z"/>
              <path class="cls-25" d="M114.15,16.26c.04-.08.09-.09.13,0,0,.01-.02.02-.03.03-.03-.03-.05-.03-.07,0,0-.01-.02-.02-.03-.03Z"/>
              <path class="cls-16" d="M118.31,16.08s-.02.08-.03.08c-.03,0-.07-.03-.06-.08h.09Z"/>
              <path class="cls-25" d="M115.75,16.92h-.04v-.11h.04v.11Z"/>
              <path class="cls-16" d="M117.36,16.59s-.06.06-.1.1c0-.01-.02-.02-.03-.04.03-.03.06-.06.1-.09,0,.01.02.02.02.03h.01Z"/>
              <path class="cls-16" d="M117.67,16.45c.06,0,.1.03.08.11-.04-.02-.08-.05-.08-.11Z"/>
              <path class="cls-25" d="M115.46,16.66s-.04,0-.06.01v-.08s.01-.02.02-.03h0s.02.07.03.11h.01Z"/>
              <path class="cls-14" d="M112.96,16.8s-.03.09-.05.14c-.01,0-.02-.02-.04-.02.02-.05.03-.09.05-.14.01,0,.02.02.03.03h.01Z"/>
              <path class="cls-16" d="M117.27,16.92c-.05.03-.08,0-.07-.06.04,0,.06.02.07.06Z"/>
              <path class="cls-16" d="M117.35,16.97c-.05.03-.07,0-.07-.05.04,0,.06.02.07.05Z"/>
              <path class="cls-25" d="M115.29,16.46s.04.09.06.14c-.01,0-.02.02-.03.03-.02-.05-.04-.09-.05-.14,0,0,.02-.02.03-.03h0Z"/>
              <path class="cls-16" d="M117.8,16.62c.05-.02.07,0,.07.06-.04,0-.06-.02-.07-.06Z"/>
              <path class="cls-16" d="M118.01,17.42c-.05.03-.07,0-.07-.06.05-.01.06.03.07.06Z"/>
              <path class="cls-16" d="M118.14,17.62c-.06,0-.07-.03-.05-.08.04,0,.05.04.05.08Z"/>
              <path class="cls-25" d="M114.35,16.29h0s.02-.03.03-.05c.04-.02.05.02.06.04,0,.01-.01.02-.02.03h-.05s-.02-.02-.03-.03h.01Z"/>
              <path class="cls-25" d="M115.39,16.52s.01-.05.02-.07c0,.03.02.07.02.1h-.02v-.04h-.02Z"/>
              <path class="cls-16" d="M118.16,17.7c-.05-.01-.05-.04-.03-.08.03.02.05.04.03.08Z"/>
              <path class="cls-25" d="M115.34,16.6s.02.06.03.09c-.01,0-.02.01-.03.02-.01-.03-.02-.05-.03-.08.01,0,.02-.02.03-.03Z"/>
              <path class="cls-14" d="M113.09,16.46v.05s-.01.02-.02.03c-.01,0-.02-.02-.03-.03.01-.02.03-.03.04-.05h0Z"/>
              <path class="cls-25" d="M114.92,16.49v.05s-.02-.03-.03-.05c0,0,.02-.02.03-.03,0,0,0,.02.01.03h-.01Z"/>
              <path class="cls-14" d="M113.09,16.54l-.03.05s-.02-.02-.03-.03c0-.02.02-.03.03-.05.01,0,.02.02.03.03Z"/>
              <path class="cls-14" d="M112.99,16.74s-.01.04-.02.06c-.01,0-.02-.02-.03-.03,0-.02.02-.04.02-.06.01,0,.02.02.03.03Z"/>
              <path class="cls-16" d="M117.48,17.06s-.05.02-.05-.03c.03-.02.05-.01.05.03Z"/>
              <path class="cls-16" d="M118.04,17.48s-.06,0-.03-.05c.03,0,.05.02.03.05Z"/>
              <path class="cls-25" d="M115.38,16.69s0,.05-.01.07c0-.02-.01-.04-.02-.06.01,0,.02-.01.03-.02h0Z"/>
              <path class="cls-16" d="M118.19,16.7s.02-.05.05-.03c0,.04-.02.05-.05.03Z"/>
              <path class="cls-16" d="M116.64,16.55s.02-.04.03-.06c.01,0,.02.02.03.03l-.03.05s-.02-.01-.03-.02Z"/>
              <path class="cls-16" d="M117.88,16.67s.02-.02.04-.01c.02,0,.02.02.01.04-.02,0-.04,0-.05-.03Z"/>
              <path class="cls-25" d="M114.55,16.29s.03-.02.05-.03c0,.01.02.02.03.03-.02,0-.03.02-.05.03,0-.01-.02-.02-.03-.04h0Z"/>
              <path class="cls-14" d="M113.01,16.68s-.02.04-.03.06c-.01,0-.02-.02-.03-.03,0-.02.02-.04.03-.05.01,0,.02.02.03.03h0Z"/>
              <path class="cls-16" d="M118.26,16.65s0-.04.03-.05c.02,0,.03.01.02.03,0,.02-.02.04-.05.02Z"/>
              <path class="cls-14" d="M113.04,16.63s-.02.04-.03.06c-.01,0-.02-.02-.03-.03,0-.02.02-.04.03-.06.01,0,.02.02.03.03Z"/>
              <path class="cls-16" d="M117.4,17s-.02.03-.04.02c-.02-.01-.02-.02-.01-.04.03-.01.04,0,.05.03h0Z"/>
              <path class="cls-16" d="M118.44,16.23s-.02-.02,0-.03c.01-.01.02,0,.03,0t-.03.03Z"/>
              <path class="cls-16" d="M118.42,16.25s-.02-.02,0-.03c.01-.02.02,0,.03,0,0,.02,0,.03-.03.03Z"/>
              <path class="cls-14" d="M114.39,16.24s-.02.02-.03.04c0-.02,0-.03.03-.04Z"/>
              <path class="cls-16" d="M118.16,16.28s.02-.02.03,0c.02.02,0,.02,0,.03-.02,0-.03,0-.03-.03Z"/>
              <path class="cls-14" d="M114.34,16.32s0,.01-.01.01h.01Z"/>
              <path class="cls-16" d="M118.18,16.31s.01-.02.03,0,0,.02,0,.03c-.02,0-.03,0-.02-.03h-.01Z"/>
              <path class="cls-14" d="M114.77,16.39v-.05s.01.03.02.05h-.02Z"/>
              <path class="cls-16" d="M117.6,16.37s.01-.02.03,0c.01.02,0,.02,0,.03-.02,0-.03,0-.03-.03Z"/>
              <path class="cls-16" d="M117.62,16.39s.01-.02.03,0c.01.02,0,.02,0,.03-.02,0-.03,0-.02-.03h-.01Z"/>
              <path class="cls-14" d="M114.9,16.45s-.02-.02-.03-.03c.02,0,.03.01.03.03Z"/>
              <path class="cls-16" d="M117.65,16.42s.02-.02.03,0v.03s-.03,0-.02-.03h-.01Z"/>
              <path class="cls-16" d="M117.86,16.44s-.02.02-.03,0v-.03s.03,0,.03.03Z"/>
              <path class="cls-25" d="M115.24,16.45h.04s.01,0,0,.02c0,0-.02.02-.03.03,0-.01,0-.03-.01-.04h0Z"/>
              <path class="cls-16" d="M117.88,16.47h-.03v-.03s.03,0,.03.03Z"/>
              <path class="cls-16" d="M117.46,16.49s-.02.02-.03.02c0-.01-.02-.02-.03-.03,0,0,.02-.02.03-.02,0,.01.02.02.03.03Z"/>
              <path class="cls-16" d="M117.91,16.5h-.03s0-.02,0-.03c.02,0,.04,0,.03.03Z"/>
              <path class="cls-16" d="M117.44,16.52l-.03.02s-.02-.02-.03-.03c0,0,.02-.02.03-.03l.03.03h0Z"/>
              <path class="cls-16" d="M117.41,16.54s-.02.02-.03.03c0-.01-.02-.02-.03-.03,0,0,.02-.02.03-.03l.03.03Z"/>
              <path class="cls-14" d="M115.4,16.56h.02s-.01.02-.02.03v-.03Z"/>
              <path class="cls-16" d="M116.63,16.57s.01-.02.02-.03c.01,0,.02.01.03.02,0,.01-.01.02-.02.04,0,0-.02-.02-.03-.03Z"/>
              <path class="cls-16" d="M117.38,16.57s-.02.02-.03.03c0-.01-.02-.02-.02-.03,0,0,.02-.02.02-.03,0,.01.02.02.03.03Z"/>
              <path class="cls-16" d="M117.75,16.56s.01-.02.03,0c.01.02,0,.02,0,.03-.02,0-.03,0-.02-.03h-.01Z"/>
              <path class="cls-16" d="M118.3,16.59s0-.05.04-.03c0,.03,0,.06-.04.03Z"/>
              <path class="cls-14" d="M113.05,16.59s-.01.02-.02.03c-.01,0-.02-.02-.03-.03,0-.01.01-.02.02-.03l.03.03Z"/>
              <path class="cls-16" d="M117.43,17.03h-.03s0-.02,0-.03c.02,0,.04,0,.03.03Z"/>
              <path class="cls-16" d="M117.26,16.69s-.02.02-.03.02c0-.01-.02-.02-.03-.03,0,0,.02-.02.03-.03,0,.01.02.02.03.04Z"/>
              <path class="cls-16" d="M117.94,17.37h-.03s0-.02,0-.03c.02,0,.04,0,.03.03Z"/>
              <path class="cls-16" d="M118.06,17.51s-.03,0-.03-.03c.03-.01.04,0,.03.03Z"/>
              <path class="cls-16" d="M118.09,17.53s-.02.02-.02,0v-.03s.03,0,.02.03Z"/>
              <path class="cls-16" d="M118.24,16.67v-.02h.03s0,.04-.03.03h0Z"/>
              <path class="cls-16" d="M117.24,16.72s-.02.02-.03.02c0-.01-.02-.02-.03-.03,0,0,.02-.02.03-.02,0,.01.02.02.03.03Z"/>
              <path class="cls-16" d="M117.78,16.59s.01-.02.03,0,0,.02,0,.03c-.02,0-.03,0-.03-.03Z"/>
              <path class="cls-16" d="M118.33,16.05s.02.02,0,.03c-.01.01-.02,0-.03,0t.03-.03Z"/>
              <path class="cls-16" d="M116.61,16.61s.01-.02.02-.03c0,0,.02.02.03.03,0,.01-.01.02-.02.03,0,0-.02-.02-.03-.03Z"/>
              <path class="cls-23" d="M114.11,19.39c0-.12-.11-.21-.06-.37-.07.08-.07.15-.12.2-.06.06-.1.06-.12-.03-.01-.08-.02-.16-.03-.25.03-.02.02-.05.02-.09.04-.03.08-.07.12-.1.12.26.1.28.28.04.11.15.2.14.27-.03.1.09.19.06.26-.09.11-.22.1.08.16.08.02.01.04.02.05.03v.21s0,.11-.05.12-.06-.05-.08-.09c-.02-.04-.02-.1-.07-.14v.27s0,.09-.05.1c-.04.01-.08-.03-.1-.07-.03-.07-.05-.14-.09-.23,0,.1-.01.18-.02.25,0,.04-.02.08-.05.09-.04.01-.06-.03-.08-.05-.06-.06-.05-.16-.1-.23-.02.1,0,.2-.04.28-.02.03.02.02.04.03-.02.07-.05.11-.13.09v-.02Z"/>
              <path class="cls-6" d="M114.24,19.3s-.06,0-.04-.03c.05-.09.03-.18.04-.28.05.07.05.17.1.23.02.02.05.07.08.05.03-.01.05-.05.05-.09.01-.08.01-.15.02-.25.03.09.06.17.09.23.02.04.05.08.1.07.04-.01.05-.07.05-.1v-.27c.05.05.05.1.07.14.02.04.03.1.08.09.05,0,.05-.07.05-.12v-.21s.04.09.07.13c.02.04.05.07.09.06.04-.01.03-.06.03-.1,0-.05-.03-.11,0-.16.06,0,.11.08.15.03.05-.06.02-.14,0-.21,0-.01,0-.03-.01-.04-.01-.04-.03-.07-.07-.07-.05,0-.04.05-.04.08-.02.11-.06.12-.14.07-.02-.01-.04-.04-.07-.02,0,.07-.02.14-.06.2-.06,0-.11-.05-.16-.08-.07.15-.16.18-.26.09-.08.17-.17.18-.27.03-.18.25-.15.23-.28-.04-.04.03-.08.07-.12.1-.07,0-.07-.06-.1-.11,0-.01.02-.03.03-.04.04.09.08.08.14.02.04-.05.06-.11.1-.17.02.1,0,.18.03.26s.06.07.1.01c.05-.07.05-.17.09-.26.02.08.04.15.07.22.01.04.03.09.07.09.05,0,.05-.07.06-.11.01-.06,0-.13.01-.22.04.07.07.12.1.17.02.03.05.08.09.07.04-.01.05-.07.06-.12.02-.07-.02-.15.02-.22.02.05.04.1.07.15.02.04.06.08.1.07.05-.01.04-.07.04-.12v-.16c.06.07.11.17.19.13.07-.04.03-.14.03-.23.02,0,.03,0,.04.01.1.06.16.03.18-.09.03-.18.02-.02.02-.03h.01v.05c0,.08.02.15-.04.23-.03.04.01.14.01.21s-.01.14-.11.12c-.09-.02-.06.06-.06.1,0,.1-.03.16-.12.1-.06-.03-.07.01-.09.06-.02.07-.05.14-.13.07-.05-.04-.05.02-.06.04-.06.16-.07.16-.18.07-.04-.03-.06-.05-.09.02-.05.12-.11.09-.17.02-.05-.06-.07-.03-.1.02l.04.04Z"/>
              <path class="cls-6" d="M114.24,20.09s.06-.08.05-.18c.05-.02.06.06.11.05.04-.05,0-.12.02-.18.12.08.17.03.23-.25.05,0,.09.09.13.04.05-.06.05-.15,0-.27.09.08.15.14.23.1.05-.02-.03-.06.01-.09.07.04.13.11.23.05-.04-.06-.09-.11-.13-.16,0,0,.01-.02.02-.02.05.04.09.08.14.12.06.05.13.07.2.02-.03-.06-.09-.07-.14-.11.05-.04.08,0,.12.02.04.01.08.03.12.05.05.01.09,0,.14-.03-.02-.06-.09-.04-.13-.1.11-.04.22.08.33,0-.11-.06-.2-.12-.3-.17.15,0,.28.15.48.07-.1-.04-.16-.07-.23-.1.16,0,.34.06.46-.11,0,0,.02.02.03.03-.09.08,0,.17-.01.25-.05.03-.05-.03-.05-.05-.01-.1-.05-.1-.11-.04-.06.08-.19.08-.2.22,0,.02-.02,0-.03,0-.11-.05-.03.04-.04.07h-.01s-.04-.02-.07-.03h-.02v.02s.01.06.02.09c0,0-.01.01-.02.02,0,0-.01,0-.02-.01-.04-.02-.04-.12-.11-.07-.07.05.02.08.02.12,0,0-.01.01-.02.02-.06,0-.06-.12-.14-.09-.21.07-.44.09-.65.13-.07.01-.18.13-.23.2-.08.12-.19.22-.25.36l-.02.02c-.1-.06-.07.05-.09.09-.04.08-.06.06-.09,0v-.05l.02-.05Z"/>
              <path class="cls-25" d="M117.03,17.97c-.2-.06-.4-.06-.6,0-.25.08-.5.11-.76.08-.02,0-.05-.01-.07.01h0v-.02s-.01.01-.02.02h-.05s-.06-.06-.09-.09c-.04-.04-.2,0-.24.06h-.04s-.05-.09-.08-.14c.04,0,.06.01.08.02.04.01.09.05.11,0,.02-.04-.04-.07-.07-.1-.06-.06-.14-.08-.18-.16.09,0,.14.09.21.13.14.07.24.2.41.22.34.04.66-.05.98-.12.06-.01.04-.06.03-.09-.04-.16-.12-.28-.22-.4,0,0,.02-.02.03-.03.07.01.08-.07.13-.08.01.04.01.08.05.1-.02.04-.11.03-.07.1.04.06.08,0,.12-.02.08-.03.13-.11.22-.1v.02s0,.05.03.07c-.05.03-.09.07-.15.05-.01,0-.02-.01-.03-.02h0s.02.01.04.01c-.01.04-.05.04-.08.06-.02.02-.07.01-.06.07s.06.03.09.04c0,0,.01,0,.02.01h-.01s.05-.03.08-.04c0,.05,0,.11.07.11-.03,0-.07.01-.1.03s-.09,0-.08.06c.01.07.07.04.1.03.07,0,.14-.02.21-.04v.04h-.04s-.05,0-.04.03c0,.03.04.02.06.02.01,0,.02,0,.04.01l-.03.04h0ZM116.73,17.73s-.02-.01-.02,0v.02s.02.01.02,0v-.02Z"/>
              <path class="cls-16" d="M116.96,17.46s-.03-.04-.03-.07h.09c.12-.05.24-.1.36-.16-.04-.05-.08-.06-.12-.03-.08.06-.17.11-.26.17h-.05v-.04c.07-.05.15-.09.22-.14.02-.02.08-.02.05-.07-.02-.03-.06-.07-.11-.03-.04.03-.09.06-.13.08-.02,0-.04.04-.06,0,.03-.05.09-.07.14-.11.05-.03.03-.06,0-.09,0,0,.02-.02.03-.03.15.15.34.24.52.34.12.07.23.15.32.26.13.17.14.39,0,.55,0-.01-.01-.02-.02-.03.07-.1.09-.21.06-.33-.03-.15-.14-.22-.24-.31-.05-.04-.1-.05-.16-.03-.1.05-.21.08-.31.12v-.04c.1-.05.2-.09.31-.14-.07-.08-.14-.08-.21-.04-.13.06-.26.11-.39.16h0Z"/>
              <path class="cls-24" d="M116.38,18.78c.22-.03.32.02.4.23.11.27.27.5.54.58.03,0,.07.02.05.07-.05.11-.02.22,0,.33.02.16-.02.21-.16.18-.22-.05-.41-.02-.57.17h-.04s.03-.05.04-.07c.16-.19.37-.19.57-.15.09.02.1-.01.1-.1,0-.11-.05-.23,0-.34.02-.05-.03-.05-.06-.05-.24-.09-.4-.28-.49-.53-.07-.21-.19-.29-.38-.27v-.04h0Z"/>
              <path class="cls-25" d="M116.94,18.91c.08.32.32.47.56.62-.32-.02-.54-.26-.56-.62Z"/>
              <path class="cls-16" d="M117.92,18.09c-.15.13-.31.13-.48.07-.1-.03-.2-.08-.3-.15v-.04c.07.03.15.07.22.1.18.08.36.09.53-.02,0,.01.01.02.02.03h.01Z"/>
              <path class="cls-17" d="M115.53,18.07h.07c.06.15.04.17-.12.17h-.11v-.05s.07-.01.1,0c.11.01.11-.03.05-.11h0Z"/>
              <path class="cls-6" d="M116.82,18.76c-.07-.06-.14-.08-.23-.08.11-.1.18-.08.23.08Z"/>
              <path class="cls-16" d="M117.07,16.67c-.03-.1-.02-.19.03-.28,0,.01.02.02.03.03,0,.03-.03.08.03.06.03.07-.09.1-.05.18h-.04,0Z"/>
              <path class="cls-24" d="M117.64,17.18h.07s.08.04.12.06c0,.02-.02.03-.03.05-.05-.04-.11-.07-.16-.11Z"/>
              <path class="cls-25" d="M117.15,17.98v.04s-.07-.03-.11-.05c0-.01.02-.02.03-.04.03.01.06.03.09.04h0Z"/>
              <path class="cls-24" d="M117.07,16.67h.04s0,.03.01.05v.07s-.05-.07-.05-.12Z"/>
              <path class="cls-24" d="M118.39,16.05s.07-.04.1,0h-.1Z"/>
              <path class="cls-24" d="M118.08,16.08s.05-.03.07,0h-.07Z"/>
              <path class="cls-24" d="M118.11,16.7s-.05.03-.07,0h.07Z"/>
              <path class="cls-6" d="M116.38,18.78v.04s-.02.01-.03.02c0,0-.02-.02-.03-.03.01-.02.03-.03.05-.04h0Z"/>
              <path class="cls-24" d="M118.1,16.22s-.05,0-.06-.02c.02,0,.05,0,.06.02Z"/>
              <path class="cls-6" d="M115.11,19.21s-.02-.02-.03-.04c.02-.02.04,0,.05.01,0,0-.01.02-.02.02h0Z"/>
              <path class="cls-6" d="M114.97,19.27s-.02,0-.02-.02h0s0,.01.01.02h0Z"/>
              <path class="cls-16" d="M117.1,16.4l.03-.05.03.03s-.02.03-.03.05c0-.01-.02-.02-.03-.03Z"/>
              <path class="cls-24" d="M117.35,16.22s-.02.01-.02,0h.02Z"/>
              <path class="cls-16" d="M117.16,16.32s.02-.02.03-.03c0,.01.02.02.03.03,0,0-.02.02-.03.02,0,0-.02-.02-.03-.03h0Z"/>
              <path class="cls-16" d="M117.13,16.35s.02-.02.02-.03c0,0,.02.02.03.03,0,0-.02.02-.02.03,0,0-.02-.02-.03-.03Z"/>
              <path class="cls-24" d="M118.24,16.44s0-.03.01-.04c0,.01,0,.03-.01.04Z"/>
              <path class="cls-6" d="M114.97,19.27s.01.01.02.02h0s0-.02-.01-.03h0Z"/>
              <path class="cls-11" d="M115.02,17.65c.03.09.12.11.18.16.03.03.09.06.07.1-.02.05-.07.01-.11,0-.02,0-.05-.01-.08-.02.03.06.05.1.08.15.01.08-.01.1-.08.07-.06-.03-.09-.09-.13-.13-.02-.03-.05-.06-.07-.09-.02-.04-.04-.07-.07-.09h-.02v.02s.03.07.06.1c.02.03.04.06.07.1.03.07.07.15.04.24-.12,0-.14-.12-.22-.2.01.05.02.08.02.11,0,.06.03.14-.02.16-.05.02-.1-.05-.13-.11-.04-.08-.04-.17-.09-.24h0c-.02.11.06.21.02.33,0,.03-.01.06-.04.07-.03,0-.04-.02-.06-.04-.03-.04-.03-.11-.09-.13,0,.05-.01.09-.02.12,0,.04-.02.08-.06.08-.03,0-.04-.04-.06-.07-.03-.07-.02-.14-.04-.22-.04.07-.02.15-.06.2-.02.03-.04.07-.08.06-.03,0-.04-.05-.05-.08-.03-.08,0-.17,0-.27-.06.05-.04.12-.07.17-.02.04-.05.07-.09.07-.05,0-.04-.06-.05-.1-.02-.09.04-.16.03-.25h0s-.03.06-.05.09c-.04.07-.07.19-.15.16-.07-.03,0-.14,0-.21.02-.04.04-.08.05-.11.02-.03.05-.06.03-.11-.02.03-.04.06-.05.09-.02.03-.04.07-.06.1-.02.02-.03.04-.05.06-.03.04-.07.09-.11.07-.06-.02-.01-.09-.02-.13.02-.03.05-.06.04-.11h-.04s-.09.09-.13.04c-.03-.04.03-.1.07-.14.05-.06.11-.1.15-.17v-.04c-.11-.01-.11-.09-.01-.24.15-.22-.07,0-.11-.04.07-.18.08-.4.25-.53.02-.01.03-.04.02-.06-.05-.1,0-.18.02-.27.02-.15.09-.11.16-.06.05.04.09.1.13.15.04-.05-.02-.13.05-.16,0,0,.02.01.03.02.01.04.03.08.07.11.02-.05.03-.1.05-.15.02-.03.05-.03.07,0,.01.05.03.1.04.15.05-.03.07-.08.09-.12.01-.02.03-.01.05,0,0,.05,0,.1.01.17.05-.06.09-.11.14-.16.02,0,.03-.02.05-.03.11-.06.1.05.13.1.02.08.05.16.02.24,0,.02-.01.05,0,.06.12.09.14.24.2.37.01.05.03.1.04.15-.11,0-.14.02-.05.12.1.11.08.16-.04.22.02.04.04.08.09.08h0l.04.02ZM114.53,17.73s.02.01.02.02c.01.01.02.02.03.03.02-.02,0-.04-.01-.05,0,0-.02-.02-.02-.03,0,0-.02-.02-.02-.03-.02-.04-.07-.09.01-.1.11-.02.14-.1.17-.2s.03-.2-.03-.28v-.05c.09-.06.09-.13.02-.24,0,.09,0,.16-.05.21h0s-.07,0-.08.02c-.01.03.03.04.05.06.1.22-.03.44-.26.45-.05,0-.12.01-.14-.06-.01-.07.06-.09.1-.1.11-.03.08-.1.04-.15-.08-.09-.09-.19-.05-.29.05-.11.15-.07.25-.07-.11-.08-.2-.08-.28,0-.06.07-.07.25-.02.34.02.03.09.06.05.09-.05.04-.1.11-.18.06-.03-.02-.07-.05-.11-.08.11-.07.12-.18.1-.3-.04-.18-.18-.24-.3-.12.06,0,.13-.04.18.05-.05.03-.09-.02-.12.03-.01.02,0,.05.02.06.04.04.09.06.13,0,0,0,.02-.01.03-.02,0,.08,0,.15-.05.22-.06.08-.09.15.04.18.03,0,.1.03.08.1-.02.06-.07.06-.12.05-.12,0-.22-.06-.28-.17-.07-.13-.04-.25.08-.35-.04,0-.06,0-.08-.01-.07-.04-.06-.12-.08-.2-.06.1-.05.17.03.21-.08.18.02.37,0,.57.08-.18.15.06.23,0,.03.08.03.16,0,.24q.08-.04.15.03s.03.02.05,0c.06-.07.07-.02.09.04.01.04,0,.09.04.13v-.15c.01-.09.05-.09.12.02.02-.07,0-.14.03-.2.03-.07.06-.02.09,0,0,0,.02.02.03.02l.02.02ZM113.72,16.68c.04-.1.1-.09.18-.08,0-.13-.07-.19-.16-.23,0,.1-.08.19-.01.31h0ZM114.7,16.66c.04-.08.01-.14,0-.21-.01-.03,0-.09-.05-.07-.06.03-.12.08-.13.17,0,.07.05.03.07.03.05,0,.07.05.11.07h0ZM114.49,16.98s-.03-.04-.05-.04c-.05,0-.08.01-.1.06-.01.05.03.05.05.05.04,0,.08-.02.1-.07ZM113.86,17.62c-.05.04-.08.09-.07.18.04-.06.07-.11.07-.18ZM114.74,18.04v-.02s-.02,0-.03.01c0,0,.01.01.02.02h.02,0Z"/>
              <path class="cls-11" d="M113.03,16.57s-.01.02-.02.03c0,.02-.02.04-.03.06,0,.02-.02.04-.03.05,0,.02-.02.04-.02.06-.02.05-.03.09-.05.14-.08.25-.09.51-.1.77,0,.04.03.11-.05.1-.06,0-.07-.05-.07-.11,0-.3.05-.59.13-.88.07-.16.14-.32.22-.47-.12.12-.2.26-.25.43-.11.27-.14.55-.15.84v.13c0,.06-.06.06-.1.06-.05,0-.04-.03-.04-.06,0-.61.1-1.18.53-1.62.37-.38.81-.5,1.3-.41.03,0,.05.02.09.04-.09.02-.17.04-.24.06-.01.01-.02.02-.03.04-.43.03-.77.24-1.02.63-.01.02-.03.03-.04.05,0,.02-.02.03-.03.05h0ZM113.29,16.02s-.07.02-.04.06c.02.03.05-.02.07-.03,0-.01.02-.03.03-.04-.02-.02-.04,0-.05.01h0ZM113.02,16.32c.07-.07.14-.15.21-.22-.11.03-.17.11-.21.22Z"/>
              <path class="cls-11" d="M114.69,18.44c-.04.07,0,.15-.02.22-.01.04-.02.1-.06.12-.04.01-.07-.03-.09-.07-.03-.05-.06-.1-.1-.17,0,.09,0,.16-.01.22,0,.04-.01.1-.06.11-.04,0-.06-.05-.07-.09-.03-.07-.04-.14-.07-.22-.04.09-.04.18-.09.26-.04.06-.07.07-.1-.01s-.01-.16-.03-.26c-.04.06-.06.12-.1.17-.06.07-.1.07-.14-.02v-.28c-.06.08-.07.16-.12.21-.02.02-.05.05-.08.03-.02-.01-.03-.05-.03-.07,0-.08,0-.15.02-.22h-.02c-.05.04-.08.15-.14.12-.07-.04,0-.13,0-.2,0-.03.04-.06,0-.08h0s.03-.03.05-.04c.07-.05.14-.12.16.05,0,.06.04.05.07.03.03-.02.07-.04.1-.05.03.08.03.22.17.11.06-.04.06.03.07.06.04.08.08.13.15.04.05-.07.08-.03.11.02.04.08.09.07.12,0,.04-.07.06-.07.11-.01.04.05.08.06.11-.01.04-.13.09-.05.14-.01v.05h-.05Z"/>
              <path class="cls-6" d="M114.69,18.4s-.1-.12-.14.01c-.02.07-.07.06-.11.01-.05-.06-.07-.05-.11.01-.04.07-.08.08-.12,0-.03-.05-.06-.09-.11-.02-.07.08-.11.04-.15-.04-.01-.03-.01-.11-.07-.06-.14.11-.14-.03-.17-.11-.03.02-.07.03-.1.05-.04.02-.07.02-.07-.03-.01-.17-.08-.11-.16-.05h-.04v-.06s.01-.02.02-.03c0-.05-.02-.1.03-.14,0,.04-.04.11.02.13.05.02.08-.03.11-.07.02-.02.03-.04.05-.06,0,.01.02.02.03.03,0,.07-.07.18,0,.21.08.03.11-.09.15-.16.02-.03.03-.06.05-.09h0c.02.09-.05.16-.03.25,0,.04,0,.1.05.1.04,0,.07-.03.09-.07.03-.05.01-.12.07-.17,0,.09-.02.18,0,.27.01.03.02.07.05.08.04,0,.06-.03.08-.06.04-.06.03-.13.06-.2.02.08,0,.16.04.22.01.03.03.07.06.07.04,0,.05-.05.06-.08,0-.04.01-.08.02-.12.06.02.06.09.09.13.02.02.03.05.06.04.03,0,.03-.04.04-.07.04-.11-.04-.22-.02-.33h0c.05.07.05.16.09.24.03.06.07.13.13.11.05-.02.03-.11.02-.16,0-.03-.01-.06-.02-.11.08.07.11.2.22.2.03-.09-.01-.16-.04-.24,0-.01.02-.02.03-.03.04.04.07.1.13.13.07.03.09,0,.08-.07h.04c.02.08.04.17-.08.14-.08-.02-.09,0-.09.08,0,.06-.04.08-.09.05-.07-.04-.12-.06-.14.06,0,.06-.05.05-.09.03l-.02-.02Z"/>
              <path class="cls-23" d="M112.63,17.81c.15.05.31.08.47.07.03,0,.06.02.06.06s-.04.05-.06.05c-.24-.03-.47.15-.71.01-.06-.03-.15,0-.22-.01-.03,0-.07-.02-.07-.05,0-.04.04-.06.07-.06.16,0,.32-.01.47-.07h-.01Z"/>
              <path class="cls-5" d="M113.36,18.1v.06s-.03.03,0,.05h0c-.03.06-.07.1-.14.07-.1-.05-.21-.08-.32-.12-.03,0-.05-.02-.04-.06,0-.03.03-.05.06-.04.16.02.3-.03.44-.14,0,.07,0,.11.01.16v.03h-.01Z"/>
              <path class="cls-22" d="M113.71,18.74s.03.11.1.11c0,.03,0,.06-.02.09h-.01s-.04.16-.12.16c-.04,0-.04-.06-.05-.1-.02-.11-.06-.22.02-.32.06-.07.05.03.08.05h0Z"/>
              <path class="cls-22" d="M112.62,18.54h-.08s-.1-.01-.1-.07c0-.07.06-.03.1-.04.07-.01.13-.02.2-.03.03,0,.06,0,.07.03.01.05-.02.07-.05.08-.05.02-.11.03-.14.03Z"/>
              <path class="cls-22" d="M112.59,18.69h-.08s-.07-.02-.07-.07c0-.06.05-.04.08-.03.08.02.15,0,.23-.02.02,0,.05-.02.07.01.01.04-.02.06-.04.07-.05.03-.11.03-.18.03h-.01Z"/>
              <path class="cls-22" d="M112.43,18.74c.12,0,.22.02.32-.01.02,0,.04,0,.05.02,0,.01-.01.03-.02.04-.07.07-.25.05-.34-.05h-.01Z"/>
              <path class="cls-17" d="M112.77,16.75c.05-.16.13-.31.25-.43-.08.15-.15.31-.22.47-.01-.01-.02-.03-.03-.04Z"/>
              <path class="cls-24" d="M113.36,18.1v-.03h.02s-.01.02-.02.03Z"/>
              <path class="cls-2" d="M113.91,20.48c.08-.05.12-.15.19-.22.04-.05.06-.13.14-.12.03.06.05.08.09,0,.02-.04,0-.15.09-.09,0,0,.01,0,.02-.02.06-.14.17-.24.25-.36.04-.07.15-.18.23-.2.22-.04.44-.06.65-.13.08-.03.07.09.14.09h0s0,.04.03.03h0s0,.03.03.03h0s0,.03.03.03h0s.02.05.05.03h0s.02.05.05.03h0c0,.07.11.02.11.11v.03c-.03.07-.02.13,0,.2v.22h-.08s-.06-.02-.1-.02c-.08-.02-.15-.02-.23,0-.03,0-.05,0-.07.02-.01,0-.04,0-.04.03h0s-.04,0-.05.03h0s-.04,0-.03.03h0s-.04,0-.03.03h0s-.04,0-.03.03h0s-.04,0-.03.03h0s-.04,0-.02.03h0s-.02,0-.02.02c-.02.02-.03.04-.02.07,0,.04,0,.08-.06.08h-1.26s-.01,0-.02-.01v-.03Z"/>
              <path class="cls-23" d="M115.98,20.12h0c.09.02.05-.06.06-.09,0-.11-.04-.21-.02-.32h0c.03-.11,0-.14-.15-.13h0s-.02-.05-.05-.03h0s0-.03-.01-.04c-.02-.01-.03,0-.04.01h0s.02-.02,0-.03c-.01-.01-.02,0-.03,0h0s.02-.02,0-.03h-.03v-.03h-.03s.02-.01.02-.02c0-.04-.09-.07-.02-.12.07-.05.07.05.11.07,0,0,.01,0,.02.01,0,0,.02,0,.03.01v-.03s-.01-.06-.02-.09h.01s.04.02.07.03c0,0,.02,0,.02.01,0,0,0-.02-.01-.03.01-.02-.07-.11.04-.07,0,0,.02.02.03,0,.01-.14.14-.14.2-.22.05-.07.09-.06.11.04,0,.02,0,.08.05.05h0s-.02.06.03.06h0v.03s.02,0,.02,0h0s-.02.02,0,.03c.01.02.02,0,.03,0h0s-.02.02,0,.03c.01.02.02,0,.03,0h0s-.02.02,0,.03h.03s0,.03.03.03h0s.02.05.05.03h0c.02.06,0,.14.08.17h0v.05c-.03.07.09.21-.08.22-.02,0-.01.03,0,.05.08.11.02.12-.07.11.01.07.08.11.07.18-.08,0-.2.19-.22.35h0c-.19.1-.41-.02-.59.1-.02.01-.04,0-.06.01-.07.01-.14.02-.18-.05s.05-.11.07-.17c-.08-.02-.1.04-.13.1-.02.04,0,.1-.07.08-.06-.02-.07-.06-.06-.12,0-.02.03-.05,0-.07h.02v-.04h0s.03,0,.03-.03h0s.04,0,.03-.03h.03v-.02h.03s0-.02,0-.03h0s.02.03.04.01c.02-.01.02-.02.01-.04h0c.16-.02.33-.01.49.02t.02-.06l-.04.02ZM116.24,19.38h.02c-.03.06.02.09.06.1.05.02.11.03.18-.05-.11.01-.18-.01-.24-.05h-.02ZM116.18,20.23c.14-.14.17-.25.11-.38-.05.12-.09.23-.11.38ZM116.43,19.65c-.08,0-.15-.03-.23-.07.06.14.12.15.23.07Z"/>
              <path class="cls-5" d="M116.61,20.33s-.01,0,0,.01c-.04.04,0,.13-.04.14-.07.02-.15,0-.22,0,0,0,0-.03-.01-.05h0c.07-.03.09-.11.11-.17.03-.09.07-.14.15-.08.03-.07-.04-.15,0-.18.1-.06.02-.18.09-.24,0-.09.02-.18-.02-.26,0-.02,0-.04-.02-.02h0c0-.07.01-.15-.08-.17h0s-.02-.05-.05-.03h0s0-.04-.03-.03h0s0-.03-.03-.03h0s0-.03-.03-.03h0s0-.03-.03-.03h0s0-.04-.02-.03h0s0-.05-.03-.06h0c0-.08-.08-.17.01-.25,0,0,.02-.01.03-.02.19-.02.31.06.38.27.09.25.25.44.49.53.02,0,.07,0,.06.05-.04.12,0,.23,0,.34,0,.09-.01.11-.1.1-.21-.05-.41-.05-.57.15-.02.02-.03.05-.04.07v.02Z"/>
              <path class="cls-13" d="M116.44,17.39c.1.12.18.24.22.4,0,.04.03.08-.03.09-.32.08-.65.17-.98.12-.17-.02-.27-.15-.41-.22-.07-.04-.12-.14-.21-.13h0c.09-.1.1-.26.22-.34s.25-.14.39-.18c.04,0,.08-.01.12-.02h.13s.06.01.1.02c.02,0,.04,0,.06.01.01,0,.03.01.04.02.04.01.07.03.11.04.02.01.04.02.06.03.06.05.13.1.19.15h0Z"/>
              <path class="cls-11" d="M115.75,16.92v-1.15q0-.16.15-.12v.36c0,.35-.02.71-.03,1.06h-.1v-.13l-.02-.02Z"/>
              <path class="cls-11" d="M116.11,17.12c.16-.41.32-.83.48-1.24.02-.05.04-.08.1-.05.07.03.04.07.02.12-.17.4-.34.8-.51,1.2-.04.01-.07,0-.1-.02h.01Z"/>
              <path class="cls-22" d="M115.98,17.09c-.06,0-.03-.07-.05-.1.02,0,.02-.02.02-.04.05-.22.09-.43.14-.65.01-.05,0-.12.09-.09s.05.08.04.13c-.01.06-.02.12-.03.18-.02.02-.02.05-.02.07-.02.09-.05.19-.07.28v.07s-.02.05-.03.07c0,.03-.02.05-.02.08h-.07Z"/>
              <path class="cls-22" d="M116.64,16.63s.01-.02.02-.03c0-.01.01-.02.02-.04.01-.02.02-.03.03-.05.04-.08.08-.02.12,0v.05s-.08.06-.07.13h0s-.06,0-.03.05h0c-.07,0-.09.04-.07.11h0c-.06-.03-.06.04-.08.07-.02.03-.04.06-.06.08,0,.01-.02.02-.02.04-.02.03-.04.05-.05.08-.05.03-.07.18-.16.06.12-.19.23-.37.35-.56h0Z"/>
              <path class="cls-25" d="M116.29,17.19c.1.12.11-.03.16-.06h.01s0,.05.03.07c0,0,0,.01.01.02-.03.04-.1.07-.03.14,0,0-.02.02-.03.03-.06-.05-.13-.1-.19-.15.01-.01.03-.03.04-.04h0Z"/>
              <path class="cls-25" d="M115.76,17.06h.1s.03.03.03.06h-.13v-.06Z"/>
              <path class="cls-25" d="M116.11,17.12s.06.04.1.02c0,.02-.02.04-.02.06-.04-.01-.07-.03-.11-.04.01-.01.02-.03.03-.04Z"/>
              <path class="cls-25" d="M115.98,17.09h.05v.06s-.04,0-.06-.01v-.04h0Z"/>
              <path class="cls-7" d="M115.93,16.82s0,.02-.01.03c0-.01-.01-.02,0-.03,0,0,0-.02.01-.03v.03Z"/>
              <path class="cls-25" d="M116.06,17.01s0-.06.03-.07c0,.03,0,.06-.03.07Z"/>
              <path class="cls-7" d="M116.39,16.93s-.02.01-.03.01c0,0-.02-.01,0-.03,0,0,.02,0,.03-.01v.02h0Z"/>
              <path class="cls-25" d="M116.16,16.59s0-.05.02-.07c0,.03,0,.05-.02.07Z"/>
              <path class="cls-7" d="M116.19,16.69s.02,0,.02.01,0,.03-.01.03c0,0-.01,0-.02-.01,0,0,0-.02.01-.03Z"/>
              <path class="cls-25" d="M115.95,16.95s0,.04-.02.04c0-.01.01-.03.02-.04Z"/>
              <path class="cls-22" d="M115.24,16.45s0,.03.01.04c.02.05.04.09.05.14.01.03.02.05.03.08,0,.02.01.04.02.06h0s.01.03.02.05h0s.02.05.03.08c0,.02.02.04.02.06s.01.04.02.06c0,.04.05.09,0,.12-.07.03-.07-.04-.09-.08-.01-.02-.03-.05-.04-.07-.15-.35-.29-.69-.44-1.04-.02-.04-.06-.08,0-.12s.09-.04.12.04c.07.19.15.38.23.57h.02Z"/>
              <path class="cls-25" d="M115.33,16.99s.02.05.04.07c.02.04.02.11.09.08.06-.03.01-.08,0-.12h.01s.05.01.05-.04h.01s0,.12.09.12v.04c-.14.04-.26.1-.39.18-.12.08-.14.24-.22.34-.05,0-.07-.04-.09-.08.12-.06.14-.11.04-.22-.08-.1-.06-.12.05-.12-.02-.06-.03-.1-.04-.15h.01c.05.06.08.03.08-.04.03.05.06.09.1.14.03.03.04.11.1.06.05-.04-.02-.08-.02-.12.05-.02.06-.06.06-.11l.03-.03Z"/>
              <path class="cls-22" d="M115.27,17.1s.07.07.02.12c-.06.05-.08-.02-.1-.06-.04-.04-.07-.09-.1-.14h0s-.02-.02-.03-.03h0s0-.03-.03-.03h0c-.05-.1-.11-.19-.17-.27-.05-.07-.03-.16.02-.2.01.02.02.03.03.05.1.18.21.36.33.52,0,.01.02.02.03.03h0Z"/>
              <path class="cls-7" d="M115.25,16.94s.03.05,0,.08c0-.02-.02-.04-.03-.06,0,0,.01-.01.02-.02h.01Z"/>
              <path class="cls-7" d="M115.23,16.96s-.03-.03,0-.05c.02,0,.02.01.03.03,0,0-.01.01-.02.02h-.01Z"/>
              <path class="cls-25" d="M115.27,17.1s-.02-.02-.03-.03c0,.01.02.02.03.03Z"/>
              <path class="cls-22" d="M116.47,17.36c-.07-.07,0-.1.03-.14.04-.04.08-.08.12-.13.03-.03.07-.04.07-.09h0s.03,0,.03-.03h0s.03,0,.03-.03h0s.04,0,.03-.03h0c.06.03.07-.04.1-.06.03-.01.04-.08.08-.05.03.02.04.07.02.11-.01.02-.01.03,0,.04h0s-.01-.02-.03,0,0,.02,0,.03h0s-.05,0-.05.03h0s-.04,0-.03.03h0c-.07.02-.12.05-.13.14h0s-.01-.02-.03,0,0,.02,0,.03h0s-.04,0-.05,0c0,.01-.02.03-.03.04h0s-.02.01-.03.02h0c-.05.01-.07.09-.13.08h0Z"/>
              <path class="cls-5" d="M116.85,16.63s.05-.06.05-.04c.02.05.04.11,0,.16-.04.06-.11.09-.14.17h0s-.04,0-.03.03h0s-.04,0-.03.03h0s-.04,0-.03.03h0s-.07.04-.1-.02c.04-.03.07-.06.08-.11h0s.07-.06.07-.11h0s.05-.02.03-.05h0c.06.01.05-.05.08-.08h.02Z"/>
              <path class="cls-5" d="M117.05,16.97s.05.06,0,.09-.1.05-.14.11h0c-.05,0-.1.03-.12.09h0s-.1.05-.07-.05h0s.03,0,.03-.03h0c.06-.03.11-.06.13-.14h0s.04,0,.03-.03h0s.04,0,.05-.03h0s.03,0,.03-.03h0s.06-.02.08.01h-.02Z"/>
              <path class="cls-24" d="M116.85,16.63s-.02.09-.08.08c-.01-.07.04-.09.07-.13v.05h.01Z"/>
              <path class="cls-24" d="M115.75,16.39v.3c-.03-.1-.03-.2,0-.3Z"/>
              <path class="cls-14" d="M115.08,17.03c0,.07-.03.1-.08.03,0-.04,0-.07.03-.1h0s0,.03.03.03h0s.02.02.03.03h0Z"/>
              <path class="cls-22" d="M117.13,16.72s0-.03-.01-.05c-.04-.08.08-.1.05-.18h0s.04,0,.03-.03h0s.04,0,.03-.03h0s.04,0,.03-.03h.03v-.02h.03v-.03h0s.11-.08.15.02c.02.04.01.06,0,.08,0,0-.02.02-.03.02,0,0-.02.02-.03.03,0,0-.02.02-.03.03,0,0-.02.02-.02.03-.03.03-.06.06-.1.09,0,0-.02.02-.03.03,0,0-.02.02-.03.02-.02.01-.04.02-.06.01h-.01Z"/>
              <path class="cls-5" d="M117.16,16.38s.02-.02.02-.03c0,0,.02-.02.03-.02.03-.02.06-.03.11-.06-.02.04-.03.07-.04.09h0s-.03,0-.03.03h0s-.04,0-.03.03h0s-.04,0-.03.03h0s-.04,0-.03.03h0s-.04,0-.03.03h0c-.07.01-.04-.03-.03-.06.01-.02.02-.03.03-.05l.03-.02Z"/>
              <path class="cls-11" d="M115.63,17.09c-.08,0-.06-.08-.09-.13,0-.04-.02-.07-.03-.11,0-.04,0-.08-.03-.11h0s0-.07-.03-.09h0s-.02-.07-.03-.11c0-.03-.02-.07-.02-.1.01-.08-.08-.15,0-.24.06-.02.1-.01.11.07.02.13.06.26.09.4,0,.02,0,.05.01.07,0,.02.01.03.02.05v.07s.01.03.02.05c-.02.06.05.13-.02.18Z"/>
              <path class="cls-22" d="M117.83,17.23s-.08-.04-.12-.06v-.04s.05-.02.07-.03c.04-.02.09-.04.11.03.03.08-.03.08-.07.1h.01Z"/>
              <path class="cls-24" d="M115.65,16.91s-.01-.03-.02-.05c0,.02.01.03.02.05Z"/>
              <path class="cls-24" d="M115.62,16.8s-.01-.03-.02-.05c0,.02.01.03.02.05Z"/>
              <path class="cls-25" d="M115.48,16.75s.02.07.03.11h-.01s-.06.01-.07.04h0s-.02-.04-.03-.07c.04-.01.1.01.09-.07h0Z"/>
              <path class="cls-25" d="M115.39,16.82s-.01-.03-.02-.05h.04s-.01.03-.02.04h0Z"/>
              <path class="cls-25" d="M115.46,16.66s.02.06.03.09c-.04-.02-.03-.05-.03-.09Z"/>
              <path class="cls-22" d="M114.89,18.74c.04-.06.05-.13.06-.2.03-.02.05,0,.07.02.08.04.13.03.14-.07,0-.03,0-.08.04-.08s.06.04.07.07c0,.01,0,.03.01.04.02.07.04.16,0,.21s-.1-.04-.15-.03c-.02.05,0,.11,0,.16,0,.03.01.08-.03.1s-.07-.02-.09-.06c-.02-.04-.05-.09-.07-.13-.02,0-.04-.02-.05-.03ZM115.11,18.66h0s0,0,0,0Z"/>
              <path class="cls-22" d="M114.69,18.4s.08.02.09-.03c.02-.12.07-.1.14-.06.05.03.08.01.09-.05,0-.07.01-.1.09-.08.12.03.11-.06.08-.14.05-.06.2-.09.24-.06.03.03.06.06.09.09.06.08.06.13-.05.11h-.1v-.03.03s-.02.02-.02.03c-.02.12-.08.15-.18.09-.15-.09-.02,0-.04-.01,0,.08.04.19-.03.23-.07.04-.12-.07-.19-.13v.16s.01.11-.04.12c-.04,0-.08-.03-.1-.07-.03-.05-.04-.1-.07-.15v-.05h0Z"/>
              <path class="cls-17" d="M115.36,18.18v-.03.03h-.01.01Z"/>
              <path class="cls-23" d="M115.82,19.28v-.02h.02-.01s0,.02,0,.02Z"/>
              <path class="cls-5" d="M117.15,17.98s-.06-.03-.09-.04c-.01,0-.02,0-.04-.01-.01-.01-.03-.03-.02-.05h.07s.08-.02.13-.03h.05s.07-.02.11-.03c.02,0,.03,0,.05-.01h.06s.07,0,.09-.03c.05,0,.04-.03.03-.06v-.05c0-.09-.03-.14-.11-.09-.02,0-.03,0-.05.01-.06.01-.12.03-.18.04-.02,0-.03,0-.05.01-.02,0-.04,0-.06.01-.02,0-.05,0-.07.02h-.08s-.05,0-.07-.01v-.02s.08,0,.1-.05h0s.06,0,.08-.03h0c.07.01.12-.03.17-.06.1-.04.21-.07.31-.12.06-.03.11-.02.16.03.1.09.21.16.24.31.03.12,0,.23-.06.33-.17.12-.35.11-.53.02-.07-.03-.15-.07-.22-.1h-.02Z"/>
              <path class="cls-22" d="M116.96,17.46c.13-.05.26-.1.39-.16.08-.04.14-.04.21.04-.11.05-.21.09-.31.14-.06.03-.14.01-.17.1h0s-.06-.02-.08.03h0c-.06-.03-.11.01-.16.04h0s-.05.02-.08.03h0s-.08.03-.09-.03c-.01-.06.04-.05.06-.07.03-.02.07-.02.08-.06h0c.06.01.1-.02.15-.05h0Z"/>
              <path class="cls-22" d="M117.04,17.83c-.07.01-.14.03-.21.04-.04,0-.09.03-.1-.03-.01-.06.05-.04.08-.06.03-.02.06-.02.1-.03h0s.08-.02.12-.03h0c.13-.03.27-.06.4-.09.04,0,.08-.04.1.03.02.07-.03.08-.07.1h0c-.14.02-.28.04-.41.08h-.01Z"/>
              <path class="cls-22" d="M116.91,17.17s.04.01.06,0c.04-.03.09-.05.13-.08.05-.03.09,0,.11.03.03.05-.03.05-.05.07-.07.05-.14.09-.22.14-.01,0-.04,0-.02.04h0c-.09-.02-.14.07-.22.1-.04.01-.08.08-.12.02-.04-.07.05-.07.07-.1h0s.04-.02.05-.03c.03-.02.09-.02.09-.09h0c.07.02.11-.01.12-.08h0v-.02Z"/>
              <path class="cls-16" d="M116.79,17.26c0,.07-.05.07-.09.09-.03,0-.07-.04-.05.03h0s-.03-.07-.05-.1h0s.02-.02.03-.03h0s.02-.03.03-.04c.02-.02.03-.05.05,0-.03.1.05.03.07.05h.01Z"/>
              <path class="cls-16" d="M116.9,17.65v.09h0c-.07,0-.07-.05-.07-.11h0s.04,0,.06.01h.01Z"/>
              <path class="cls-16" d="M117,17.88s0,.04.02.05c-.02,0-.05,0-.06-.02,0-.03.02-.03.04-.03Z"/>
              <path class="cls-16" d="M116.73,17.73v.02h-.02v-.02h.02Z"/>
              <path class="cls-5" d="M116.94,17.37h.05s.01.02.02.02h-.09v-.02h.01s.01,0,0,0Z"/>
              <path class="cls-16" d="M116.81,17.51h-.04s.02,0,.03.01h.01Z"/>
              <path class="cls-16" d="M117.07,17.87h-.03v-.04h0s.02.02.03.03h0Z"/>
              <path class="cls-12" d="M115.6,18.07h-.02s.01-.01.02-.02c0,0,0,.01,0,.02Z"/>
              <path class="cls-16" d="M116.76,17.67h.01s-.01.01-.02,0h0Z"/>
              <path class="cls-5" d="M116.99,17.36c.09-.05.17-.11.26-.17.05-.03.08-.02.12.03-.13.05-.24.11-.36.16,0,0-.01-.02-.02-.02Z"/>
              <path class="cls-25" d="M117.07,17.57c.03-.09.11-.06.17-.1v.04c-.06.03-.11.07-.17.06Z"/>
              <path class="cls-25" d="M116.94,17.37h-.02s0-.03.02-.04c0,.01,0,.02,0,.04Z"/>
              <path class="cls-25" d="M114.5,17.7s-.05-.06-.09,0c-.03.07-.01.14-.03.2-.07-.11-.11-.11-.12-.02v.15s-.03-.09-.04-.13c-.02-.06-.03-.11-.09-.04-.02.02-.03.02-.05,0q-.07-.07-.15-.03c.03-.09.03-.16,0-.24-.09.06-.15-.18-.23,0,0-.2-.09-.39,0-.57.02,0,.03,0,.05-.01.02,0,.04,0,.08.01-.12.1-.15.22-.08.35.06.12.16.17.28.17.05,0,.1,0,.12-.05.02-.07-.05-.09-.08-.1-.13-.04-.1-.1-.04-.18.05-.06.06-.14.05-.22h.05c.01.12,0,.22-.1.3.04.03.08.06.11.08.08.05.13-.02.18-.06.04-.03-.03-.06-.05-.09-.05-.09-.05-.27.02-.34.08-.08.17-.09.28,0-.1,0-.21-.04-.25.07-.04.1-.03.2.05.29.04.05.07.12-.04.15-.04.01-.11.03-.1.1s.08.07.14.06c.23-.01.36-.24.26-.45,0,0,.01-.01.02-.02h.02c.07.09.06.19.03.28s-.06.18-.17.2c-.09.01-.04.06-.01.1l-.02.03h0ZM114.19,17.78s.06,0,.08-.01c.05-.01.1-.04.1-.11s-.07-.03-.1-.05c-.06-.03-.11-.02-.17,0-.03.01-.09-.01-.09.05s.04.09.09.1c.03.01.07.01.09.02Z"/>
              <path class="cls-6" d="M114.13,17.01h-.05s-.02,0-.03.02c-.05.05-.09.03-.13,0-.01-.01-.03-.03-.02-.06.03-.05.08,0,.12-.03-.05-.09-.12-.04-.18-.05.12-.12.25-.06.3.12h-.01Z"/>
              <path class="cls-25" d="M113.72,16.68c-.07-.12.01-.2.01-.31.1.04.16.1.16.23-.07-.01-.14-.02-.18.08h0Z"/>
              <path class="cls-25" d="M114.7,16.66s-.06-.08-.11-.07c-.03,0-.07.04-.07-.03,0-.09.06-.14.13-.17.05-.02.04.04.05.07.02.06.04.13,0,.21h0Z"/>
              <path class="cls-25" d="M114.49,16.98s-.05.07-.1.07c-.03,0-.07,0-.05-.05.01-.05.05-.07.1-.06.02,0,.05,0,.05.04Z"/>
              <path class="cls-17" d="M114.65,17.02c.05-.05.05-.12.05-.21.08.11.08.18-.02.24,0,0-.02-.02-.03-.02h0Z"/>
              <path class="cls-17" d="M113.74,17.03s-.03,0-.05.01c-.08-.05-.09-.11-.03-.21.02.09,0,.17.08.2Z"/>
              <path class="cls-17" d="M113.86,17.62c0,.07-.03.12-.07.18-.01-.09.02-.14.07-.18Z"/>
              <path class="cls-17" d="M113.61,17.97s-.02-.02-.03-.03c.02-.03.04-.07.06-.1l.02.02s-.04.08-.05.11Z"/>
              <path class="cls-17" d="M114.85,17.92s-.05-.06-.06-.1h.01s.06.04.07.08c0,0-.02.02-.02.03h0Z"/>
              <path class="cls-17" d="M114.94,17.99s-.02.02-.03.03c-.02-.03-.04-.06-.07-.1,0,0,.02-.02.02-.03.02.03.05.06.07.09h.01Z"/>
              <path class="cls-17" d="M113.64,17.83s.03-.06.05-.09c.02.06-.01.08-.03.11,0,0-.02-.02-.02-.02Z"/>
              <path class="cls-25" d="M114.62,17.11s-.06-.03-.05-.06c0-.02.05-.02.08-.02v.07s-.01.01-.02.02h-.01Z"/>
              <path class="cls-6" d="M114.74,18.04s0,.02-.02,0c0,0-.01-.01-.02-.02.01,0,.02,0,.03-.01v.02h0Z"/>
              <path class="cls-17" d="M114.64,17.09v-.07h0s.02.02.03.02v.05h-.03Z"/>
              <path class="cls-25" d="M114.57,17.73s.03.03.01.05c-.01-.01-.02-.02-.03-.03,0,0,.01-.01.02-.02Z"/>
              <polygon class="cls-6" points="114.52 17.98 114.51 17.98 114.51 17.99 114.52 17.98"/>
              <path class="cls-25" d="M114.53,17.73s-.02-.02-.03-.02c0-.01.01-.02.02-.03,0,0,.02.02.02.03,0,0-.01.02-.02.03h.01Z"/>
              <path class="cls-25" d="M114.54,17.7s.02.02.02.03c0,0-.01.01-.02.02,0,0-.02-.01-.02-.02,0,0,.01-.02.02-.03Z"/>
              <path class="cls-17" d="M114.79,17.82v-.02h.02-.01s0,.02,0,.02Z"/>
              <path class="cls-17" d="M113.02,16.32c.04-.11.11-.19.21-.22-.07.07-.14.15-.21.22Z"/>
              <path class="cls-17" d="M113.32,16.04s-.05.06-.07.03c-.02-.03.02-.05.04-.06,0,0,.03.03.03.03Z"/>
              <path class="cls-17" d="M113.29,16.02s.03-.03.05-.01c0,.01-.02.03-.03.04,0,0-.02-.02-.03-.03h0Z"/>
              <path class="cls-14" d="M113.35,18.21v-.05h.04s0,.06-.05.04h.01Z"/>
              <path class="cls-6" d="M116.24,19.38c.07.04.14.07.24.05-.07.08-.13.07-.18.05-.04-.01-.09-.04-.06-.11h0Z"/>
              <path class="cls-6" d="M116.54,19.32c.09.02.07.1.08.17-.07-.03-.05-.11-.08-.17Z"/>
              <path class="cls-6" d="M116.34,19.1s.04.02.03.06c-.04,0-.05-.02-.03-.06Z"/>
              <path class="cls-6" d="M116.49,19.29s.05-.01.05.03c-.03.02-.05.01-.05-.03Z"/>
              <path class="cls-6" d="M116.37,19.16s.03,0,.02.03c0,0-.02.02-.02,0v-.03Z"/>
              <path class="cls-6" d="M116.39,19.19s.03,0,.03.03c0,0-.01.02-.03,0-.01-.02,0-.02,0-.03Z"/>
              <path class="cls-6" d="M116.42,19.21s.03,0,.03.03c0,0-.02.02-.03,0s0-.02,0-.03Z"/>
              <path class="cls-6" d="M116.44,19.24s.04,0,.03.03h-.03s0-.02,0-.03Z"/>
              <path class="cls-6" d="M116.47,19.27s.04,0,.03.03c-.02,0-.04.01-.03-.03Z"/>
              <path class="cls-6" d="M115.91,19.29s0,.02.01.03c0,0-.02,0-.02-.01h.01s0-.02,0-.02Z"/>
              <path class="cls-6" d="M116.24,19.38h-.02s.02,0,.02,0Z"/>
              <path class="cls-6" d="M115.84,19.37v.03s-.02,0-.03-.01c0,0,.01-.01.02-.02h.01Z"/>
              <path class="cls-25" d="M116.62,17.09s-.08.08-.12.13c0,0,0-.01-.01-.02,0-.02,0-.04-.03-.06h-.01s.04-.06.05-.09h.08s.02.02.03.03h.01Z"/>
              <path class="cls-16" d="M116.62,17.09s-.02-.02-.03-.03c-.01-.02-.03-.03-.05-.03h-.01s.04-.07.06-.09v.04c.02.06.07-.02.1.02,0,.06-.04.07-.07.09Z"/>
              <path class="cls-24" d="M116.74,16.76s-.03.09-.07.11c-.02-.07,0-.11.07-.11Z"/>
              <path class="cls-24" d="M116.59,16.98v-.04s.02-.1.08-.07c0,.06-.04.08-.08.11Z"/>
              <path class="cls-24" d="M116.77,16.7s0,.05-.03.05c-.04-.05,0-.05.03-.05Z"/>
              <path class="cls-16" d="M116.54,17.06h-.03s.02-.02.02-.04h.01v.04Z"/>
              <path class="cls-24" d="M116.46,17.15s.03.03.03.06c-.02-.01-.02-.03-.03-.06Z"/>
              <path class="cls-25" d="M115.51,16.86s.02.07.03.11h-.01s-.04.01-.05.04h-.01s-.01-.03-.02-.05h0s.05-.05.05-.09h.01Z"/>
              <path class="cls-25" d="M115.44,16.96s-.02-.04-.02-.06h0s.04.03.02.06h0Z"/>
              <path class="cls-14" d="M115.48,17.01s.03-.03.05-.03c0,.05-.02.04-.05.03Z"/>
              <path class="cls-25" d="M115.08,17.03s-.02-.02-.03-.03c0,.01.02.02.03.03Z"/>
              <path class="cls-25" d="M115.06,17s-.03-.01-.03-.03c.02,0,.02.01.03.03Z"/>
              <path class="cls-16" d="M116.87,17.04c-.02.08-.07.11-.13.14,0-.09.06-.12.13-.14Z"/>
              <path class="cls-16" d="M116.95,16.98s-.02.06-.05.03c0-.04,0-.07.05-.03Z"/>
              <path class="cls-16" d="M116.74,16.95s0-.04.03-.03c.01.03,0,.04-.03.03Z"/>
              <path class="cls-16" d="M116.74,17.18s0,.03-.03.03c0-.01-.02-.02,0-.03.02-.02.02,0,.03,0Z"/>
              <path class="cls-16" d="M116.9,17.01s0,.04-.03.03c0-.03,0-.04.03-.03Z"/>
              <path class="cls-25" d="M116.66,17.22s-.02.03-.03.04c0-.01.02-.03.03-.04Z"/>
              <path class="cls-25" d="M116.64,17.25s-.02.02-.03.03c0-.01.02-.02.03-.03Z"/>
              <path class="cls-16" d="M116.69,17s0-.04.03-.03c0,.03,0,.04-.03.03Z"/>
              <path class="cls-16" d="M116.97,16.95s0,.03-.03.03c0-.01-.02-.02,0-.03.02-.02.02,0,.03,0Z"/>
              <path class="cls-16" d="M116.71,16.97s0-.04.03-.03c0,.03,0,.04-.03.03Z"/>
              <path class="cls-16" d="M116.92,17.17c-.02.07-.06.11-.12.08.03-.05.07-.08.12-.08Z"/>
              <path class="cls-16" d="M117.27,16.39s0-.04.03-.03v.03h-.03Z"/>
              <path class="cls-16" d="M117.24,16.41s0-.04.03-.03v.02h-.03Z"/>
              <path class="cls-16" d="M117.22,16.44s0-.04.03-.03c.01.03,0,.04-.03.03Z"/>
              <path class="cls-16" d="M117.19,16.47s0-.04.03-.03c.01.03,0,.04-.03.03Z"/>
              <path class="cls-16" d="M117.17,16.5s0-.04.03-.03c.01.03,0,.04-.03.03Z"/>
              <path class="cls-14" d="M115.45,16.95s.02-.06-.02-.06c.02-.03.05-.03.07-.03,0,.04,0,.08-.05.08h0Z"/>
              <polygon class="cls-6" points="115.11 18.66 115.12 18.67 115.11 18.68 115.1 18.67 115.11 18.66"/>
              <path class="cls-25" d="M117.45,17.75s.09-.03.07-.1-.07-.04-.1-.03c-.13.03-.27.06-.4.09v-.04h.03s.05,0,.07-.02c.02,0,.04,0,.06-.01.02,0,.03,0,.05-.01.06-.01.12-.03.18-.04.02,0,.03,0,.05-.01.09-.05.11,0,.11.09v.05s.02.06-.03.06c-.03,0-.06-.01-.09-.02h0Z"/>
              <path class="cls-25" d="M117.07,17.87s-.02-.02-.03-.03c.13-.04.27-.06.41-.08v.04s-.04,0-.06.01c-.02,0-.03,0-.05.01-.04,0-.07.01-.11.02h-.05s-.08.02-.13.03h.02Z"/>
              <path class="cls-25" d="M116.9,17.65s-.04,0-.06-.01c.05-.03.1-.08.16-.04-.02.05-.06.04-.1.05Z"/>
              <path class="cls-25" d="M116.9,17.74v-.07s.05,0,.07.01c.02,0,.03.02.05.03-.04,0-.08.02-.12.03Z"/>
              <path class="cls-25" d="M117,17.6s.04-.07.08-.03c-.02.03-.04.05-.08.03Z"/>
              <path class="cls-16" d="M117.45,17.79v-.04h0s.06.01.09.02c-.03.03-.06.02-.09.02Z"/>
              <path class="cls-16" d="M117.12,17.65s-.04.03-.07.02c.02-.02.04-.02.07-.02Z"/>
              <path class="cls-16" d="M117.02,17.72s-.03-.02-.05-.03h.05v.04h0Z"/>
              <path class="cls-16" d="M117.45,17.57s-.03,0-.05.01c.02,0,.03,0,.05-.01Z"/>
              <path class="cls-16" d="M117.22,17.62s-.03,0-.05.01c.02,0,.03,0,.05-.01Z"/>
              <path class="cls-16" d="M117.35,17.81s.03,0,.05-.01c-.01,0-.03,0-.05.01Z"/>
              <path class="cls-25" d="M116.65,17.38c-.01-.07.02-.04.05-.03-.02.01-.03.02-.05.03Z"/>
              <path class="cls-22" d="M114.19,17.78s-.06,0-.09-.02c-.05-.02-.09-.04-.09-.1s.06-.04.09-.05c.05-.02.11-.04.17,0,.03.02.1-.01.1.05s-.05.09-.1.11c-.02,0-.05,0-.08.01Z"/>
              <path class="cls-24" d="M116.54,17.06v-.03s.04,0,.05.03h-.05Z"/>
              <path class="cls-7" d="M118.31,16.61s-.01-.02-.03-.02h.01v.02h.02Z"/>
            </g>
          </g>
        </g>
        <polygon class="cls-19" points="67.36 8.16 67.36 21.35 87.82 21.35 87.82 27.94 67.36 27.94 67.36 47.72 63.27 47.72 63.27 1.57 91.91 1.57 91.91 8.16 67.36 8.16"/>
        <polygon class="cls-19" points="67.36 65.41 67.36 76.72 87.82 76.72 87.82 82.37 67.36 82.37 67.36 99.32 63.27 99.32 63.27 59.76 91.91 59.76 91.91 65.41 67.36 65.41"/>
        <path class="cls-19" d="M128.33,8.1c-.76-1.98-1.75-3.56-2.96-4.75-1.22-1.19-2.56-1.78-4.03-1.78h-12.28c-1.53,0-2.91.61-4.15,1.85-1.24,1.23-2.23,2.85-2.95,4.84s-1.08,4.17-1.08,6.49v32.97h4.09v-13.19h20.46v13.19h4.09V14.75c-.03-2.46-.43-4.68-1.19-6.65h0ZM125.43,27.94h-20.46v-13.24c0-1.78.41-3.3,1.21-4.59.8-1.3,1.77-1.94,2.89-1.94h12.28c1.12,0,2.08.64,2.88,1.94.8,1.29,1.21,2.81,1.21,4.59v13.24h-.01Z"/>
        <path class="cls-19" d="M128.33,65.35c-.08-.19-.17-.37-.27-.55-.08-.17-.16-.33-.26-.49-.67-1.22-1.48-2.22-2.44-3.03-1.22-1.02-2.56-1.53-4.03-1.53h-12.28c-1.53,0-2.91.53-4.15,1.58-1.24,1.06-2.23,2.43-2.95,4.15s-1.08,3.57-1.08,5.57v28.25h4.09v-11.3h20.46v11.3h4.09v-28.25c-.03-2.11-.43-4.01-1.19-5.71h0ZM104.97,71c.01-1.52.42-2.83,1.21-3.92s1.77-1.67,2.89-1.67h12.28c1.12,0,2.08.56,2.88,1.67.8,1.09,1.2,2.4,1.21,3.92v11.37h-20.46v-11.37h-.01Z"/>
        <path class="cls-19" d="M168.35,47.72h-2.91l-8.18-13.19h-13.46v13.19h-4.09V1.57h20.46c1.45,0,2.79.59,4.03,1.78s2.24,2.77,3.01,4.75,1.15,4.2,1.15,6.66v6.59c0,2.81-.53,5.37-1.58,7.68s-2.42,3.92-4.11,4.85l5.69,9.16v4.68h0ZM164.26,21.35v-6.59c0-1.8-.4-3.35-1.21-4.65-.8-1.3-1.77-1.95-2.88-1.95h-16.37v19.78h16.37c1.12,0,2.08-.65,2.88-1.95s1.21-2.85,1.21-4.65h0Z"/>
        <path class="cls-19" d="M206.36,34.53c0,2.33-.36,4.49-1.08,6.49s-1.71,3.62-2.95,4.85c-1.24,1.23-2.63,1.85-4.15,1.85h-12.28c-1.47,0-2.82-.58-4.05-1.75-1.23-1.16-2.21-2.75-2.95-4.75-.74-2-1.13-4.23-1.19-6.69h4.09c0,1.8.4,3.35,1.21,4.65.8,1.3,1.77,1.95,2.89,1.95h12.28c1.12,0,2.08-.65,2.89-1.95.8-1.3,1.21-2.85,1.21-4.65s-.4-3.35-1.21-4.65c-.8-1.3-1.77-1.95-2.89-1.95h-12.28c-1.45,0-2.8-.58-4.05-1.75s-2.26-2.75-3.01-4.75-1.13-4.23-1.13-6.69c0-2.33.36-4.49,1.08-6.49s1.71-3.62,2.95-4.85c1.24-1.23,2.63-1.85,4.15-1.85h12.28c1.47,0,2.82.59,4.03,1.78,1.21,1.19,2.2,2.77,2.97,4.75s1.16,4.2,1.19,6.66h-4.09c0-1.8-.4-3.35-1.21-4.65-.8-1.3-1.77-1.95-2.89-1.95h-12.28c-1.12,0-2.08.65-2.89,1.95-.8,1.3-1.21,2.85-1.21,4.65s.4,3.35,1.21,4.65c.8,1.3,1.77,1.95,2.89,1.95h12.28c1.45,0,2.79.59,4.03,1.78,1.24,1.19,2.24,2.77,3.01,4.75.76,1.98,1.15,4.2,1.15,6.66h0Z"/>
        <rect class="cls-19" x="215.18" y="1.57" width="4.09" height="46.15"/>
        <polygon class="cls-19" points="146.3 59.76 146.3 76.72 180.22 76.72 180.22 59.76 183.72 59.76 183.72 99.32 180.22 99.32 180.22 82.37 146.3 82.37 146.3 99.32 142.79 99.32 142.79 59.76 146.3 59.76"/>
        <path class="cls-19" d="M220.2,99.32h-2.49l-7.01-11.3h-11.54v11.3h-3.51v-39.56h17.54c1.24,0,2.39.51,3.45,1.53s1.92,2.37,2.58,4.07c.65,1.7.98,3.6.98,5.71v5.65c0,2.41-.45,4.61-1.35,6.58-.9,1.98-2.08,3.36-3.52,4.15l4.88,7.86v4.01h0ZM216.7,76.72v-5.65c0-1.54-.34-2.87-1.03-3.98s-1.51-1.67-2.47-1.67h-14.03v16.95h14.03c.96,0,1.78-.56,2.47-1.67s1.03-2.44,1.03-3.98Z"/>
        <g>
          <path class="cls-19" d="M13.31,109.18v1.37c0,.48-.1.93-.29,1.34-.2.41-.46.75-.8,1s-.71.38-1.12.38h-4.43v2.73h-1.11v-9.56h5.54c.4,0,.76.12,1.09.37s.6.57.8.98c.21.41.31.87.32,1.38h0ZM12.21,110.54v-1.37c0-.37-.11-.69-.33-.96s-.48-.4-.78-.4h-4.43v4.1h4.43c.3,0,.56-.13.78-.4.22-.27.33-.59.33-.96h0Z"/>
          <polygon class="cls-19" points="16.51 107.81 16.51 110.54 21.27 110.54 21.27 111.91 16.51 111.91 16.51 114.64 22.22 114.64 22.22 116 15.56 116 15.56 106.45 22.22 106.45 22.22 107.81 16.51 107.81"/>
          <path class="cls-19" d="M30.37,116h-.68l-1.9-2.73h-3.13v2.73h-.95v-9.56h4.76c.34,0,.65.12.94.37.29.25.52.57.7.98s.27.87.27,1.38v1.37c0,.58-.12,1.11-.37,1.59-.24.48-.56.81-.96,1l1.32,1.9s0,.97,0,.97ZM29.41,110.54v-1.37c0-.37-.09-.69-.28-.96s-.41-.4-.67-.4h-3.81v4.1h3.81c.26,0,.48-.13.67-.4.19-.27.28-.59.28-.96h0Z"/>
          <path class="cls-19" d="M38.51,113.27c0,.48-.08.93-.25,1.34-.17.41-.4.75-.68,1s-.61.38-.97.38h-2.85c-.34,0-.66-.12-.94-.36-.29-.24-.51-.57-.68-.98-.17-.41-.26-.88-.28-1.39h.95c0,.37.09.69.28.96s.41.4.67.4h2.85c.26,0,.48-.13.67-.4.19-.27.28-.59.28-.96s-.09-.69-.28-.96-.41-.4-.67-.4h-2.85c-.34,0-.65-.12-.94-.36-.29-.24-.52-.57-.7-.98-.17-.41-.26-.88-.26-1.39,0-.48.08-.93.25-1.34.17-.41.4-.75.68-1s.61-.38.97-.38h2.85c.34,0,.65.12.94.37.28.25.51.57.69.98s.27.87.28,1.38h-.95c0-.37-.09-.69-.28-.96s-.41-.4-.67-.4h-2.85c-.26,0-.48.13-.67.4-.19.27-.28.59-.28.96s.09.69.28.96.41.4.67.4h2.85c.34,0,.65.12.94.37.29.25.52.57.7.98s.27.87.27,1.38h-.02Z"/>
          <rect class="cls-19" x="40.09" y="106.45" width=".95" height="9.56"/>
          <path class="cls-19" d="M49.37,109.18v6.83h-.95v-2.73h-4.76v2.73h-.95v-6.83c0-.48.08-.93.25-1.34.17-.41.4-.75.68-1,.29-.25.61-.38.97-.38h2.85c.34,0,.65.12.94.37.28.25.51.57.69.98s.27.87.28,1.38h0ZM47.47,107.81h-2.85c-.26,0-.48.13-.67.4-.19.27-.28.59-.28.96v2.73h4.76v-2.73c0-.37-.09-.69-.28-.96s-.41-.4-.67-.4h-.01Z"/>
          <polygon class="cls-19" points="57.71 106.45 57.71 116 56.76 116 52 108.66 52 116 51.05 116 51.05 106.45 52 106.45 56.76 113.68 56.76 106.45 57.71 106.45"/>
          <path class="cls-19" d="M70.57,109.18v4.1c0,.48-.08.93-.25,1.34-.17.41-.4.75-.68,1s-.61.38-.97.38h-4.76v-9.56h4.76c.34,0,.65.12.94.37.28.25.51.57.69.98s.27.87.28,1.38h-.01ZM69.62,113.27v-4.1c0-.37-.09-.69-.28-.96s-.41-.4-.67-.4h-3.81v6.83h3.81c.26,0,.48-.13.67-.4.19-.27.28-.59.28-.96h0Z"/>
          <path class="cls-19" d="M78.81,116h-.68l-1.9-2.73h-3.13v2.73h-.95v-9.56h4.76c.34,0,.65.12.94.37s.52.57.7.98.27.87.27,1.38v1.37c0,.58-.12,1.11-.37,1.59-.24.48-.56.81-.96,1l1.32,1.9s0,.97,0,.97ZM77.86,110.54v-1.37c0-.37-.09-.69-.28-.96s-.41-.4-.67-.4h-3.81v4.1h3.81c.26,0,.48-.13.67-.4.19-.27.28-.59.28-.96h0Z"/>
          <rect class="cls-19" x="80.39" y="106.45" width=".95" height="9.56"/>
          <polygon class="cls-19" points="85.15 116 82.73 109.18 82.73 106.45 83.68 106.45 83.68 108.85 85.73 114.64 86.38 114.64 88.44 108.85 88.44 106.45 89.39 106.45 89.39 109.18 86.96 116 85.15 116"/>
          <rect class="cls-19" x="90.78" y="106.45" width=".95" height="9.56"/>
          <polygon class="cls-19" points="100.06 106.45 100.06 116 99.11 116 94.35 108.66 94.35 116 93.4 116 93.4 106.45 94.35 106.45 99.11 113.68 99.11 106.45 100.06 106.45"/>
          <path class="cls-19" d="M104.5,111.91v-1.37h3.81v2.73c0,.48-.08.93-.25,1.34-.17.41-.4.75-.68,1s-.61.38-.97.38h-2.85c-.34,0-.65-.12-.94-.36s-.52-.57-.7-.98c-.17-.41-.26-.88-.26-1.39v-4.1c0-.48.08-.93.25-1.34.17-.41.4-.75.68-1s.61-.38.97-.38h2.85c.34,0,.65.12.94.37.28.25.51.57.69.98s.27.87.28,1.38h-.95c0-.37-.09-.69-.28-.96s-.41-.4-.67-.4h-2.85c-.26,0-.48.13-.67.4-.19.27-.28.59-.28.96v4.1c0,.37.09.69.28.96s.41.4.67.4h2.85c.26,0,.48-.13.67-.4.19-.27.28-.59.28-.96v-1.37h-2.87Z"/>
          <polygon class="cls-19" points="115.36 106.45 115.36 114.64 121.07 114.64 121.07 116 114.41 116 114.41 106.45 115.36 106.45"/>
          <rect class="cls-19" x="122.27" y="106.45" width=".95" height="9.56"/>
          <path class="cls-19" d="M126.7,106.45h2.85c.34,0,.65.12.94.37s.51.57.69.98c.18.41.27.87.28,1.38h-.95c0-.37-.09-.69-.28-.96s-.41-.4-.67-.4h-2.85c-.26,0-.48.13-.67.4-.19.27-.28.59-.28.96v4.1c0,.37.09.69.28.96s.41.4.67.4h2.85c.26,0,.48-.13.67-.4.19-.27.28-.59.28-.96h.95c0,.48-.08.93-.25,1.34-.17.41-.4.75-.68,1s-.61.38-.97.38h-2.85c-.34,0-.65-.12-.94-.36-.29-.24-.52-.57-.7-.98-.17-.41-.26-.88-.26-1.39v-4.1c0-.49.08-.94.25-1.35.17-.41.4-.74.68-.99s.61-.38.97-.39h-.01Z"/>
          <polygon class="cls-19" points="133.89 107.81 133.89 110.54 138.65 110.54 138.65 111.91 133.89 111.91 133.89 114.64 139.6 114.64 139.6 116 132.94 116 132.94 106.45 139.6 106.45 139.6 107.81 133.89 107.81"/>
          <polygon class="cls-19" points="147.74 106.45 147.74 116 146.79 116 142.04 108.66 142.04 116 141.08 116 141.08 106.45 142.04 106.45 146.79 113.68 146.79 106.45 147.74 106.45"/>
          <path class="cls-19" d="M155.98,113.27c0,.48-.08.93-.25,1.34-.17.41-.4.75-.68,1s-.61.38-.97.38h-2.85c-.34,0-.66-.12-.94-.36-.29-.24-.51-.57-.68-.98s-.26-.88-.28-1.39h.95c0,.37.09.69.28.96s.41.4.67.4h2.85c.26,0,.48-.13.67-.4.19-.27.28-.59.28-.96s-.09-.69-.28-.96-.41-.4-.67-.4h-2.85c-.34,0-.65-.12-.94-.36-.29-.24-.52-.57-.7-.98-.17-.41-.26-.88-.26-1.39,0-.48.08-.93.25-1.34.17-.41.4-.75.68-1s.61-.38.97-.38h2.85c.34,0,.65.12.94.37.28.25.51.57.69.98.18.41.27.87.28,1.38h-.95c0-.37-.09-.69-.28-.96s-.41-.4-.67-.4h-2.85c-.26,0-.48.13-.67.4-.19.27-.28.59-.28.96s.09.69.28.96.41.4.67.4h2.85c.34,0,.65.12.94.37.29.25.52.57.7.98s.27.87.27,1.38h-.02Z"/>
          <polygon class="cls-19" points="158.51 107.81 158.51 110.54 163.27 110.54 163.27 111.91 158.51 111.91 158.51 114.64 164.22 114.64 164.22 116 157.56 116 157.56 106.45 164.22 106.45 164.22 107.81 158.51 107.81"/>
          <polygon class="cls-19" points="176.42 107.81 173.56 107.81 173.56 116 172.61 116 172.61 107.81 169.76 107.81 169.76 106.45 176.42 106.45 176.42 107.81"/>
          <path class="cls-19" d="M184.28,116h-.68l-1.9-2.73h-3.13v2.73h-.95v-9.56h4.76c.34,0,.65.12.94.37.29.25.52.57.7.98s.27.87.27,1.38v1.37c0,.58-.12,1.11-.37,1.59-.24.48-.56.81-.96,1l1.32,1.9v.97h0ZM183.32,110.54v-1.37c0-.37-.09-.69-.28-.96s-.41-.4-.67-.4h-3.81v4.1h3.81c.26,0,.48-.13.67-.4.19-.27.28-.59.28-.96h0Z"/>
          <path class="cls-19" d="M192.52,109.18v6.83h-.95v-2.73h-4.76v2.73h-.95v-6.83c0-.48.08-.93.25-1.34.17-.41.4-.75.68-1,.29-.25.61-.38.97-.38h2.85c.34,0,.65.12.94.37.28.25.51.57.69.98.18.41.27.87.28,1.38h0ZM190.61,107.81h-2.85c-.26,0-.48.13-.67.4-.19.27-.28.59-.28.96v2.73h4.76v-2.73c0-.37-.09-.69-.28-.96s-.41-.4-.67-.4h0Z"/>
          <rect class="cls-19" x="194.19" y="106.45" width=".95" height="9.56"/>
          <polygon class="cls-19" points="203.47 106.45 203.47 116 202.52 116 197.77 108.66 197.77 116 196.82 116 196.82 106.45 197.77 106.45 202.52 113.68 202.52 106.45 203.47 106.45"/>
          <rect class="cls-19" x="205.15" y="106.45" width=".95" height="9.56"/>
          <polygon class="cls-19" points="214.43 106.45 214.43 116 213.48 116 208.73 108.66 208.73 116 207.77 116 207.77 106.45 208.73 106.45 213.48 113.68 213.48 106.45 214.43 106.45"/>
          <path class="cls-19" d="M218.87,111.91v-1.37h3.81v2.73c0,.48-.08.93-.25,1.34-.17.41-.4.75-.68,1s-.61.38-.97.38h-2.85c-.34,0-.65-.12-.94-.36-.29-.24-.52-.57-.7-.98-.17-.41-.26-.88-.26-1.39v-4.1c0-.48.08-.93.25-1.34.17-.41.4-.75.68-1s.61-.38.97-.38h2.85c.34,0,.65.12.94.37.28.25.51.57.69.98.18.41.27.87.28,1.38h-.95c0-.37-.09-.69-.28-.96s-.41-.4-.67-.4h-2.85c-.26,0-.48.13-.67.4-.19.27-.28.59-.28.96v4.1c0,.37.09.69.28.96s.41.4.67.4h2.85c.26,0,.48-.13.67-.4.19-.27.28-.59.28-.96v-1.37h-2.87Z"/>
        </g>
      </g>
    </g>
  </g>
</svg>