<?xml version="1.0" encoding="UTF-8"?>
<svg id="Layer_2" data-name="Layer 2" xmlns="http://www.w3.org/2000/svg" viewBox="0 0 247.03 136.51">
  <defs>
    <style>
      .cls-1 {
        fill: #00669d;
      }

      .cls-1, .cls-2, .cls-3, .cls-4, .cls-5, .cls-6, .cls-7, .cls-8, .cls-9, .cls-10, .cls-11, .cls-12, .cls-13, .cls-14, .cls-15, .cls-16, .cls-17, .cls-18, .cls-19, .cls-20, .cls-21, .cls-22, .cls-23, .cls-24, .cls-25, .cls-26 {
        stroke-width: 0px;
      }

      .cls-2 {
        fill: #000;
      }

      .cls-3 {
        fill: #f9f9f9;
      }

      .cls-4 {
        fill: #fdcd00;
      }

      .cls-5 {
        fill: #de0000;
      }

      .cls-6 {
        fill: #f7f7f7;
      }

      .cls-7 {
        fill: #291f08;
      }

      .cls-8 {
        fill: #fdfdfd;
      }

      .cls-9 {
        fill: #4e4f51;
      }

      .cls-10 {
        fill: #3e3b39;
      }

      .cls-11 {
        fill: #d90000;
      }

      .cls-12 {
        fill: #f2b124;
      }

      .cls-13 {
        fill: #f6b425;
      }

      .cls-14 {
        fill: #fbb825;
      }

      .cls-15 {
        fill: #2d2413;
      }

      .cls-16 {
        fill: #239e40;
      }

      .cls-17 {
        fill: #2a2314;
      }

      .cls-18 {
        fill: #3b2b08;
      }

      .cls-19 {
        fill: #fabd0b;
      }

      .cls-20 {
        fill: #fff;
      }

      .cls-21 {
        fill: #8fd123;
      }

      .cls-22 {
        fill: #ee2742;
      }

      .cls-23 {
        fill: #eeae23;
      }

      .cls-24 {
        fill: #f3b224;
      }

      .cls-25 {
        fill: #2f291b;
      }

      .cls-26 {
        fill: #211805;
      }
    </style>
  </defs>
  <g id="Layer_1-2" data-name="Layer 1">
    <rect class="cls-1" width="247.03" height="136.51" rx="22.68" ry="22.68"/>
    <path class="cls-20" d="M26.48,8.95h33.82v96.44H9.25V26.18c0-9.51,7.72-17.22,17.22-17.22Z"/>
    <g>
      <path class="cls-9" d="M48.48,60.08v14.67h5.2c.56,0,.99.51.89,1.06-.5,2.89-.47,5.08-3.5,5.08-1.28,0-1.46,1.04-1.46,2.31v1.31c0,.57-.46,1.03-1.03,1.03h-.1v5.07c0,3.25-2.64,5.88-5.88,5.88h-10.48s.45-.18.45-.18h0v.18h-4.75c-3.25,0-5.88-2.63-5.88-5.88v-5.07h-.1c-.57,0-1.03-.46-1.03-1.03v-1.31c0-1.28-1.03-2.31-2.31-2.31-3.03,0-3-2.19-3.5-5.08-.1-.55.33-1.06.89-1.06h6.05v-14.67h-.1c-.57,0-1.03-.46-1.03-1.03v-1.31c0-1.28-1.03-2.31-2.31-2.31-3.03,0-3-2.19-3.5-5.08-.1-.55.33-1.06.89-1.06h6.05v-15.76h-.1c-.57,0-1.03-.46-1.03-1.03v-1.31c0-1.28-1.03-2.31-2.31-2.31-3.03,0-3-2.2-3.5-5.08-.1-.55.33-1.06.89-1.06h6.05c0-3.26,2.63-5.9,5.88-5.9h14.78c3.25,0,5.88,2.63,5.88,5.88h0s5.2.01,5.2.01c.56,0,.99.51.89,1.06-.5,2.89-.47,5.08-3.5,5.08-1.28,0-1.46,1.03-1.46,2.31v1.31c0,.57-.46,1.03-1.03,1.03h-.1v15.76h5.2c.56,0,.99.51.89,1.06-.5,2.89-.47,5.08-3.5,5.08-1.28,0-1.46,1.04-1.46,2.31v1.31c0,.57-.46,1.03-1.03,1.03h-.1"/>
      <path class="cls-10" d="M48.48,60.08v14.67h5.2c.56,0,.99.51.89,1.06-.5,2.89-.47,5.08-3.5,5.08-1.28,0-1.46,1.04-1.46,2.31v1.31c0,.57-.46,1.03-1.03,1.03h-.1v5.07c0,3.25-2.64,5.88-5.88,5.88h-4.92s-.26,0-.26,0h-.14s-2.07,0-2.07,0V16.84h7.39c3.25,0,5.88,2.63,5.88,5.88h0s5.2.01,5.2.01c.56,0,.99.51.89,1.06-.5,2.89-.47,5.08-3.5,5.08-1.28,0-1.46,1.03-1.46,2.31v1.31c0,.57-.46,1.03-1.03,1.03h-.1v15.76h5.2c.56,0,.99.51.89,1.06-.5,2.89-.47,5.08-3.5,5.08-1.28,0-1.46,1.04-1.46,2.31v1.31c0,.57-.46,1.03-1.03,1.03h-.1"/>
      <g>
        <path class="cls-22" d="M45.96,30.12c0,5.95-4.82,10.76-10.76,10.76s-10.76-4.82-10.76-10.76,4.82-10.77,10.76-10.77,10.76,4.82,10.76,10.77"/>
        <path class="cls-19" d="M45.96,56.69c0,5.95-4.82,10.77-10.76,10.77s-10.76-4.82-10.76-10.77,4.82-10.76,10.76-10.76,10.76,4.82,10.76,10.76"/>
        <path class="cls-21" d="M45.96,81.88c0,5.95-4.82,10.76-10.76,10.76s-10.76-4.82-10.76-10.76,4.82-10.77,10.76-10.77,10.76,4.82,10.76,10.77"/>
      </g>
    </g>
    <g>
      <path class="cls-2" d="M133.36,80.37h-17.86c.01-1.26.36-2.35,1.05-3.26s1.55-1.39,2.52-1.39h10.71c.97,0,1.81.46,2.51,1.39.7.91,1.05,2,1.06,3.26Z"/>
      <path class="cls-2" d="M135.66,74.88v.34c-.07-.14-.14-.27-.23-.41h.17s.05.02.05.07Z"/>
      <rect class="cls-5" x="115.5" y="80.37" width="17.86" height="5.55"/>
      <rect class="cls-4" x="115.5" y="85.92" width="17.86" height="3.9"/>
    </g>
    <g>
      <path class="cls-16" d="M133.01,24.16h-17.08c0-1.49.34-2.75,1.01-3.83.67-1.09,1.48-1.62,2.41-1.62h10.25c.93,0,1.73.54,2.4,1.62.67,1.08,1.01,2.34,1.01,3.83Z"/>
      <path class="cls-11" d="M133.01,30.27v4.94h-17.08v-4.94h6.13s.08,0,.13,0h.02s.04,0,.06,0h4.15s.05,0,.08,0h.01s.09,0,.14,0h6.37Z"/>
      <path class="cls-8" d="M115.93,24.16v6.11h6.13s.08,0,.12,0h4.33s.09,0,.14,0h6.36v-6.11h-17.08ZM124.67,24.31s-.03-.01-.05-.01h.11s-.04.01-.06.01ZM126.58,25.45h.01s.01.02.01.02c0-.01-.01-.02-.02-.02Z"/>
      <g>
        <path class="cls-8" d="M124.98,24.52h.14s-.05,0-.08,0-.04,0-.07,0Z"/>
        <path class="cls-26" d="M127.43,29.84s-.07,0-.1,0c-1.8,0-3.6,0-5.4,0-.03,0-.06,0-.09,0,0,0,0-.02,0-.02,0,0,.02-.02.03-.03.02,0,.04,0,.06,0,1.79,0,3.58,0,5.36,0,.04,0,.08,0,.11-.02l.03.07Z"/>
        <path class="cls-25" d="M121.84,29.82s0,.02,0,.02c0,0-.02,0-.03,0,.02-.13-.03-.26.03-.39,0,.12,0,.24,0,.36Z"/>
        <path class="cls-7" d="M122.21,29.38c.06.05.12.08.14-.05,0-.06.05-.1.11-.11,0,.01.01.02,0,.03-.02.05-.11.09-.06.16.04.07.12.07.18.05.17-.08.35-.08.54-.07.01.01.02.02.03.03,0,0,.01.01.02.01.42,0,.84,0,1.26,0,.06,0,.05-.04.06-.08.02-.02.02-.04.02-.07,0-.01,0-.03.02-.02.03.02,0,.05,0,.07,0,.06,0,.1.06.12.07.02.05-.04.07-.08.02-.05.05-.11.13-.1-.02.07-.11.1-.07.17.04.07.12.07.18.05.02,0,.04,0,.06-.01.18-.13.4,0,.59-.1,0,.02,0,.05.01.05.08,0,.15.02.22,0,.05-.01,0-.1.04-.14,0,0,.02.02.03.03-.02.07,0,.12.06.14.08.02.05-.07.07-.1.08-.13.2-.16.35-.16-.08.04-.15.06-.21.09-.05.03-.12.07-.08.15.03.07.09.1.17.07.01,0,.02,0,.04,0,0,.02,0,.03,0,.05,0,.02-.02.06-.02.05-.06-.11-.19.05-.26-.08-.02-.04-.08.01-.08.08h0c-.06-.02-.1-.26-.2-.03-.04-.03-.04-.1-.1-.09-.07.01,0,.09-.05.12-.08-.11-.1-.12-.13-.11-.05.02,0,.07-.02.11h0s-.04-.01-.05-.04c-.01-.04-.03-.07-.07-.08-.07,0-.04.07-.07.09-.05,0-.03-.1-.1-.08-.06.02-.03.08-.05.11,0,0-.01,0-.01,0-.09-.08-.21.03-.3-.04-.02.06-.04.06-.07,0-.07-.12-.11-.06-.13.04-.06-.03-.04-.14-.13-.12-.07.02,0,.08-.03.12h0s-.03-.01-.04-.03c-.02-.03-.02-.09-.08-.09-.07-.01-.04.08-.08.09-.04-.03-.03-.1-.1-.09-.08.01,0,.09-.05.12-.06-.01-.04-.14-.13-.11-.06.02,0,.08-.03.12h0s-.03-.01-.04-.03c-.02-.05-.04-.11-.1-.09-.07.03.02.09-.02.13-.07-.01-.04-.11-.1-.13-.1-.03-.04.09-.08.12-.06-.03-.04-.14-.13-.12-.07.02,0,.08-.03.12h0s-.03-.01-.04-.03c-.02-.05-.04-.11-.11-.09-.07.03.02.09-.02.13-.05-.02-.05-.07-.07-.11-.05-.06-.09-.02-.1.09-.07,0-.04-.14-.13-.11-.07.02,0,.08-.03.12h0s-.03-.01-.04-.03c-.02-.05-.03-.11-.1-.09-.07.03.02.09-.02.13-.06,0-.04-.1-.09-.11-.08-.02-.06.06-.08.11-.06-.04-.06-.14-.14-.12-.07.01,0,.08-.03.11h0c-.07-.02-.1-.26-.2-.02-.04-.04-.04-.11-.1-.09-.07.01,0,.09-.04.11-.03,0-.04-.03-.04-.05-.01-.04-.03-.08-.08-.07-.06.01-.03.07-.04.1,0,.06,0,.12,0,.18,0,0-.02.02-.03.03,0-.12,0-.24,0-.36.11,0,.21,0,.32,0,.03,0,.04-.03.04-.05,0,0,.01-.01.02-.02Z"/>
        <path class="cls-7" d="M122.19,29.26s0,.09.02.13c0,0-.01.01-.02.02,0,0-.01,0-.02,0-.02-.05-.03-.1.02-.14Z"/>
        <path class="cls-25" d="M123.39,24.74s.03.02.04.03c-.03,0-.05,0-.08,0,0,0,0,0,0,0,.01-.01.02-.02.03-.04Z"/>
        <path class="cls-17" d="M122.17,29.4s.01,0,.02,0c0,.03,0,.05-.04.05.03-.01.01-.04.02-.05Z"/>
        <path class="cls-17" d="M122.22,29.2s.02.01.02.03c-.01,0-.03,0-.04,0,0-.02,0-.03.03-.03Z"/>
        <path class="cls-7" d="M122.19,29.23s.03,0,.04,0c-.01.01-.01.05-.04.02,0,0,0-.01,0-.02,0,0,0,0,0,0Z"/>
        <path class="cls-13" d="M123.89,29.62s-.03-.1.03-.12c.09-.03.07.1.13.11.04-.03-.03-.1.05-.12.07-.01.06.06.1.09.04-.01,0-.1.08-.09.06,0,.06.06.08.09,0,.01.03.02.04.03,0,0,0,0,0,.01,0,0,0,0,0-.01,0,0,0,0-.01,0,.02-.03-.04-.1.03-.12.09-.02.07.09.13.12.02-.09.06-.15.13-.04.03.05.05.05.07,0,.09.07.21-.04.3.04,0,0,0,0,.01,0,.02-.03-.01-.09.05-.11.07-.02.05.08.1.08.03-.02,0-.1.07-.09.05,0,.06.04.07.08,0,.02.02.04.05.04,0,0,0,0,.01.01,0,0,0-.01,0-.02.02-.03-.03-.08.02-.11.03-.01.05,0,.13.11.04-.02-.03-.1.05-.12.07-.01.06.06.1.09.1-.23.13,0,.2.03,0,0,0,0,0,.01,0,0,0,0,0-.01,0,0,0,0-.01,0,0-.07.06-.12.08-.08.07.13.19-.03.26.08,0,0,.01-.03.02-.05.07-.04.1.02.15.06,0,0,0,0,.01.01,0,0,0-.02,0-.03,0-.03-.03-.07.02-.1.1-.05.07.11.14.11.03-.03-.02-.09.03-.11.1-.04.07.11.14.12.03-.04-.02-.08,0-.12.1-.04.11.07.15.11.06-.02-.02-.11.06-.12.07,0,.07.05.09.09.01.01.02.02.03.03,0-.01,0-.02.01-.03,0-.03-.03-.07.03-.09.07-.02.07.05.1.09,0,.02.02.04.04.03,0,0,0-.02,0-.03-.01-.05-.02-.09.05-.09.04,0,.07,0,.07.07,0,.07,0,.14,0,.2-.03.03-.07.02-.11.02-1.79,0-3.58,0-5.36,0-.02,0-.04,0-.06,0,0-.06,0-.12,0-.18,0-.04-.02-.09.04-.1.05-.01.07.02.08.07,0,.02.02.04.04.05.05-.02-.03-.1.04-.11.07-.01.07.05.1.09.1-.24.13,0,.2.03,0,0,0,0,0,.01,0,0,0,0,0,0,0,0,0,0-.01-.01.03-.03-.04-.1.03-.11.08-.02.08.09.14.12.02-.05,0-.13.08-.11.05.01.03.11.09.11.04-.04-.05-.1.02-.13.07-.03.08.04.1.09,0,.01.03.02.04.03,0,0,0,0,0,.01,0,0,0,0,0,0,0,0,0,0-.01-.01.03-.03-.03-.1.03-.12.09-.03.07.11.13.11.01-.12.06-.16.1-.09.02.03.02.09.07.11.04-.03-.05-.1.02-.13.07-.02.08.04.11.09,0,.01.03.02.04.03,0,0,0,0,0,.01,0,0,0,0,0,0,0,0,0,0-.01-.01.02-.03-.03-.1.03-.12.09-.02.07.09.13.12.04-.02-.03-.15.08-.12.06.02.04.12.1.13.04-.03-.05-.1.02-.13.07-.03.08.04.1.09,0,.01.03.02.04.03,0,0,0,0,0,.01,0,0,0,0,0,0,0,0,0,0-.01,0Z"/>
        <path class="cls-18" d="M126.76,29.51s.03.08,0,.12c-.07,0-.05-.15-.14-.12-.05.02,0,.08-.03.11-.07,0-.05-.16-.14-.11-.05.02-.01.06-.02.1,0,0,0,.01-.01.02-.04-.04-.08-.1-.15-.06,0-.02,0-.03,0-.05.16-.08.31-.11.48-.06,0,.02,0,.03,0,.05Z"/>
        <path class="cls-18" d="M127.11,29.59s0,.02-.01.03c-.01-.01-.02-.02-.03-.03.02,0,.03,0,.05,0Z"/>
        <path class="cls-18" d="M127.28,29.59s0,.03,0,.03c-.02.01-.03,0-.04-.03.01,0,.03,0,.04,0Z"/>
        <path class="cls-25" d="M123.49,29.04s0,.04,0,.05c-.08-.01-.1.07-.14.12-.06.07-.1.16-.19.22-.01-.01-.02-.02-.03-.03.11-.09.17-.23.27-.33.02-.02.05-.1.09-.02Z"/>
        <path class="cls-26" d="M126.77,28.64c.07.17.04.29-.05.4,0-.13,0-.25.05-.4Z"/>
        <path class="cls-7" d="M123.07,29.16c.08-.15.15-.25.25-.33,0,.15-.05.22-.25.33Z"/>
        <path class="cls-18" d="M123.37,28.42c.1.01.18,0,.25-.07-.04.15-.12.18-.25.07Z"/>
        <path class="cls-7" d="M123.63,28.57c-.05.14-.14.11-.23.07.07-.03.15-.03.21-.08,0,0,.01.01.02.02Z"/>
        <path class="cls-7" d="M123.61,28.56s0-.01.01-.02c0,.01,0,.02,0,.03,0,0-.01-.01-.02-.02Z"/>
        <path class="cls-25" d="M127.03,28.87s0,0,0,0c0,0,0,0,0,0,0,0,0,.01,0,.02,0,0,0,0,0,0Z"/>
        <path class="cls-7" d="M125.86,29.28s.03,0,.04,0c0,.01-.01.03-.02.04,0,0-.02-.02-.03-.03,0,0,0-.01,0-.01Z"/>
        <path class="cls-25" d="M124.5,29.37s0-.05.02-.07c0,.03,0,.05-.02.07Z"/>
        <path class="cls-7" d="M122.37,29.62s0,0,.01.01c0,0,0,0,0,0,0,0,0,0,0-.01,0,0,0,0,0,0Z"/>
        <path class="cls-7" d="M122.88,29.62s0,0,.01.01c0,0,0,0,0,0,0,0,0,0,0-.01h0Z"/>
        <path class="cls-7" d="M123.39,29.62s0,0,.01.01c0,0,0,0,0,0,0,0,0,0,0-.01,0,0,0,0,0,0Z"/>
        <path class="cls-7" d="M123.89,29.62s0,0,.01,0c0,0,0,0,0,0,0,0,0,0,0-.01h0Z"/>
        <path class="cls-7" d="M124.4,29.62s0,0,.01,0c0,0,0,0,0,.01,0,0,0,0,0-.01,0,0,0,0,0,0Z"/>
        <path class="cls-7" d="M125.41,29.62s0,.01,0,.02c0,0,0,0-.01-.01,0,0,0,0,0,0Z"/>
        <path class="cls-7" d="M125.92,29.62s0,0,.01,0c0,0,0,0,0,.01,0,0,0,0,0-.01,0,0,0,0,0,0Z"/>
        <path class="cls-18" d="M126.43,29.61s0,.02,0,.03c0,0,0,0-.01-.01,0,0,0-.01.01-.02Z"/>
        <path class="cls-7" d="M125.23,29.07c.02.06.02.07-.02.06-.16-.03-.33-.03-.49-.02,0-.04.02-.02.04-.03.03,0,.05,0,.07-.02.08-.02.15-.01.23,0,.03.03.06.03.09.02.03,0,.05,0,.08,0Z"/>
        <path class="cls-7" d="M125.27,28.67c-.02.11.02.21.02.32,0,.04.03.11-.06.09,0-.05,0-.1,0-.16.02-.02.02-.04,0-.06-.02-.06-.03-.13,0-.2.01,0,.03,0,.04,0Z"/>
        <path class="cls-7" d="M125.13,28.54c.14-.01.18.02.15.12-.01,0-.03,0-.04-.01,0-.09-.1-.04-.11-.11Z"/>
        <path class="cls-25" d="M125.15,29.08s-.07.01-.09-.02c.03,0,.07,0,.09.02Z"/>
        <path class="cls-7" d="M124.72,29.11s0,.03-.01.04c-.02.01-.03,0-.04-.01,0-.03.02-.04.05-.03Z"/>
        <path class="cls-7" d="M125.03,28.48s.02-.03.04-.01c.02.01.02.02.01.04-.03.02-.04,0-.05-.03Z"/>
        <path class="cls-25" d="M124.83,29.06s-.04.03-.07.02c.02-.02.04-.02.07-.02Z"/>
        <path class="cls-7" d="M125.08,28.51s.05-.02.05.03c-.03.02-.04,0-.05-.03Z"/>
        <path class="cls-25" d="M125.23,28.87s.03.03,0,.06c0-.02,0-.04,0-.06Z"/>
        <path class="cls-7" d="M124.95,28.39s.02,0,.03,0c0,0,0,.02,0,.03-.03,0-.03,0-.03-.03Z"/>
        <path class="cls-7" d="M124.98,28.42s.02,0,.03,0c.02,0,0,.02,0,.03-.02,0-.04,0-.03-.03Z"/>
        <path class="cls-7" d="M125,28.45s.02-.02.03,0c.02.02,0,.02,0,.03-.02,0-.03,0-.03-.03Z"/>
        <path class="cls-25" d="M125.24,28.64s.03,0,.04.01c0,0,0,.01,0,.01-.01,0-.03,0-.04,0,0,0,0-.02,0-.03Z"/>
        <path class="cls-7" d="M124.67,29.14s.02.02,0,.03c0,0-.02,0-.03,0,0-.03,0-.03.03-.03Z"/>
        <path class="cls-7" d="M124.65,29.17s0,.02,0,.02c-.01,0-.02,0-.03,0-.01-.03,0-.04.03-.03Z"/>
        <path class="cls-7" d="M124.62,29.2s0,.04-.03.03c-.01-.03,0-.04.03-.03Z"/>
        <path class="cls-7" d="M124.6,29.23s0,.04-.03.03c-.01-.03,0-.04.03-.03Z"/>
        <path class="cls-7" d="M124.57,29.25v.04s-.02,0-.02,0c-.01-.03,0-.04.02-.03Z"/>
        <path class="cls-7" d="M125.91,28.73c-.07.06,0,.18-.09.24-.04.02.04.11,0,.18-.08-.06-.12,0-.15.08-.02.07-.04.14-.11.17.02-.16.13-.35.22-.35,0-.07-.06-.11-.07-.18.09.01.15,0,.07-.11-.01-.02-.01-.04,0-.05.17-.01.05-.15.08-.22,0-.02,0-.03,0-.05.02-.01.02,0,.02.02,0,.09-.02.18.02.26Z"/>
        <path class="cls-26" d="M125.43,29.18c.02-.15.06-.27.11-.38.06.13.03.24-.11.38Z"/>
        <path class="cls-26" d="M125.68,28.6c-.11.08-.16.07-.23-.07.08.03.15.07.23.07Z"/>
        <path class="cls-25" d="M125.91,28.73c-.04-.08-.02-.17-.02-.26.04.08.01.17.02.26Z"/>
        <path class="cls-8" d="M124.98,24.52h.14s-.05,0-.08,0-.04,0-.07,0Z"/>
        <g>
          <path class="cls-8" d="M127.56,25.56s-.01-.02-.03-.02h.01s.01.02.01.02Z"/>
          <path class="cls-25" d="M127.43,29.84s-.02-.04-.03-.07c0-.07,0-.14,0-.2,0-.06-.03-.06-.07-.07-.07,0-.06.04-.05.09-.01,0-.03,0-.04,0-.03-.03-.03-.11-.1-.09-.05.02-.02.06-.03.09-.02,0-.03,0-.05,0-.03-.04-.03-.1-.09-.09-.07.01,0,.09-.06.12-.04-.05-.05-.16-.15-.11,0-.02,0-.03,0-.05.14-.05.19-.19.24-.32.01-.03.02-.09.05-.09.14.02.04-.06.03-.1,0-.03-.03-.05-.04-.08h0s.08.03.12,0c.04-.04-.15-.17.05-.15,0,0,0-.02,0-.03.01-.14,0-.3-.1-.38-.18-.14-.25-.33-.25-.56,0-.15-.05-.27-.17-.35-.08-.05-.15-.11-.22-.16.36.1.71.21.93-.27.01,0,.03,0,.04,0-.07.24-.25.38-.51.39-.12,0-.14.03-.07.14.06.1.06.21.06.32,0,.18.06.33.21.42.1.06.09.18.12.27.04.14,0,.29-.04.41-.03.07-.02.11-.03.17,0,.02,0,.05-.02.04-.15-.07-.12.09-.17.15-.03.04-.05.09-.09.16.16,0,.31,0,.46,0,.07,0,.1.02.09.1,0,.1,0,.2,0,.29,0,0,0,0,0,0h0Z"/>
          <path class="cls-13" d="M127.03,28.87s.04.05.04.08c0,.04.11.11-.03.1-.03,0-.03.06-.05.09-.05.13-.1.27-.24.32-.17-.05-.33-.01-.48.06-.01,0-.03,0-.04,0-.08.04-.14,0-.17-.07-.04-.08.04-.12.08-.15.06-.04.13-.06.21-.09-.15,0-.27.02-.35.16-.02.03.01.12-.07.1-.07-.02-.08-.08-.06-.14,0-.01.01-.03.02-.04.16-.19.35-.22.57-.17.14.03.18-.02.16-.18-.01-.11-.04-.22,0-.33.02-.05-.01-.07-.05-.07-.28-.08-.43-.3-.54-.58-.08-.21-.18-.26-.4-.23-.02,0-.04.01-.05.04-.13.17-.3.11-.46.11.07.03.13.06.23.1-.2.08-.33-.08-.48-.07.1.06.19.11.3.17-.11.09-.22-.03-.33,0,.04.05.1.04.13.1-.04.03-.09.05-.14.03-.04-.01-.08-.03-.12-.05-.04-.01-.07-.06-.12-.02.04.05.11.06.14.11-.07.05-.14.03-.2-.02-.05-.04-.09-.08-.14-.12-.01-.02-.03-.03-.05-.01,0,.01.02.02.03.04.04.05.09.11.13.16-.1.06-.16-.02-.23-.05-.04.03.04.07-.01.09-.08.04-.14-.03-.23-.1.05.12.05.2,0,.27-.04.05-.08-.04-.13-.04-.06.28-.11.33-.23.25-.02.06.02.13-.02.18-.05,0-.06-.08-.11-.05q0,.15-.05.18c-.04-.08-.07,0-.09.02-.1.1-.16.24-.27.33-.18-.01-.36-.01-.54.07-.06.03-.14.02-.18-.05-.05-.07.04-.11.06-.16,0,0,0-.01,0-.03-.06,0-.1.05-.11.11-.02.13-.07.09-.14.05-.03-.04.02-.09-.02-.13,0,0,0,0,0,0,.03.03.03,0,.04-.02,0-.02,0-.03-.02-.03,0,0,0,0,0,0,0,.02.02.02.04,0,.16-.19.36-.18.56-.13.08.02.12-.01.16-.08.08-.16.13-.33.29-.42-.07-.07-.13-.13-.17-.21-.01-.02-.03-.04-.05-.01,0,0,0,.03,0,.05-.22-.11-.38-.31-.52-.52-.05-.08-.11-.1-.18-.06-.1.02-.2.05-.3,0,.06-.1.07-.14.06-.33-.01-.21-.01-.2-.2-.17-.05,0-.1,0-.15,0-.03,0-.07-.02-.08-.06,0-.05.03-.08.06-.09.14-.05.28-.05.42,0,.09.03.17.08.26.1.09.02.14.05.11.16,0,.04,0,.11.05.09.11-.04.1.04.14.11.07.12.05.25.08.37.04.16.05.17.19.11.02.07-.02.18.04.2.07.02.14-.06.2-.12.04.05.06.13.12.16.07.03.11-.01.13-.09.02-.05.05-.09.1-.02.06.08.12.1.17-.02.03-.07.05-.05.09-.02.12.09.12.09.18-.07.01-.03,0-.09.06-.04.08.07.11,0,.13-.07.02-.05.03-.09.09-.06.1.05.13,0,.12-.1,0-.04-.03-.12.06-.1.1.02.11-.05.11-.12,0-.07-.04-.18-.01-.21.06-.08.04-.15.04-.23.04,0,.07,0,.11,0,.16,0,.18-.02.12-.17.02-.02.05-.01.07-.01.26.03.51,0,.76-.08.2-.06.4-.07.6,0,.04.02.07.03.11.05.09.06.19.11.3.15.17.05.33.05.48-.07.13-.16.13-.38,0-.55-.09-.11-.2-.19-.32-.26-.18-.1-.36-.19-.52-.34-.16-.28-.15-.56.04-.71.15-.13.46-.15.65.14.02.02.03.07.07.05,0,0,0,0,0,0,0,.01,0,.02,0,.03,0,.02.02,0,.03,0,0,0,0,0,0,0,0,.01,0,.02,0,.03,0,0,.02,0,.03,0,0,0,0,0,0,0,0,0-.02.02,0,.03,0,0,.02,0,.03,0,0,0,0,0,0,0,.01.1.09.1.16.1.04,0,.11.02.11-.08,0,0,0,0,0,0,.07.01.06-.05.06-.09,0-.01,0-.03.01-.04,0-.06-.01-.07-.05-.05,0,0,0,0,0,0,0-.01.02-.02,0-.03-.02-.02-.02,0-.03,0,0,0,0,0,0,0,0-.01.02-.02,0-.03-.01-.02-.02,0-.03,0,0,0,0,0,0,0,.01-.06-.03-.06-.06-.06-.02-.02-.04-.03-.06-.02-.13,0,0-.09-.03-.12,0,0,0,0,0,0,.02.05.05,0,.08,0,.02,0,.05,0,.07,0,.02,0,.04.04.05,0,0,0,0,0,0,0-.01.06.03.08.06.08.01,0,.07-.03.03-.08,0,0,0,0,0,0,0,0,.02.02.03,0,.02-.02,0-.02,0-.03,0,0,0,0,0,0,.01.04.03,0,.05,0,.03,0,.07,0,.1,0,.02.01.05.02.07.05-.01.05-.1.02-.09.09,0,0,0,0,0,0,0,0-.02-.02-.03,0-.02.02,0,.02,0,.03,0,0,0,0,0,0,0,0-.02-.02-.03,0-.01.02,0,.02,0,.03,0,0,0,0,0,0-.04-.03-.05.02-.05.04,0,.09-.04.18-.02.27,0,0,0,0,0,0-.03-.02-.03.01-.04.03h0s0,0,0,0c-.02,0-.04.02-.03.05,0,0,0,0,0,0-.01,0-.02,0-.03,0,0,0,0,.02,0,.02,0,0,0,0,0,0-.03-.03-.05-.02-.05.03,0,0,0,0,0,0-.03-.03-.05,0-.08,0-.02,0-.05,0-.07,0-.03,0-.07-.06-.1,0,0,0,0,0,0,0,.01-.02,0-.03-.01-.04-.02,0-.03,0-.04.01,0,0,0,0,0,0,0-.06-.02-.08-.07-.06,0,0,0,0,0,0,0-.01.02-.02,0-.03-.02-.02-.02,0-.03,0,0,0,0,0,0,0,0-.01.02-.02,0-.03-.01-.02-.02,0-.03,0,0,0,0,0,0,0,.02-.07-.02-.1-.08-.11,0,0,0,0,0,0,0-.01,0-.02,0-.03,0-.02-.02,0-.03,0,0,0,0,0,0,0,0-.01.02-.02,0-.03-.01-.02-.02,0-.03,0,0,0,0,0,0,0,0-.01.02-.02,0-.03-.01-.02-.02,0-.03,0,0,0,0,0,0,0-.04-.14-.15-.14-.25-.14,0,0-.02,0-.02,0-.05,0-.1.03-.14.07,0,0-.02.02-.03.03,0,0-.02.02-.02.03,0,.02-.02.03-.03.05-.05.09-.06.18-.03.28,0,.05.02.09.05.12.02.03.02.09.08.07,0,0,0,0,0,0,0,.06.02.08.07.06,0,0,0,0,0,0,0,.06.02.09.07.05,0,0,0,0,0,0-.01.02,0,.03.01.04.02.01.03,0,.04-.02,0,0,0,0,0,0,0,0-.02.02,0,.03,0,0,.02,0,.03,0,0,0,0,0,0,0,0,.05.02.06.05.03,0,0,0,0,0,0,.03.09.11.09.16.12.05.04.11.07.16.11.03.02.05.09.1.05,0,0,0,0,0,0,0,0-.02.02,0,.03,0,0,.02,0,.03,0,0,0,0,0,0,0,0,.06.02.08.07.06,0,0,0,0,0,0-.03.05,0,.05.03.05,0,0,0,0,0,0,0,.03,0,.04.03.03,0,0,0,0,0,0,0,.01,0,.02,0,.03,0,.02.02,0,.02,0,0,0,0,0,0,0-.02.05-.01.09.05.08,0,0,0,0,0,0-.03.04-.03.07.03.08,0,0,0,0,0,0-.03.1,0,.2-.02.3-.22.48-.57.37-.93.27.07.05.15.11.22.16.12.08.17.2.17.35,0,.23.06.42.25.56.1.08.11.24.1.38,0,0,0,.03,0,.03-.2-.02,0,.11-.05.15-.04.03-.08-.02-.12,0,0,0,0-.01,0-.02,0,0,0,0,0,0,0,0,0,0,0,0ZM124.22,28.22s0,.02.01.03c0,0,0,0,0,0,0,0-.01-.01-.02-.02,0-.01,0-.02-.01-.03,0,0,0,0,0,.01,0,.02,0,.03.02.02ZM123.61,28.56c-.06.05-.14.05-.21.08.09.04.18.08.23-.07,0-.01,0-.02,0-.03,0,0,0,.01-.01.02ZM126.19,27.86c.02.36.25.6.56.62-.24-.14-.48-.3-.56-.62ZM126.77,28.64c-.05.15-.06.28-.05.4.09-.11.12-.23.05-.4ZM123.07,29.16c.2-.11.25-.19.25-.33-.1.08-.17.19-.25.33ZM123.37,28.42c.13.11.21.09.25-.07-.07.06-.15.08-.25.07ZM126.07,27.71c-.05-.15-.12-.18-.23-.08.09,0,.16.02.23.08Z"/>
          <path class="cls-15" d="M123.36,28.34c-.06-.03-.07-.11-.12-.16-.06.06-.13.14-.2.12-.07-.02-.02-.14-.04-.2-.14.05-.15.05-.19-.11-.03-.12-.01-.25-.08-.37-.04-.07-.03-.15-.14-.11-.05.02-.06-.05-.05-.09.03-.11-.03-.14-.11-.16-.09-.02-.18-.06-.26-.1-.14-.05-.28-.05-.42,0-.04.01-.07.04-.06.09,0,.04.04.06.08.06.05,0,.1,0,.15,0,.19-.03.19-.04.2.17.01.19,0,.23-.06.33.1.04.2.01.3,0,0,.02,0,.03,0,.05-.12.05-.25.06-.37,0-.03-.02-.06-.02-.1-.02-.21,0-.25-.04-.24-.28,0-.1.02-.2-.01-.29-.01-.04,0-.07.02-.1.06-.12.04-.17-.09-.16-.11,0-.23.01-.31-.11.06-.09.15-.13.25-.11.12.02.17-.02.17-.17,0-.36.05-.72.19-1.06.33-.77,1.12-1.16,1.81-.91.05.02.1.04.18.08-.16.02-.29.04-.42.06-.01-.01-.03-.02-.04-.03.08-.02.15-.04.24-.06-.04-.01-.06-.03-.09-.04-.49-.09-.93.03-1.3.41-.42.44-.53,1.01-.53,1.62,0,.03,0,.07.04.06.04,0,.09,0,.1-.06,0-.04,0-.08,0-.13.02-.29.05-.57.15-.84.01.01.02.03.03.04-.08.29-.13.58-.13.88,0,.06,0,.11.07.11.07,0,.05-.07.05-.1.01-.26.02-.52.1-.77.01,0,.02.02.04.02-.06.23-.07.48-.09.72-.01.13.02.19.15.17.06,0,.14-.02.2.03.03.02.04,0,.06-.02.04-.11.13-.17.2-.25-.04-.02-.08,0-.12,0-.01-.06.02-.12.04-.17.01-.04.1-.09-.02-.1-.04,0,0-.05,0-.06.09-.18.09-.41.25-.55-.01-.14.04-.26.06-.39.01-.09.04-.1.1-.07.04.02.08.03.12.06.05.04.07.06.12,0,.08-.1.08.02.11.06-.01,0-.02,0-.04,0-.01,0-.02-.02-.03-.02-.07.03-.01.11-.05.16-.04-.05-.08-.11-.13-.15-.07-.06-.14-.09-.16.06-.01.09-.07.17-.02.27.01.02,0,.04-.02.06-.17.13-.17.35-.25.53.03.04.08,0,.11.04q-.14.22.01.24s0,.03,0,.04c-.04.07-.1.11-.15.17-.03.04-.09.1-.07.14.04.05.09,0,.13-.04,0,0,.02,0,.04,0,0,.05-.02.08-.04.11-.05.04-.02.09-.03.14,0,0-.01,0-.02,0,0-.04,0-.09-.01-.16-.14.1-.28.16-.44.14-.02,0-.05,0-.06.04,0,.03.02.05.04.06.11.04.22.07.32.12.07.03.11,0,.14-.07.05.02,0,.06,0,.08,0,.07-.06.16,0,.2.06.03.09-.07.14-.12,0,0,.01,0,.02,0-.01.07-.03.15-.02.22,0,.03,0,.06.03.07.03.02.05-.01.08-.03.05-.05.07-.12.12-.21,0,.11,0,.2,0,.28,0,.01-.02.03-.03.04-.03-.02-.02-.12-.08-.05-.09.09-.04.21-.02.32,0,.04.01.1.05.1.08,0,.08-.11.12-.16,0,0,0,0,.01,0,0,.08.01.17.03.25.02.09.05.1.12.03.05-.05.05-.12.12-.2-.04.16.06.25.06.37ZM121.88,26.76c-.15.06-.31.08-.47.07-.03,0-.07.02-.07.06,0,.03.04.04.07.05.08,0,.16-.02.22.01.24.14.48-.04.71-.01.03,0,.06-.01.06-.05,0-.04-.03-.06-.06-.06-.16,0-.32-.02-.47-.07ZM121.87,27.49s.09-.02.14-.03c.03-.01.07-.03.05-.08-.01-.04-.05-.04-.07-.03-.07,0-.13.02-.2.03-.04,0-.1-.03-.1.04,0,.06.06.06.1.07.02,0,.04,0,.08,0ZM121.84,27.64c.06,0,.12,0,.18-.03.03-.01.06-.03.04-.07-.01-.03-.04-.02-.07-.01-.07.01-.15.04-.23.02-.03,0-.07-.03-.08.03,0,.05.03.06.07.07.03,0,.06,0,.08,0ZM121.68,27.69c.09.1.27.12.34.05.01-.01.02-.03.02-.04,0-.03-.03-.03-.05-.02-.1.04-.2.01-.32.01Z"/>
          <path class="cls-17" d="M125.17,24.95v.73c.08-.15.1-.31.13-.47.02-.14.09-.11.17-.09.1.02.08.08.06.15-.03.11-.05.22-.08.33.06,0,.06-.04.07-.07.09-.24.19-.48.28-.72.04-.12.09-.13.19-.08.12.05.05.12.03.18-.11.27-.23.54-.35.81-.01.03-.04.06,0,.09.04.03.05-.02.06-.05.05-.07.09-.13.13-.2,0,0,.02.02.03.03-.12.19-.23.37-.35.56-.01.01-.03.03-.04.04-.02-.01-.04-.02-.06-.03,0-.02.02-.04.02-.06.17-.4.34-.8.51-1.2.02-.05.04-.09-.02-.12-.06-.03-.08,0-.1.05-.16.41-.32.83-.48,1.24-.01.01-.02.03-.03.04-.01,0-.03-.01-.04-.02,0-.02,0-.04,0-.06,0-.03.02-.05.02-.08.02-.02.03-.05.03-.07,0-.01,0-.03,0-.04,0,0,0,0,0,0,0,0,0-.01,0-.02.02-.09.05-.19.07-.28.02-.02.02-.05.02-.07.01-.06.02-.12.03-.18,0-.05.05-.1-.04-.13-.09-.03-.08.04-.09.09-.05.22-.09.43-.14.65,0,.01-.01.03-.02.04.02.03-.01.09.05.1,0,.01,0,.03,0,.04-.03,0-.06-.01-.1-.02,0-.02,0-.04-.03-.06,0-.35.02-.71.03-1.06.01,0,.03,0,.04,0ZM125.18,25.77s0-.02,0-.03c0,0-.01.02-.01.03,0,.01,0,.02,0,.03,0-.01,0-.02.01-.03ZM125.64,25.88s0-.02,0-.02c-.01,0-.02,0-.03.01-.01.01,0,.02,0,.03,0,0,.02,0,.03-.01ZM125.44,25.64s0,.02-.01.03c0,0,.01.01.02.01.01,0,.02-.01.01-.03,0,0-.01,0-.02-.01Z"/>
          <path class="cls-15" d="M124.17,25.44c.11.13.17.3.3.43.02-.07-.02-.11-.03-.15-.12-.29-.24-.57-.37-.85-.03-.07-.03-.11.04-.13.06-.01.12-.12.17.02.08.22.16.43.24.64-.01,0-.02,0-.04,0-.08-.19-.16-.38-.23-.57-.03-.08-.07-.08-.12-.04-.06.04-.01.08,0,.12.14.35.29.69.44,1.04,0,.05,0,.1-.06.11h0s-.02-.03-.03-.04c-.12-.17-.23-.34-.33-.52,0-.02,0-.03,0-.05ZM124.5,25.89s-.01-.04-.03-.03c-.03.02,0,.03,0,.05,0,.02.02.04.03.06.02-.03.02-.05,0-.08Z"/>
          <path class="cls-17" d="M127.08,25.36s-.06-.03-.07-.05c-.19-.28-.49-.27-.65-.14-.19.16-.2.44-.04.71,0,0-.02.02-.03.03-.02-.03-.05-.02-.08-.01-.02,0-.02-.02,0-.04.02-.04.01-.09-.02-.11-.04-.03-.05.03-.08.05-.04.02-.05.09-.1.06.03-.08.09-.11.14-.17.04-.05.03-.11,0-.16,0-.02-.03.03-.05.04,0-.02,0-.03,0-.05,0-.02,0-.04,0-.05l.03-.03c.06.05.06,0,.08-.05.08-.23.22-.35.42-.35.21,0,.4.12.48.33Z"/>
          <path class="cls-17" d="M123.05,28.39s-.01-.04,0-.05c.02-.02.04,0,.05.01.04.08.1.14.17.21-.16.1-.21.27-.29.42-.04.07-.08.1-.16.08-.2-.04-.4-.05-.56.13-.01.01-.03.02-.04,0,.14-.23.34-.22.55-.18.12.02.17-.02.21-.13.04-.1.08-.2.15-.27.07-.07.06-.1-.03-.12-.03,0-.05-.03-.07-.06,0-.02.01-.04.02-.06Z"/>
          <path class="cls-17" d="M124.96,25.76c0-.39-.01-.77-.02-1.16,0-.1.06-.09.11-.08.05,0,.14-.05.13.08,0,.07,0,.14,0,.21-.04-.07.01-.16-.04-.22-.15-.04-.15-.04-.15.12,0,.21,0,.42,0,.63-.03.1-.03.2,0,.3v.11s-.02,0-.04,0Z"/>
          <path class="cls-25" d="M123.36,24.78c-.05.05-.12.05-.18.07-.34.11-.62.3-.82.62,0-.02,0-.03,0-.05.25-.39.58-.61,1.02-.63h0Z"/>
          <path class="cls-25" d="M123.05,28.39s-.01.04-.02.06c-.22-.12-.39-.31-.53-.52-.04-.07-.09-.09-.16-.06,0-.02,0-.03,0-.05.08-.05.13-.03.18.06.14.22.3.41.52.52Z"/>
          <path class="cls-26" d="M124.15,25.4s.01,0,.01.01c0,0-.02.02-.03.03-.06.04-.07.14-.02.2.06.09.13.17.17.27-.03.02-.04.06-.03.1,0,0,0,0-.01.01-.05-.13-.07-.29-.2-.37-.02-.01-.02-.04,0-.06.04-.08,0-.16-.02-.24h0s.02,0,.02,0c.02.04.05.02.08.02,0,.01.02.02.03.03Z"/>
          <path class="cls-17" d="M126.44,25.24s.08-.06.14-.07c0,.01.02.01.02,0,.1,0,.21,0,.25.14-.03.02-.11-.05-.07.06,0,.01-.04.04-.06.06,0-.01-.02-.02-.03-.03.02-.03.02-.05,0-.08-.04-.1-.1.01-.15-.02,0-.02.02-.05.04-.09-.05.02-.08.04-.11.06,0-.01-.02-.02-.03-.03Z"/>
          <path class="cls-25" d="M124.6,25.13c.17-.05.17-.06.21.13.02.11.07.21.04.33,0,.02,0,.03-.01.05-.03-.13-.07-.26-.09-.4-.01-.09-.05-.09-.11-.07l-.05-.03Z"/>
          <path class="cls-17" d="M127.16,26.29c-.06.03-.07-.03-.1-.05,0-.02.02-.03.03-.05.04-.02.1-.02.07-.1-.03-.07-.07-.05-.11-.03-.02.01-.05.02-.07.03-.01-.01-.02-.02-.03-.03.03-.02.07-.03.1-.05.1-.04.19.03.18.15,0,.04-.03.05-.05.05-.07.02,0,.06-.01.08Z"/>
          <path class="cls-17" d="M124.84,25.63s0-.03.01-.05c.06.07.04.16.07.24,0,.02-.01.06.04.05.01,0,.03,0,.04,0,0,.04,0,.09,0,.13,0,.02,0,.04,0,.06-.04,0-.08.01-.12.02,0-.01,0-.03,0-.04.07-.05,0-.12.02-.18,0-.02-.01-.03-.02-.05,0-.02,0-.04,0-.07,0-.02-.01-.03-.02-.05,0-.02,0-.05-.01-.07Z"/>
          <path class="cls-17" d="M127.72,25.15c-.01-.08.08-.04.09-.09-.01-.03-.04-.04-.07-.05-.03-.04-.07-.04-.1,0-.02,0-.04.04-.05,0,.12-.1.24-.06.32.11-.06.01-.13.03-.19.04Z"/>
          <path class="cls-17" d="M127.35,25.17s.07,0,.06.06c-.09-.01-.17-.07-.27-.02.02-.1.04-.17.12-.18.03.03-.1.12.03.12.02.02.04.03.06.02Z"/>
          <path class="cls-15" d="M124.6,25.13s.03.02.05.03c-.07.08.02.16,0,.24,0,.02-.01.05-.02.07-.02-.09-.05-.18-.08-.28-.01-.04,0-.06.04-.06Z"/>
          <path class="cls-17" d="M127.43,25.48c0,.09-.07.08-.11.08-.06,0-.14,0-.16-.1.09.04.18.08.27.03Z"/>
          <path class="cls-17" d="M127.59,25.51c-.02-.09.02-.18.02-.27,0-.02.01-.07.05-.04-.05.1.02.22-.07.31Z"/>
          <path class="cls-17" d="M127.39,26.96c.03-.1,0-.2.02-.3.07.1.04.2.02.31-.01,0-.03,0-.04,0Z"/>
          <path class="cls-17" d="M126.89,26.13c-.06-.04-.14-.04-.16-.12.07-.03.12.09.2.04.01.01.02.02.03.03,0,.01,0,.03,0,.04-.02,0-.04,0-.07,0Z"/>
          <path class="cls-26" d="M123.7,25.24c.03.07.07.03.1,0,0,.01.02.02.03.04-.04.05-.09.1-.14.16,0-.07-.01-.12-.01-.17,0-.01.01-.02.02-.03Z"/>
          <path class="cls-26" d="M125.13,24.58c.05.07,0,.16.04.22,0,.05,0,.09,0,.14-.01,0-.03,0-.04,0,0-.12,0-.24,0-.36Z"/>
          <path class="cls-26" d="M123.85,25.21s.02-.01.03-.02q.13-.05.14.1s0,.03,0,.05c0,0,0,0,0,0-.03-.05-.02-.17-.13-.1,0-.01-.02-.02-.03-.03Z"/>
          <path class="cls-17" d="M127.18,25.65c.03-.06.07,0,.1,0,.02.03.05.03.07,0,.03,0,.05-.03.08,0-.09.08-.17.06-.26,0Z"/>
          <path class="cls-26" d="M123.53,25.21s.03.05.05.07c0,0,.01,0,.01-.01,0-.01,0-.02.01-.03,0,.01.02.02.03.03-.02.04-.04.09-.09.12-.02-.05-.03-.1-.04-.15,0-.01.02-.02.03-.03Z"/>
          <path class="cls-15" d="M124.63,25.64s.02,0,.03-.02c.02,0,.04,0,.06-.01,0,0,0,0,0,0,0,.03-.01.07.03.09h0c.01.09-.06.06-.09.07,0,0,0,0,0,0,0-.01.01-.03.02-.04-.01,0-.03,0-.04,0h0s0-.05.01-.07Z"/>
          <path class="cls-17" d="M125.93,25.44c.06-.15.12-.05.18,0,0,.01-.02.02-.03.03-.04-.02-.08-.08-.12,0-.01,0-.02-.02-.03-.03Z"/>
          <path class="cls-26" d="M123.3,25.29s.02,0,.04,0c.02-.02.04-.05.06-.07,0,.01.02.02.03.03-.02.05-.03.1-.05.15-.04-.03-.06-.06-.07-.11Z"/>
          <path class="cls-17" d="M127.46,25.29s.04,0,.05.05c0,.01,0,.03-.01.04,0,.04.01.1-.06.09,0-.06.04-.12.03-.19Z"/>
          <path class="cls-17" d="M127.46,25.03s-.03,0-.05,0c-.02-.03-.05-.03-.07,0-.03,0-.05.05-.08,0,.07-.07.14-.08.21,0Z"/>
          <path class="cls-17" d="M126.45,25.81c-.06.02-.06-.04-.08-.07,0-.02,0-.05,0-.07.02.01.04,0,.06-.01l.03.03s-.01.08,0,.12Z"/>
          <path class="cls-26" d="M123.4,25.21c.04-.08.09-.09.13,0,0,.01-.02.02-.03.03-.03-.03-.05-.03-.07,0,0-.01-.02-.02-.03-.03Z"/>
          <path class="cls-17" d="M127.56,25.03c.04.05-.02.08-.03.08-.03,0-.07-.03-.06-.08.03,0,.06,0,.09,0Z"/>
          <path class="cls-26" d="M125,25.87s-.03,0-.04,0c0-.04,0-.08,0-.11.01,0,.02,0,.04,0,0,.04,0,.07,0,.11Z"/>
          <path class="cls-17" d="M126.61,25.54s-.06.06-.1.1c0-.01-.02-.02-.03-.04.03-.03.06-.06.1-.09,0,.01.02.02.02.03Z"/>
          <path class="cls-17" d="M126.92,25.4c.06,0,.1.03.08.11-.04-.02-.08-.05-.08-.11Z"/>
          <path class="cls-26" d="M124.71,25.61s-.04,0-.06.01c0-.03,0-.06,0-.08,0,0,.01-.02.02-.03,0,0,0,0,0,0,0,.04.02.07.03.11Z"/>
          <path class="cls-15" d="M122.21,25.75s-.03.09-.05.14c-.01,0-.02-.02-.04-.02.02-.05.03-.09.05-.14.01,0,.02.02.03.03Z"/>
          <path class="cls-17" d="M126.52,25.87c-.05.03-.08,0-.07-.06.04,0,.06.02.07.06Z"/>
          <path class="cls-17" d="M126.6,25.92c-.05.03-.07,0-.07-.05.04,0,.06.02.07.05Z"/>
          <path class="cls-26" d="M124.54,25.41s.04.09.06.14c-.01,0-.02.02-.03.03-.02-.05-.04-.09-.05-.14,0,0,.02-.02.03-.03Z"/>
          <path class="cls-17" d="M127.05,25.57c.05-.02.07,0,.07.06-.04,0-.06-.02-.07-.06Z"/>
          <path class="cls-17" d="M127.26,26.37c-.05.03-.07,0-.07-.06.05-.01.06.03.07.06Z"/>
          <path class="cls-17" d="M127.39,26.57c-.06,0-.07-.03-.05-.08.04,0,.05.04.05.08Z"/>
          <path class="cls-26" d="M123.6,25.24s0-.01,0-.01c0-.01.02-.02.03-.04.04-.02.05.02.06.04,0,.01-.01.02-.02.03-.02,0-.03,0-.05,0,0-.01-.02-.02-.03-.03Z"/>
          <path class="cls-26" d="M124.64,25.47s.01-.05.02-.07c0,.03.02.07.02.1,0,0,0,0,0,0,0,0-.02,0-.02,0,0-.01,0-.02,0-.04Z"/>
          <path class="cls-17" d="M127.41,26.65c-.05-.01-.05-.04-.03-.08.03.02.05.04.03.08Z"/>
          <path class="cls-26" d="M124.59,25.55s.02.06.03.09c-.01,0-.02.01-.03.02-.01-.03-.02-.05-.03-.08.01,0,.02-.02.03-.03Z"/>
          <path class="cls-15" d="M122.34,25.41s0,.03,0,.05c0,.01-.01.02-.02.03-.01,0-.02-.02-.03-.03.01-.02.03-.03.04-.05Z"/>
          <path class="cls-26" d="M124.17,25.44s0,.03,0,.05c-.01-.02-.02-.03-.03-.05,0,0,.02-.02.03-.03,0,0,0,.02.01.03Z"/>
          <path class="cls-15" d="M122.34,25.49l-.03.05s-.02-.02-.03-.03c0-.02.02-.03.03-.05.01,0,.02.02.03.03Z"/>
          <path class="cls-15" d="M122.24,25.69s-.01.04-.02.06c-.01,0-.02-.02-.03-.03,0-.02.02-.04.02-.06.01,0,.02.02.03.03Z"/>
          <path class="cls-17" d="M126.73,26.01s-.05.02-.05-.03c.03-.02.05-.01.05.03Z"/>
          <path class="cls-17" d="M127.29,26.43s-.06,0-.03-.05c.03,0,.05.02.03.05Z"/>
          <path class="cls-26" d="M124.63,25.64s0,.05-.01.07c0-.02-.01-.04-.02-.06.01,0,.02-.01.03-.02,0,0,0,0,0,0Z"/>
          <path class="cls-17" d="M127.44,25.65s.02-.05.05-.03c0,.04-.02.05-.05.03Z"/>
          <path class="cls-17" d="M125.89,25.5s.02-.04.03-.06c.01,0,.02.02.03.03l-.03.05s-.02-.01-.03-.02Z"/>
          <path class="cls-17" d="M127.13,25.62s.02-.02.04-.01c.02,0,.02.02.01.04-.02,0-.04,0-.05-.03Z"/>
          <path class="cls-26" d="M123.8,25.24s.03-.02.05-.03c0,.01.02.02.03.03-.02,0-.03.02-.05.03,0-.01-.02-.02-.03-.04Z"/>
          <path class="cls-15" d="M122.26,25.63s-.02.04-.03.06c-.01,0-.02-.02-.03-.03,0-.02.02-.04.03-.05.01,0,.02.02.03.03Z"/>
          <path class="cls-17" d="M127.51,25.6s0-.04.03-.05c.02,0,.03.01.02.03,0,.02-.02.04-.05.02Z"/>
          <path class="cls-15" d="M122.29,25.58s-.02.04-.03.06c-.01,0-.02-.02-.03-.03,0-.02.02-.04.03-.06.01,0,.02.02.03.03Z"/>
          <path class="cls-17" d="M126.65,25.95s-.02.03-.04.02c-.02-.01-.02-.02-.01-.04.03-.01.04,0,.05.03Z"/>
          <path class="cls-17" d="M127.69,25.18s-.02-.02,0-.03c.01-.01.02,0,.03,0,0,.03,0,.03-.03.03Z"/>
          <path class="cls-17" d="M127.67,25.2s-.02-.02,0-.03c.01-.02.02,0,.03,0,0,.02,0,.03-.03.03Z"/>
          <path class="cls-15" d="M123.64,25.19s-.02.02-.03.04c0-.02,0-.03.03-.04Z"/>
          <path class="cls-17" d="M127.41,25.23s.02-.02.03,0c.02.02,0,.02,0,.03-.02,0-.03,0-.03-.03Z"/>
          <path class="cls-15" d="M123.59,25.27s0,.01-.01.01c0,0,0,0,.01-.01Z"/>
          <path class="cls-17" d="M127.43,25.26s.01-.02.03,0c.02.02,0,.02,0,.03-.02,0-.03,0-.02-.03Z"/>
          <path class="cls-15" d="M124.02,25.34s0-.03,0-.05c0,.02.01.03.02.05,0,0-.02,0-.02,0Z"/>
          <path class="cls-17" d="M126.85,25.32s.01-.02.03,0c.01.02,0,.02,0,.03-.02,0-.03,0-.03-.03Z"/>
          <path class="cls-17" d="M126.87,25.34s.01-.02.03,0c.01.02,0,.02,0,.03-.02,0-.03,0-.02-.03Z"/>
          <path class="cls-15" d="M124.15,25.4s-.02-.02-.03-.03c.02,0,.03.01.03.03Z"/>
          <path class="cls-17" d="M126.9,25.37s.02-.02.03,0c0,0,0,.02,0,.03-.03.01-.03,0-.02-.03Z"/>
          <path class="cls-17" d="M127.11,25.39s-.02.02-.03,0c0,0,0-.02,0-.03.03-.01.03,0,.03.03Z"/>
          <path class="cls-26" d="M124.49,25.4s.02,0,.04,0c0,0,.01,0,0,.02,0,0-.02.02-.03.03,0-.01,0-.03-.01-.04Z"/>
          <path class="cls-17" d="M127.13,25.42s-.02,0-.03,0c0-.01,0-.02,0-.03.02,0,.03,0,.03.03Z"/>
          <path class="cls-17" d="M126.71,25.44s-.02.02-.03.02c0-.01-.02-.02-.03-.03,0,0,.02-.02.03-.02,0,.01.02.02.03.03Z"/>
          <path class="cls-17" d="M127.16,25.45s-.02,0-.03,0c-.02,0,0-.02,0-.03.02,0,.04,0,.03.03Z"/>
          <path class="cls-17" d="M126.69,25.47l-.03.02s-.02-.02-.03-.03c0,0,.02-.02.03-.03l.03.03Z"/>
          <path class="cls-17" d="M126.66,25.49s-.02.02-.03.03c0-.01-.02-.02-.03-.03,0,0,.02-.02.03-.03l.03.03Z"/>
          <path class="cls-15" d="M124.65,25.51s.02,0,.02,0c0,0-.01.02-.02.03,0,0,0-.02,0-.03Z"/>
          <path class="cls-17" d="M125.88,25.52s.01-.02.02-.03c.01,0,.02.01.03.02,0,.01-.01.02-.02.04,0,0-.02-.02-.03-.03Z"/>
          <path class="cls-17" d="M126.63,25.52s-.02.02-.03.03c0-.01-.02-.02-.02-.03,0,0,.02-.02.02-.03,0,.01.02.02.03.03Z"/>
          <path class="cls-17" d="M127,25.51s.01-.02.03,0c.01.02,0,.02,0,.03-.02,0-.03,0-.02-.03Z"/>
          <path class="cls-17" d="M127.55,25.54s0-.05.04-.03c0,.03,0,.06-.04.03Z"/>
          <path class="cls-15" d="M122.3,25.54s-.01.02-.02.03c-.01,0-.02-.02-.03-.03,0-.01.01-.02.02-.03l.03.03Z"/>
          <path class="cls-17" d="M126.68,25.98s-.02,0-.03,0c-.02,0,0-.02,0-.03.02,0,.04,0,.03.03Z"/>
          <path class="cls-17" d="M126.51,25.64s-.02.02-.03.02c0-.01-.02-.02-.03-.03,0,0,.02-.02.03-.03,0,.01.02.02.03.04Z"/>
          <path class="cls-17" d="M127.19,26.32s-.02,0-.03,0c-.02,0,0-.02,0-.03.02,0,.04,0,.03.03Z"/>
          <path class="cls-17" d="M127.31,26.46s-.03,0-.03-.03c.03-.01.04,0,.03.03Z"/>
          <path class="cls-17" d="M127.34,26.48s-.02.02-.02,0c0,0,0-.02,0-.03.03-.01.03,0,.02.03Z"/>
          <path class="cls-17" d="M127.49,25.62s0-.02,0-.02c.01,0,.02,0,.03,0,.01.03,0,.04-.03.03Z"/>
          <path class="cls-17" d="M126.49,25.67s-.02.02-.03.02c0-.01-.02-.02-.03-.03,0,0,.02-.02.03-.02,0,.01.02.02.03.03Z"/>
          <path class="cls-17" d="M127.03,25.54s.01-.02.03,0c.02.02,0,.02,0,.03-.02,0-.03,0-.03-.03Z"/>
          <path class="cls-17" d="M127.58,25s.02.02,0,.03c-.01.01-.02,0-.03,0,0-.03,0-.03.03-.03Z"/>
          <path class="cls-17" d="M125.86,25.56s.01-.02.02-.03c0,0,.02.02.03.03,0,.01-.01.02-.02.03,0,0-.02-.02-.03-.03Z"/>
          <path class="cls-24" d="M123.36,28.34c0-.12-.11-.21-.06-.37-.07.08-.07.15-.12.2-.06.06-.1.06-.12-.03-.01-.08-.02-.16-.03-.25.03-.02.02-.05.02-.09.04-.03.08-.07.12-.1.12.26.1.28.28.04q.16.22.27-.03.15.13.26-.09s.1.08.16.08c.02.01.04.02.05.03,0,.07,0,.14,0,.21,0,.04,0,.11-.05.12-.05.01-.06-.05-.08-.09-.02-.04-.02-.1-.07-.14,0,.1,0,.18,0,.27,0,.04,0,.09-.05.1-.04.01-.08-.03-.1-.07-.03-.07-.05-.14-.09-.23,0,.1-.01.18-.02.25,0,.04-.02.08-.05.09-.04.01-.06-.03-.08-.05-.06-.06-.05-.16-.1-.23-.02.1,0,.2-.04.28-.02.03.02.02.04.03-.02.07-.05.11-.13.09Z"/>
          <path class="cls-7" d="M123.49,28.25s-.06,0-.04-.03c.05-.09.03-.18.04-.28.05.07.05.17.1.23.02.02.05.07.08.05.03-.01.05-.05.05-.09.01-.08.01-.15.02-.25.03.09.06.17.09.23.02.04.05.08.1.07.04-.01.05-.07.05-.1,0-.08,0-.17,0-.27.05.05.05.1.07.14.02.04.03.1.08.09.05,0,.05-.07.05-.12,0-.07,0-.14,0-.21.02.04.04.09.07.13.02.04.05.07.09.06.04-.01.03-.06.03-.1,0-.05-.03-.11,0-.16.06,0,.11.08.15.03.05-.06.02-.14,0-.21,0-.01,0-.03-.01-.04-.01-.04-.03-.07-.07-.07-.05,0-.04.05-.04.08-.02.11-.06.12-.14.07-.02-.01-.04-.04-.07-.02,0,.07-.02.14-.06.2-.06,0-.11-.05-.16-.08q-.11.22-.26.09-.12.25-.27.03c-.18.25-.15.23-.28-.04-.04.03-.08.07-.12.1-.07,0-.07-.06-.1-.11,0-.01.02-.03.03-.04.04.09.08.08.14.02.04-.05.06-.11.1-.17.02.1,0,.18.03.26.03.08.06.07.1.01.05-.07.05-.17.09-.26.02.08.04.15.07.22.01.04.03.09.07.09.05,0,.05-.07.06-.11.01-.06,0-.13.01-.22.04.07.07.12.1.17.02.03.05.08.09.07.04-.01.05-.07.06-.12.02-.07-.02-.15.02-.22.02.05.04.1.07.15.02.04.06.08.1.07.05-.01.04-.07.04-.12,0-.05,0-.1,0-.16.06.07.11.17.19.13.07-.04.03-.14.03-.23.02,0,.03,0,.04.01q.15.09.18-.09s.02-.02.02-.03h.01s0,0,0,0c0,.02,0,.03,0,.05,0,.08.02.15-.04.23-.03.04.01.14.01.21,0,.07-.01.14-.11.12-.09-.02-.06.06-.06.1,0,.1-.03.16-.12.1-.06-.03-.07.01-.09.06-.02.07-.05.14-.13.07-.05-.04-.05.02-.06.04-.06.16-.07.16-.18.07-.04-.03-.06-.05-.09.02-.05.12-.11.09-.17.02-.05-.06-.07-.03-.1.02Z"/>
          <path class="cls-7" d="M123.49,29.04q.06-.03.05-.18c.05-.02.06.06.11.05.04-.05,0-.12.02-.18.12.08.17.03.23-.25.05,0,.09.09.13.04.05-.06.05-.15,0-.27.09.08.15.14.23.1.05-.02-.03-.06.01-.09.07.04.13.11.23.05-.04-.06-.09-.11-.13-.16,0,0,.01-.02.02-.02.05.04.09.08.14.12.06.05.13.07.2.02-.03-.06-.09-.07-.14-.11.05-.04.08,0,.12.02.04.01.08.03.12.05.05.01.09,0,.14-.03-.02-.06-.09-.04-.13-.1.11-.04.22.08.33,0-.11-.06-.2-.12-.3-.17.15,0,.28.15.48.07-.1-.04-.16-.07-.23-.1.16,0,.34.06.46-.11,0,0,.02.02.03.03-.09.08,0,.17-.01.25-.05.03-.05-.03-.05-.05-.01-.1-.05-.1-.11-.04-.06.08-.19.08-.2.22,0,.02-.02,0-.03,0-.11-.05-.03.04-.04.07,0,0,0,0-.01.01-.02-.01-.04-.03-.07-.04,0,0-.01,0-.02,0,0,0,0,.01,0,.02,0,.03.01.06.02.09,0,0-.01.01-.02.02,0,0-.01,0-.02-.01-.04-.02-.04-.12-.11-.07-.07.05.02.08.02.12,0,0-.01.01-.02.02-.06,0-.06-.12-.14-.09-.21.07-.44.09-.65.13-.07.01-.18.13-.23.2-.08.12-.19.22-.25.36,0,0-.02.02-.02.02-.1-.06-.07.05-.09.09-.04.08-.06.06-.09,0,0-.02,0-.04,0-.05Z"/>
          <path class="cls-26" d="M126.28,26.92c-.2-.06-.4-.06-.6,0-.25.08-.5.11-.76.08-.02,0-.05-.01-.07.01,0,0,0,0,0,0,0,0,0-.01,0-.02,0,0-.01.01-.02.02h-.05s-.06-.06-.09-.09c-.04-.04-.2,0-.24.06h-.04s-.05-.09-.08-.14c.04,0,.06.01.08.02.04.01.09.05.11,0,.02-.04-.04-.07-.07-.1-.06-.06-.14-.08-.18-.16.09,0,.14.09.21.13.14.07.24.2.41.22.34.04.66-.05.98-.12.06-.01.04-.06.03-.09-.04-.16-.12-.28-.22-.4,0,0,.02-.02.03-.03.07.01.08-.07.13-.08.01.04.01.08.05.1-.02.04-.11.03-.07.1.04.06.08,0,.12-.02.08-.03.13-.11.22-.1,0,0,0,.02,0,.02,0,.03,0,.05.03.07-.05.03-.09.07-.15.05-.01,0-.02-.01-.03-.02,0,0,0,0,0,.01.01,0,.02,0,.04,0-.01.04-.05.04-.08.06-.02.02-.07.01-.06.07.01.06.06.03.09.04,0,0,.01,0,.02.01,0,0,0,0-.01-.01.03-.01.05-.02.08-.03,0,.05,0,.11.07.11-.03,0-.07.01-.1.03-.03.02-.09,0-.08.06.01.07.07.04.1.03.07,0,.14-.02.21-.04,0,.01,0,.03,0,.04-.01,0-.03,0-.04,0-.02,0-.05,0-.04.03,0,.03.04.02.06.02.01,0,.02,0,.04.01l-.03.04ZM125.98,26.68s-.02-.01-.02,0c0,0,0,.01,0,.02,0,0,.02.01.02,0,0,0,0-.01,0-.02Z"/>
          <path class="cls-17" d="M126.21,26.41s-.03-.04-.03-.07c.03,0,.06,0,.09,0,.12-.05.24-.1.36-.16-.04-.05-.08-.06-.12-.03-.08.06-.17.11-.26.17-.02,0-.03,0-.05,0,0-.01,0-.02,0-.04.07-.05.15-.09.22-.14.02-.02.08-.02.05-.07-.02-.03-.06-.07-.11-.03-.04.03-.09.06-.13.08-.02,0-.04.04-.06,0,.03-.05.09-.07.14-.11.05-.03.03-.06,0-.09,0,0,.02-.02.03-.03.15.15.34.24.52.34.12.07.23.15.32.26.13.17.14.39,0,.55,0-.01-.01-.02-.02-.03.07-.1.09-.21.06-.33-.03-.15-.14-.22-.24-.31-.05-.04-.1-.05-.16-.03-.1.05-.21.08-.31.12,0-.01,0-.03,0-.04.1-.05.2-.09.31-.14-.07-.08-.14-.08-.21-.04-.13.06-.26.11-.39.16Z"/>
          <path class="cls-25" d="M125.63,27.73c.22-.03.32.02.4.23.11.27.27.5.54.58.03,0,.07.02.05.07-.05.11-.02.22,0,.33.02.16-.02.21-.16.18-.22-.05-.41-.02-.57.17-.01,0-.03,0-.04,0,.01-.02.03-.05.04-.07.16-.19.37-.19.57-.15.09.02.1-.01.1-.1,0-.11-.05-.23,0-.34.02-.05-.03-.05-.06-.05-.24-.09-.4-.28-.49-.53-.07-.21-.19-.29-.38-.27,0-.01,0-.03,0-.04Z"/>
          <path class="cls-26" d="M126.19,27.86c.08.32.32.47.56.62-.32-.02-.54-.26-.56-.62Z"/>
          <path class="cls-17" d="M127.17,27.04c-.15.13-.31.13-.48.07-.1-.03-.2-.08-.3-.15,0-.01,0-.03,0-.04.07.03.15.07.22.1.18.08.36.09.53-.02,0,.01.01.02.02.03Z"/>
          <path class="cls-18" d="M124.78,27.02h.05s.01,0,.01,0h.01s0,0,0,0c.06.15.04.17-.12.17-.04,0-.07,0-.11,0,0-.02,0-.03,0-.05.03,0,.07-.01.1,0,.11.01.11-.03.05-.11Z"/>
          <path class="cls-7" d="M126.07,27.71c-.07-.06-.14-.08-.23-.08.11-.1.18-.08.23.08Z"/>
          <path class="cls-17" d="M126.32,25.62c-.03-.1-.02-.19.03-.28,0,.01.02.02.03.03,0,.03-.03.08.03.06.03.07-.09.1-.05.18-.01,0-.03,0-.04,0Z"/>
          <path class="cls-25" d="M126.89,26.13s.04,0,.07,0c.04.02.08.04.12.06,0,.02-.02.03-.03.05-.05-.04-.11-.07-.16-.11Z"/>
          <path class="cls-26" d="M126.4,26.93s0,.03,0,.04c-.04-.02-.07-.03-.11-.05,0-.01.02-.02.03-.04.03.01.06.03.09.04Z"/>
          <path class="cls-25" d="M126.32,25.62s.03,0,.04,0c0,.02,0,.03.01.05,0,.02,0,.05,0,.07-.03-.03-.05-.07-.05-.12Z"/>
          <path class="cls-25" d="M127.64,25s.07-.04.1,0c-.03,0-.07,0-.1,0Z"/>
          <path class="cls-25" d="M127.33,25.03s.05-.03.07,0c-.02,0-.05,0-.07,0Z"/>
          <path class="cls-25" d="M127.36,25.65s-.05.03-.07,0c.02,0,.05,0,.07,0Z"/>
          <path class="cls-7" d="M125.63,27.73s0,.03,0,.04c0,0-.02.01-.03.02,0,0-.02-.02-.03-.03.01-.02.03-.03.05-.04Z"/>
          <path class="cls-25" d="M127.35,25.17s-.05,0-.06-.02c.02,0,.05,0,.06.02Z"/>
          <path class="cls-7" d="M124.36,28.16s-.02-.02-.03-.04c.02-.02.04,0,.05.01,0,0-.01.02-.02.02Z"/>
          <path class="cls-7" d="M124.22,28.22s-.02,0-.02-.02c0,0,0,0,0-.01,0,.01,0,.02.01.03h0Z"/>
          <path class="cls-17" d="M126.35,25.35l.03-.05.03.03s-.02.03-.03.05c0-.01-.02-.02-.03-.03Z"/>
          <path class="cls-25" d="M126.6,25.17s-.02.01-.02,0c0,0,.02,0,.02,0Z"/>
          <path class="cls-17" d="M126.41,25.27s.02-.02.03-.03c0,.01.02.02.03.03,0,0-.02.02-.03.02,0,0-.02-.02-.03-.03Z"/>
          <path class="cls-17" d="M126.38,25.3s.02-.02.02-.03c0,0,.02.02.03.03,0,0-.02.02-.02.03,0,0-.02-.02-.03-.03Z"/>
          <path class="cls-25" d="M127.49,25.39s0-.03.01-.04c0,.01,0,.03-.01.04Z"/>
          <path class="cls-7" d="M124.22,28.22s.01.01.02.02c0,0,0,0,0,0,0,0,0-.02-.01-.03,0,0,0,0,0,0Z"/>
          <path class="cls-12" d="M124.27,26.6c.03.09.12.11.18.16.03.03.09.06.07.1-.02.05-.07.01-.11,0-.02,0-.05-.01-.08-.02.03.06.05.1.08.15.01.08-.01.1-.08.07-.06-.03-.09-.09-.13-.13-.02-.03-.05-.06-.07-.09-.02-.04-.04-.07-.07-.09,0,0-.01,0-.02,0,0,0,0,.01,0,.02,0,.04.03.07.06.1.02.03.04.06.07.1.03.07.07.15.04.24-.12,0-.14-.12-.22-.2.01.05.02.08.02.11,0,.06.03.14-.02.16-.05.02-.1-.05-.13-.11-.04-.08-.04-.17-.09-.24,0,0,0,0,0,0,0,0,0,0,0,0-.02.11.06.21.02.33,0,.03-.01.06-.04.07-.03,0-.04-.02-.06-.04-.03-.04-.03-.11-.09-.13,0,.05-.01.09-.02.12,0,.04-.02.08-.06.08-.03,0-.04-.04-.06-.07-.03-.07-.02-.14-.04-.22-.04.07-.02.15-.06.2-.02.03-.04.07-.08.06-.03,0-.04-.05-.05-.08-.03-.08,0-.17,0-.27-.06.05-.04.12-.07.17-.02.04-.05.07-.09.07-.05,0-.04-.06-.05-.1-.02-.09.04-.16.03-.25,0,0,0,0,0,0h0s-.03.06-.05.09c-.04.07-.07.19-.15.16-.07-.03,0-.14,0-.21.02-.04.04-.08.05-.11.02-.03.05-.06.03-.11-.02.03-.04.06-.05.09-.02.03-.04.07-.06.1-.02.02-.03.04-.05.06-.03.04-.07.09-.11.07-.06-.02-.01-.09-.02-.13.02-.03.05-.06.04-.11-.01,0-.03,0-.04,0-.04.03-.09.09-.13.04-.03-.04.03-.1.07-.14.05-.06.11-.1.15-.17,0-.01,0-.03,0-.04q-.16-.02-.01-.24s-.07,0-.11-.04c.07-.18.08-.4.25-.53.02-.01.03-.04.02-.06-.05-.1,0-.18.02-.27.02-.15.09-.11.16-.06.05.04.09.1.13.15.04-.05-.02-.13.05-.16,0,0,.02.01.03.02.01.04.03.08.07.11.02-.05.03-.1.05-.15.02-.03.05-.03.07,0,.01.05.03.1.04.15.05-.03.07-.08.09-.12.01-.02.03-.01.05,0,0,.05,0,.1.01.17.05-.06.09-.11.14-.16.02,0,.03-.02.05-.03.11-.06.1.05.13.1.02.08.05.16.02.24,0,.02-.01.05,0,.06.12.09.14.24.2.37.01.05.03.1.04.15-.11,0-.14.02-.05.12.1.11.08.16-.04.22.02.04.04.08.09.08h0ZM123.78,26.68s.02.01.02.02c.01.01.02.02.03.03.02-.02,0-.04-.01-.05,0,0-.02-.02-.02-.03,0,0-.02-.02-.02-.03-.02-.04-.07-.09.01-.1.11-.02.14-.1.17-.2.03-.1.03-.2-.03-.28,0-.02,0-.03,0-.05.09-.06.09-.13.02-.24,0,.09,0,.16-.05.21,0,0,0,0,0,0-.03,0-.07,0-.08.02-.01.03.03.04.05.06.1.22-.03.44-.26.45-.05,0-.12.01-.14-.06-.01-.07.06-.09.1-.1.11-.03.08-.1.04-.15-.08-.09-.09-.19-.05-.29.05-.11.15-.07.25-.07-.11-.08-.2-.08-.28,0-.06.07-.07.25-.02.34.02.03.09.06.05.09-.05.04-.1.11-.18.06-.03-.02-.07-.05-.11-.08.11-.07.12-.18.1-.3-.04-.18-.18-.24-.3-.12.06,0,.13-.04.18.05-.05.03-.09-.02-.12.03-.01.02,0,.05.02.06.04.04.09.06.13,0,0,0,.02-.01.03-.02,0,.08,0,.15-.05.22-.06.08-.09.15.04.18.03,0,.1.03.08.1-.02.06-.07.06-.12.05-.12,0-.22-.06-.28-.17-.07-.13-.04-.25.08-.35-.04,0-.06,0-.08-.01-.07-.04-.06-.12-.08-.2-.06.1-.05.17.03.21-.08.18.02.37,0,.57.08-.18.15.06.23,0,.03.08.03.16,0,.24.08-.04.08-.04.15.03.02.02.03.02.05,0,.06-.07.07-.02.09.04.01.04,0,.09.04.13,0-.03,0-.05,0-.07,0-.03,0-.06,0-.08.01-.09.05-.09.12.02.02-.07,0-.14.03-.2.03-.07.06-.02.09,0,0,0,.02.02.03.02ZM122.97,25.63c.04-.1.1-.09.18-.08,0-.13-.07-.19-.16-.23,0,.1-.08.19-.01.31ZM123.95,25.61c.04-.08.01-.14,0-.21-.01-.03,0-.09-.05-.07-.06.03-.12.08-.13.17,0,.07.05.03.07.03.05,0,.07.05.11.07ZM123.74,25.93s-.03-.04-.05-.04c-.05,0-.08.01-.1.06-.01.05.03.05.05.05.04,0,.08-.02.1-.07ZM123.11,26.57c-.05.04-.08.09-.07.18.04-.06.07-.11.07-.18ZM123.99,26.99s0-.01,0-.02c-.01,0-.02,0-.03.01,0,0,.01.01.02.02,0,0,.02,0,.02,0Z"/>
          <path class="cls-12" d="M122.28,25.52s-.01.02-.02.03c0,.02-.02.04-.03.06,0,.02-.02.04-.03.05,0,.02-.02.04-.02.06-.02.05-.03.09-.05.14-.08.25-.09.51-.1.77,0,.04.03.11-.05.1-.06,0-.07-.05-.07-.11,0-.3.05-.59.13-.88.07-.16.14-.32.22-.47-.12.12-.2.26-.25.43-.11.27-.14.55-.15.84,0,.04,0,.08,0,.13,0,.06-.06.06-.1.06-.05,0-.04-.03-.04-.06,0-.61.1-1.18.53-1.62.37-.38.81-.5,1.3-.41.03,0,.05.02.09.04-.09.02-.17.04-.24.06-.01.01-.02.02-.03.04-.43.03-.77.24-1.02.63-.01.02-.03.03-.04.05,0,.02-.02.03-.03.05ZM122.54,24.97s-.07.02-.04.06c.02.03.05-.02.07-.03,0-.01.02-.03.03-.04-.02-.02-.04,0-.05.01ZM122.27,25.27c.07-.07.14-.15.21-.22-.11.03-.17.11-.21.22Z"/>
          <path class="cls-12" d="M123.94,27.39c-.04.07,0,.15-.02.22-.01.04-.02.1-.06.12-.04.01-.07-.03-.09-.07-.03-.05-.06-.1-.1-.17,0,.09,0,.16-.01.22,0,.04-.01.1-.06.11-.04,0-.06-.05-.07-.09-.03-.07-.04-.14-.07-.22-.04.09-.04.18-.09.26-.04.06-.07.07-.1-.01-.03-.08-.01-.16-.03-.26-.04.06-.06.12-.1.17-.06.07-.1.07-.14-.02,0-.08,0-.16,0-.28-.06.08-.07.16-.12.21-.02.02-.05.05-.08.03-.02-.01-.03-.05-.03-.07,0-.08,0-.15.02-.22,0,0-.02,0-.02,0-.05.04-.08.15-.14.12-.07-.04,0-.13,0-.2,0-.03.04-.06,0-.08,0,0,0,0,0,0,.04.02.03-.03.05-.04.07-.05.14-.12.16.05,0,.06.04.05.07.03.03-.02.07-.04.1-.05.03.08.03.22.17.11.06-.04.06.03.07.06.04.08.08.13.15.04.05-.07.08-.03.11.02.04.08.09.07.12,0,.04-.07.06-.07.11-.01.04.05.08.06.11-.01.04-.13.09-.05.14-.01,0,.02,0,.03,0,.05Z"/>
          <path class="cls-7" d="M123.94,27.35s-.1-.12-.14.01c-.02.07-.07.06-.11.01-.05-.06-.07-.05-.11.01-.04.07-.08.08-.12,0-.03-.05-.06-.09-.11-.02-.07.08-.11.04-.15-.04-.01-.03-.01-.11-.07-.06-.14.11-.14-.03-.17-.11-.03.02-.07.03-.1.05-.04.02-.07.02-.07-.03-.01-.17-.08-.11-.16-.05-.01,0-.03,0-.04,0,0-.02,0-.04,0-.06,0,0,.01-.02.02-.03,0-.05-.02-.1.03-.14,0,.04-.04.11.02.13.05.02.08-.03.11-.07.02-.02.03-.04.05-.06,0,.01.02.02.03.03,0,.07-.07.18,0,.21.08.03.11-.09.15-.16.02-.03.03-.06.05-.09h0c.02.09-.05.16-.03.25,0,.04,0,.1.05.1.04,0,.07-.03.09-.07.03-.05.01-.12.07-.17,0,.09-.02.18,0,.27.01.03.02.07.05.08.04,0,.06-.03.08-.06.04-.06.03-.13.06-.2.02.08,0,.16.04.22.01.03.03.07.06.07.04,0,.05-.05.06-.08,0-.04.01-.08.02-.12.06.02.06.09.09.13.02.02.03.05.06.04.03,0,.03-.04.04-.07.04-.11-.04-.22-.02-.33h0c.05.07.05.16.09.24.03.06.07.13.13.11.05-.02.03-.11.02-.16,0-.03-.01-.06-.02-.11.08.07.11.2.22.2.03-.09-.01-.16-.04-.24,0-.01.02-.02.03-.03.04.04.07.1.13.13.07.03.09,0,.08-.07.01,0,.03,0,.04,0,.02.08.04.17-.08.14-.08-.02-.09,0-.09.08,0,.06-.04.08-.09.05-.07-.04-.12-.06-.14.06,0,.06-.05.05-.09.03Z"/>
          <path class="cls-24" d="M121.88,26.76c.15.05.31.08.47.07.03,0,.06.02.06.06,0,.04-.04.05-.06.05-.24-.03-.47.15-.71.01-.06-.03-.15,0-.22-.01-.03,0-.07-.02-.07-.05,0-.04.04-.06.07-.06.16,0,.32-.01.47-.07Z"/>
          <path class="cls-6" d="M122.61,27.05s0,.04,0,.06c0,.02-.03.03,0,.05,0,0,0,0,0,0-.03.06-.07.1-.14.07-.1-.05-.21-.08-.32-.12-.03,0-.05-.02-.04-.06,0-.03.03-.05.06-.04.16.02.3-.03.44-.14,0,.07,0,.11.01.16,0,0,0,.02,0,.03Z"/>
          <path class="cls-23" d="M122.96,27.69s.03.11.1.11c0,.03,0,.06-.02.09,0,0,0,0-.01,0-.04.05-.04.16-.12.16-.04,0-.04-.06-.05-.1-.02-.11-.06-.22.02-.32.06-.07.05.03.08.05Z"/>
          <path class="cls-23" d="M121.87,27.49s-.06,0-.08,0c-.04-.01-.1-.01-.1-.07,0-.07.06-.03.1-.04.07-.01.13-.02.2-.03.03,0,.06,0,.07.03.01.05-.02.07-.05.08-.05.02-.11.03-.14.03Z"/>
          <path class="cls-23" d="M121.84,27.64s-.06,0-.08,0c-.03,0-.07-.02-.07-.07,0-.06.05-.04.08-.03.08.02.15,0,.23-.02.02,0,.05-.02.07.01.01.04-.02.06-.04.07-.05.03-.11.03-.18.03Z"/>
          <path class="cls-23" d="M121.68,27.69c.12,0,.22.02.32-.01.02,0,.04,0,.05.02,0,.01-.01.03-.02.04-.07.07-.25.05-.34-.05Z"/>
          <path class="cls-18" d="M122.02,25.7c.05-.16.13-.31.25-.43-.08.15-.15.31-.22.47-.01-.01-.02-.03-.03-.04Z"/>
          <path class="cls-25" d="M122.61,27.05s0-.02,0-.03c0,0,.01,0,.02,0,0,0-.01.02-.02.03Z"/>
          <path class="cls-3" d="M123.16,29.43c.08-.05.12-.15.19-.22.04-.05.06-.13.14-.12.03.06.05.08.09,0,.02-.04,0-.15.09-.09,0,0,.01,0,.02-.02.06-.14.17-.24.25-.36.04-.07.15-.18.23-.2.22-.04.44-.06.65-.13.08-.03.07.09.14.09,0,0,0,0,0,0,0,.03,0,.04.03.03h0s0,.03.03.03h0s0,.03.03.03h0s.02.05.05.03h0s.02.05.05.03h0c0,.07.11.02.11.11v.03c-.03.07-.02.13,0,.2,0,.02,0,.04,0,.06,0,.05,0,.1,0,.16,0,0,0,0,0,0-.03,0-.05,0-.08,0-.03-.02-.06-.02-.1-.02-.08-.02-.15-.02-.23,0-.03,0-.05,0-.07.02-.01,0-.04,0-.04.03h0s-.04,0-.05.03h0s-.04,0-.03.03h0s-.04,0-.03.03h0s-.04,0-.03.03h0s-.04,0-.03.03h0s-.04,0-.02.03h0s-.02,0-.02.02c-.02.02-.03.04-.02.07,0,.04,0,.08-.06.08-.42,0-.84,0-1.26,0,0,0-.01,0-.02-.01Z"/>
          <path class="cls-24" d="M125.23,29.07s0,0,0,0c.09.02.05-.06.06-.09,0-.11-.04-.21-.02-.32,0,0,0,0,0-.01.03-.1,0-.13-.15-.12,0,0,0,0,0,0,0-.05-.02-.05-.05-.03,0,0,0,0,0,0,0-.02,0-.03-.01-.04-.02-.01-.03,0-.04.01,0,0,0,0,0,0,0-.01.02-.02,0-.03-.01-.01-.02,0-.03,0,0,0,0,0,0,0,0,0,.02-.02,0-.03,0,0-.02,0-.03,0,0,0,0,0,0,0,0,0,0-.02,0-.03,0,0-.02,0-.03,0,0,0,0,0,0,0,0,0,.02-.01.02-.02,0-.04-.09-.07-.02-.12.07-.05.07.05.11.07,0,0,.01,0,.02.01,0,0,.02,0,.03.01,0-.01,0-.02,0-.03,0-.03-.01-.06-.02-.09,0,0,0,0,.01-.01.02.01.04.03.07.04,0,0,.02,0,.02.01,0,0,0-.02-.01-.03.01-.02-.07-.11.04-.07,0,0,.02.02.03,0,.01-.14.14-.14.2-.22.05-.07.09-.06.11.04,0,.02,0,.08.05.05,0,0,0,0,0,0-.02.04-.02.06.03.06h0s0,.02,0,.03c0,.02.02,0,.02,0h0s-.02.02,0,.03c.01.02.02,0,.03,0h0s-.02.02,0,.03c.01.02.02,0,.03,0h0s-.02.02,0,.03c0,0,.02,0,.03,0h0s0,.03.03.03h0s.02.05.05.03h0c.02.06,0,.14.08.17,0,0,0,0,0,0,0,.02,0,.04,0,.05-.03.07.09.21-.08.22-.02,0-.01.03,0,.05.08.11.02.12-.07.11.01.07.08.11.07.18-.08,0-.2.19-.22.35h0c-.19.1-.41-.02-.59.1-.02.01-.04,0-.06.01-.07.01-.14.02-.18-.05-.04-.07.05-.11.07-.17-.08-.02-.1.04-.13.1-.02.04,0,.1-.07.08-.06-.02-.07-.06-.06-.12,0-.02.03-.05,0-.07,0,0,0,0,0,0,0,0,.01,0,.02,0v-.04s0,0,0,0c.03,0,.03,0,.03-.03,0,0,0,0,0,0,.02,0,.04,0,.03-.03,0,0,0,0,0,0,.01,0,.02,0,.03,0,0,0,0-.02,0-.02,0,0,0,0,0,0,0,0,.02,0,.03,0,.02,0,0-.02,0-.03,0,0,0,0,0,0,0,.02.02.03.04.01.02-.01.02-.02.01-.04,0,0,0,0,0,0,.16-.02.33-.01.49.02.04,0,.04,0,.02-.06ZM125.49,28.33s0,0,0-.01c0,0,0,0,0,0,0,.01,0,.01.02,0-.03.07.02.1.06.11.05.02.11.03.18-.05-.11.01-.18-.01-.24-.05ZM125.43,29.18c.14-.14.17-.25.11-.38-.05.12-.09.23-.11.38ZM125.68,28.6c-.08,0-.15-.03-.23-.07.06.14.12.15.23.07Z"/>
          <path class="cls-6" d="M125.86,29.28s-.01,0,0,.01c-.04.04,0,.13-.04.14-.07.02-.15,0-.22,0,0,0,0-.03-.01-.05,0,0,0,0,0,0,.07-.03.09-.11.11-.17.03-.09.07-.14.15-.08.03-.07-.04-.15,0-.18.1-.06.02-.18.09-.24,0-.09.02-.18-.02-.26,0-.02,0-.04-.02-.02,0,0,0,0,0,0,0-.07.01-.15-.08-.17,0,0,0,0,0,0,0-.04-.02-.05-.05-.03,0,0,0,0,0,0,.01-.03,0-.04-.03-.03,0,0,0,0,0,0,0-.03,0-.03-.03-.03,0,0,0,0,0,0,0-.02,0-.03-.03-.03,0,0,0,0,0,0,0-.02,0-.03-.03-.03,0,0,0,0,0,0,0-.02,0-.04-.02-.03,0,0,0,0,0,0,.02-.03,0-.05-.03-.06,0,0,0,0,0,0,0-.08-.08-.17.01-.25,0,0,.02-.01.03-.02.19-.02.31.06.38.27.09.25.25.44.49.53.02,0,.07,0,.06.05-.04.12,0,.23,0,.34,0,.09-.01.11-.1.1-.21-.05-.41-.05-.57.15-.02.02-.03.05-.04.07Z"/>
          <path class="cls-14" d="M125.69,26.34c.1.12.18.24.22.4,0,.04.03.08-.03.09-.32.08-.65.17-.98.12-.17-.02-.27-.15-.41-.22-.07-.04-.12-.14-.21-.13,0,0,0,0,0,0,.09-.1.1-.26.22-.34.12-.08.25-.14.39-.18.04,0,.08-.01.12-.02.04,0,.08,0,.13,0,.03,0,.06.01.1.02.02,0,.04,0,.06.01.01,0,.03.01.04.02.04.01.07.03.11.04.02.01.04.02.06.03.06.05.13.1.19.15Z"/>
          <path class="cls-12" d="M125,25.87s0-.07,0-.11c0-.04,0-.08,0-.11,0-.1,0-.2,0-.3,0-.21,0-.42,0-.63,0-.16,0-.16.15-.12,0,.12,0,.24,0,.36,0,.35-.02.71-.03,1.06-.03,0-.07,0-.1,0,0-.04,0-.09,0-.13Z"/>
          <path class="cls-12" d="M125.36,26.07c.16-.41.32-.83.48-1.24.02-.05.04-.08.1-.05.07.03.04.07.02.12-.17.4-.34.8-.51,1.2-.04.01-.07,0-.1-.02Z"/>
          <path class="cls-23" d="M125.23,26.04c-.06,0-.03-.07-.05-.1.02,0,.02-.02.02-.04.05-.22.09-.43.14-.65.01-.05,0-.12.09-.09.09.03.05.08.04.13-.01.06-.02.12-.03.18-.02.02-.02.05-.02.07-.02.09-.05.19-.07.28,0,0,0,.02,0,.03,0,.01,0,.03,0,.04-.03.02-.02.05-.03.07,0,.03-.02.05-.02.08-.02,0-.03,0-.05,0Z"/>
          <path class="cls-23" d="M125.89,25.58s.01-.02.02-.03c0-.01.01-.02.02-.04.01-.02.02-.03.03-.05.04-.08.08-.02.12,0,0,.02,0,.04,0,.05-.03.04-.08.06-.07.13h0s-.06,0-.03.05h0c-.07,0-.09.04-.07.11,0,0,0,0,0,0-.06-.03-.06.04-.08.07-.02.03-.04.06-.06.08,0,.01-.02.02-.02.04-.02.03-.04.05-.05.08-.05.03-.07.18-.16.06.12-.19.23-.37.35-.56Z"/>
          <path class="cls-26" d="M125.54,26.14c.1.12.11-.03.16-.06,0,0,0,0,.01.01,0,.02,0,.04.03.06,0,0,0,.01.01.02-.03.04-.1.07-.03.14,0,0-.02.02-.03.03-.06-.05-.13-.1-.19-.15.01-.01.03-.03.04-.04Z"/>
          <path class="cls-26" d="M125.01,26.01s.07,0,.1,0c.02.01.03.03.03.06-.04,0-.08,0-.13,0,0-.02,0-.04,0-.06Z"/>
          <path class="cls-26" d="M125.36,26.07s.06.04.1.02c0,.02-.02.04-.02.06-.04-.01-.07-.03-.11-.04.01-.01.02-.03.03-.04Z"/>
          <path class="cls-26" d="M125.23,26.04s.03,0,.05,0c0,.02,0,.04,0,.06-.02,0-.04,0-.06-.01,0-.01,0-.03,0-.04Z"/>
          <path class="cls-8" d="M125.18,25.77s0,.02-.01.03c0-.01-.01-.02,0-.03,0,0,0-.02.01-.03,0,0,0,.02,0,.03Z"/>
          <path class="cls-26" d="M125.31,25.96s0-.06.03-.07c0,.03,0,.06-.03.07Z"/>
          <path class="cls-8" d="M125.64,25.88s-.02.01-.03.01c0,0-.02-.01,0-.03,0,0,.02,0,.03-.01,0,0,0,.01,0,.02Z"/>
          <path class="cls-26" d="M125.41,25.54s0-.05.02-.07c0,.03,0,.05-.02.07Z"/>
          <path class="cls-8" d="M125.44,25.64s.02,0,.02.01c0,.01,0,.03-.01.03,0,0-.01,0-.02-.01,0,0,0-.02.01-.03Z"/>
          <path class="cls-26" d="M125.2,25.9s0,.04-.02.04c0-.01.01-.03.02-.04Z"/>
          <path class="cls-26" d="M125.33,25.84s0-.02,0-.03c0,0,0,.01,0,.02,0,0,0,0,0,0Z"/>
          <path class="cls-23" d="M124.49,25.4s0,.03.01.04c.02.05.04.09.05.14.01.03.02.05.03.08,0,.02.01.04.02.06,0,0,0,0,0,0,0,.02.01.03.02.05,0,0,0,0,0,0,.01.03.02.05.03.08,0,.02.02.04.02.06,0,.02.01.04.02.06,0,.04.05.09,0,.12-.07.03-.07-.04-.09-.08-.01-.02-.03-.05-.04-.07-.15-.35-.29-.69-.44-1.04-.02-.04-.06-.08,0-.12.06-.04.09-.04.12.04.07.19.15.38.23.57Z"/>
          <path class="cls-26" d="M124.58,25.94s.02.05.04.07c.02.04.02.11.09.08.06-.03.01-.08,0-.12,0,0,0,0,.01-.01.03.01.05.02.05-.03,0,0,0,0,.01-.01.03.04,0,.13.09.13,0,.01,0,.03,0,.04-.14.04-.26.1-.39.18-.12.08-.14.24-.22.34-.05,0-.07-.04-.09-.08.12-.06.14-.11.04-.22-.08-.1-.06-.12.05-.12-.02-.06-.03-.1-.04-.15,0,0,0,0,.01-.01.05.07.08.04.08-.03.03.05.06.09.1.14.03.03.04.11.1.06.05-.04-.02-.08-.02-.12.05-.02.06-.06.06-.11Z"/>
          <path class="cls-23" d="M124.52,26.05s.07.07.02.12c-.06.05-.08-.02-.1-.06-.04-.04-.07-.09-.1-.14h0s-.02-.02-.03-.03h0s0-.03-.03-.03h0c-.05-.1-.11-.19-.17-.27-.05-.07-.03-.16.02-.2.01.02.02.03.03.05.1.18.21.36.33.52,0,.01.02.02.03.03h0Z"/>
          <path class="cls-8" d="M124.5,25.89s.03.05,0,.08c0-.02-.02-.04-.03-.06,0,0,.01-.01.02-.02Z"/>
          <path class="cls-8" d="M124.48,25.91s-.03-.03,0-.05c.02,0,.02.01.03.03,0,0-.01.01-.02.02Z"/>
          <path class="cls-26" d="M124.52,26.05s-.02-.02-.03-.03c0,.01.02.02.03.03Z"/>
          <path class="cls-23" d="M125.72,26.31c-.07-.07,0-.1.03-.14.04-.04.08-.08.12-.13.03-.03.07-.04.07-.09h0s.03,0,.03-.03h0s.03,0,.03-.03h0s.04,0,.03-.03h0c.06.03.07-.04.1-.06.03-.01.04-.08.08-.05.03.02.04.07.02.11-.01.02-.01.03,0,.04,0,0,0,0,0,0,0,0-.01-.02-.03,0-.02.02,0,.02,0,.03h0s-.05,0-.05.03h0s-.04,0-.03.03h0c-.07.02-.12.05-.13.14h0s-.01-.02-.03,0c-.02.02,0,.02,0,.03,0,0,0,0,0,0-.02-.04-.04,0-.05,0,0,.01-.02.03-.03.04h0s-.02.01-.03.02h0c-.05.01-.07.09-.13.08Z"/>
          <path class="cls-6" d="M126.1,25.58s.05-.06.05-.04c.02.05.04.11,0,.16-.04.06-.11.09-.14.17,0,0,0,0,0,0-.03-.01-.04,0-.03.03,0,0,0,0,0,0-.03-.01-.04,0-.03.03,0,0,0,0,0,0-.03-.01-.04,0-.03.03,0,0,0,0,0,0-.03-.04-.07.04-.1-.02.04-.03.07-.06.08-.11,0,0,0,0,0,0,.04-.02.07-.06.07-.11,0,0,0,0,0,0,.03,0,.05-.02.03-.05,0,0,0,0,0,0,.06.01.05-.05.08-.08Z"/>
          <path class="cls-6" d="M126.3,25.92s.05.06,0,.09c-.05.03-.1.05-.14.11h0c-.05,0-.1.03-.12.09h0s-.1.05-.07-.05c0,0,0,0,0,0,.02,0,.03,0,.03-.03,0,0,0,0,0,0,.06-.03.11-.06.13-.14,0,0,0,0,0,0,.03.01.04,0,.03-.03,0,0,0,0,0,0,.03.02.04,0,.05-.03,0,0,0,0,0,0,.02,0,.03,0,.03-.03,0,0,0,0,0,0,.03,0,.06-.02.08.01Z"/>
          <path class="cls-25" d="M126.1,25.58s-.02.09-.08.08c-.01-.07.04-.09.07-.13,0,.02,0,.03,0,.05Z"/>
          <path class="cls-25" d="M125,25.34c0,.1,0,.2,0,.3-.03-.1-.03-.2,0-.3Z"/>
          <path class="cls-15" d="M124.33,25.98c0,.07-.03.1-.08.03,0-.04,0-.07.03-.1,0,0,0,0,0,0,0,.02,0,.03.03.03,0,0,0,0,0,0,0,.01.02.02.03.03h0Z"/>
          <path class="cls-23" d="M126.38,25.67s0-.03-.01-.05c-.04-.08.08-.1.05-.18,0,0,0,0,0,0,.02,0,.04,0,.03-.03h0s.04,0,.03-.03h0s.04,0,.03-.03h0s.02,0,.03,0c0,0,0-.02,0-.02h0s.02,0,.03,0c0,0,0-.02,0-.03h0s.11-.08.15.02c.02.04.01.06,0,.08,0,0-.02.02-.03.02,0,0-.02.02-.03.03,0,0-.02.02-.03.03,0,0-.02.02-.02.03-.03.03-.06.06-.1.09,0,0-.02.02-.03.03,0,0-.02.02-.03.02-.02.01-.04.02-.06.01Z"/>
          <path class="cls-6" d="M126.41,25.33s.02-.02.02-.03c0,0,.02-.02.03-.02.03-.02.06-.03.11-.06-.02.04-.03.07-.04.09,0,0,0,0,0,0-.02,0-.03,0-.03.03,0,0,0,0,0,0-.03,0-.04,0-.03.03,0,0,0,0,0,0-.03-.01-.04,0-.03.03,0,0,0,0,0,0-.03-.01-.04,0-.03.03,0,0,0,0,0,0-.03-.01-.04,0-.03.03,0,0,0,0,0,0-.07.01-.04-.03-.03-.06.01-.02.02-.03.03-.05Z"/>
          <path class="cls-12" d="M124.88,26.04c-.08,0-.06-.08-.09-.13,0-.04-.02-.07-.03-.11,0-.04,0-.08-.03-.11,0,0,0,0,0,0,0-.03,0-.07-.03-.09,0,0,0,0,0,0,0-.04-.02-.07-.03-.11,0-.03-.02-.07-.02-.1.01-.08-.08-.15,0-.24.06-.02.1-.01.11.07.02.13.06.26.09.4,0,.02,0,.05.01.07,0,.02.01.03.02.05,0,.02,0,.04,0,.07,0,.02.01.03.02.05-.02.06.05.13-.02.18Z"/>
          <path class="cls-23" d="M127.08,26.18s-.08-.04-.12-.06c0-.01,0-.03,0-.04.02,0,.05-.02.07-.03.04-.02.09-.04.11.03.03.08-.03.08-.07.1Z"/>
          <path class="cls-25" d="M124.9,25.86s-.01-.03-.02-.05c0,.02.01.03.02.05Z"/>
          <path class="cls-25" d="M124.87,25.75s-.01-.03-.02-.05c0,.02.01.03.02.05Z"/>
          <path class="cls-26" d="M124.73,25.7s.02.07.03.11c0,0,0,0-.01.01-.03,0-.06,0-.07.03h0s-.02-.04-.03-.07c.04-.01.1.01.09-.07Z"/>
          <path class="cls-26" d="M124.64,25.77s-.01-.03-.02-.05c.01,0,.03,0,.04,0,0,.01-.01.03-.02.04Z"/>
          <path class="cls-26" d="M124.71,25.61s.02.06.03.09c-.04-.02-.03-.05-.03-.09Z"/>
          <path class="cls-23" d="M124.14,27.69c.04-.06.05-.13.06-.2.03-.02.05,0,.07.02.08.04.13.03.14-.07,0-.03,0-.08.04-.08.04,0,.06.04.07.07,0,.01,0,.03.01.04.02.07.04.16,0,.21-.04.05-.1-.04-.15-.03-.02.05,0,.11,0,.16,0,.03.01.08-.03.1-.04.02-.07-.02-.09-.06-.02-.04-.05-.09-.07-.13-.02,0-.04-.02-.05-.03ZM124.36,27.61s0,0,0,0c0,0,0,0,0,.01,0,0,0,0,0,0,0,0,0,0,0,0Z"/>
          <path class="cls-23" d="M123.94,27.35s.08.02.09-.03c.02-.12.07-.1.14-.06.05.03.08.01.09-.05,0-.07.01-.1.09-.08.12.03.11-.06.08-.14.05-.06.2-.09.24-.06.03.03.06.06.09.09.06.08.06.13-.05.11-.03,0-.07,0-.1,0,0,0,0,0,0,0,0,0,0-.02,0-.03,0,0,0,.02,0,.03,0,.01-.02.02-.02.03q-.03.18-.18.09s-.02,0-.04-.01c0,.08.04.19-.03.23-.07.04-.12-.07-.19-.13,0,.06,0,.11,0,.16,0,.04.01.11-.04.12-.04,0-.08-.03-.1-.07-.03-.05-.04-.1-.07-.15,0-.02,0-.03,0-.05Z"/>
          <path class="cls-18" d="M124.61,27.13s0-.02,0-.03c0,0,0,.02,0,.03h-.01Z"/>
          <path class="cls-24" d="M125.07,28.23s0-.01,0-.02c0,0,.01,0,.02,0,0,0,0,0-.01.01Z"/>
          <path class="cls-6" d="M126.4,26.93s-.06-.03-.09-.04c-.01,0-.02,0-.04-.01-.01-.01-.03-.03-.02-.05.01,0,.03,0,.04,0,0,0,.02,0,.03,0,.04,0,.08-.02.13-.03h.05s.07-.02.11-.03c.02,0,.03,0,.05-.01h.06s.07,0,.09-.03c.05,0,.04-.03.03-.06,0-.02,0-.03,0-.05,0-.09-.03-.14-.11-.09-.02,0-.03,0-.05.01-.06.01-.12.03-.18.04-.02,0-.03,0-.05.01-.02,0-.04,0-.06.01-.02,0-.05,0-.07.02-.01,0-.02,0-.03,0-.02,0-.03,0-.05,0-.02,0-.05,0-.07-.01,0,0,0-.01,0-.02.04-.01.08,0,.1-.05h0s.06,0,.08-.03h0c.07.01.12-.03.17-.06.1-.04.21-.07.31-.12.06-.03.11-.02.16.03.1.09.21.16.24.31.03.12,0,.23-.06.33-.17.12-.35.11-.53.02-.07-.03-.15-.07-.22-.1Z"/>
          <path class="cls-23" d="M126.21,26.41c.13-.05.26-.1.39-.16.08-.04.14-.04.21.04-.11.05-.21.09-.31.14-.06.03-.14.01-.17.1,0,0,0,0,0,0-.04-.04-.06-.02-.08.03,0,0,0,0,0,0-.06-.03-.11.01-.16.04h0s-.05.02-.08.03h0s-.08.03-.09-.03c-.01-.06.04-.05.06-.07.03-.02.07-.02.08-.06h0c.06.01.1-.02.15-.05Z"/>
          <path class="cls-23" d="M126.29,26.78c-.07.01-.14.03-.21.04-.04,0-.09.03-.1-.03-.01-.06.05-.04.08-.06.03-.02.06-.02.1-.03,0,0,0,0,0,0,.04,0,.08-.02.12-.03h0c.13-.03.27-.06.4-.09.04,0,.08-.04.1.03.02.07-.03.08-.07.1,0,0,0,0,0,0-.14.02-.28.04-.41.08h0Z"/>
          <path class="cls-23" d="M126.16,26.12s.04.01.06,0c.04-.03.09-.05.13-.08.05-.03.09,0,.11.03.03.05-.03.05-.05.07-.07.05-.14.09-.22.14-.01,0-.04,0-.02.04h0c-.09-.02-.14.07-.22.1-.04.01-.08.08-.12.02-.04-.07.05-.07.07-.1,0,0,0,0,0,0,.02-.01.04-.02.05-.03.03-.02.09-.02.09-.09,0,0,0,0,0,0,.07.02.11-.01.12-.08h0Z"/>
          <path class="cls-17" d="M126.04,26.21c0,.07-.05.07-.09.09-.03,0-.07-.04-.05.03,0,0,0,0,0,0-.03-.03-.03-.07-.05-.1,0,0,0,0,0,0,0-.01.02-.02.03-.03,0,0,0,0,0,0,0-.01.02-.03.03-.04.02-.02.03-.05.05,0-.03.1.05.03.07.05Z"/>
          <path class="cls-17" d="M126.15,26.6s0,.01,0,.02c0,.02,0,.05,0,.07,0,0,0,0,0,0-.07,0-.07-.05-.07-.11,0,0,0,0,0,0,.02,0,.04,0,.06.01Z"/>
          <path class="cls-17" d="M126.25,26.83s0,.04.02.05c-.02,0-.05,0-.06-.02,0-.03.02-.03.04-.03Z"/>
          <path class="cls-17" d="M125.98,26.68s0,.02,0,.02c0,0-.01,0-.02,0,0,0,0-.02,0-.02,0,0,.01,0,.02,0Z"/>
          <path class="cls-6" d="M126.19,26.32s.03,0,.05,0c0,0,.01.02.02.02-.03,0-.06,0-.09,0,0,0,0-.01,0-.02,0,0,0,0,0,0s.01,0,.01,0h.01Z"/>
          <path class="cls-17" d="M126.06,26.46s-.02,0-.04,0c0,0,0,0,0-.01.01,0,.02.01.03.02,0,0,0,0,0,0Z"/>
          <path class="cls-17" d="M126.32,26.82s-.02,0-.03,0c0-.01,0-.03,0-.04,0,0,0,0,0,0,0,.01.02.02.03.03Z"/>
          <path class="cls-13" d="M124.85,27.02h-.01s-.01,0-.01,0c0,0,.01-.01.02-.02,0,0,0,.01,0,.02Z"/>
          <path class="cls-17" d="M126.01,26.62s0,0,.01.01c0,0-.01,0-.02-.01,0,0,0,0,0,0Z"/>
          <path class="cls-6" d="M126.24,26.31c.09-.05.17-.11.26-.17.05-.03.08-.02.12.03-.13.05-.24.11-.36.16,0,0-.01-.02-.02-.02Z"/>
          <path class="cls-26" d="M126.32,26.52c.03-.09.11-.06.17-.1,0,.01,0,.03,0,.04-.06.03-.11.07-.17.06Z"/>
          <path class="cls-26" d="M126.19,26.32h-.01s-.01,0-.01,0c-.02-.03,0-.03.02-.04,0,.01,0,.02,0,.04Z"/>
          <path class="cls-26" d="M123.75,26.65s-.05-.06-.09,0c-.03.07-.01.14-.03.2-.07-.11-.11-.11-.12-.02,0,.03,0,.06,0,.08,0,.02,0,.05,0,.07-.04-.04-.03-.09-.04-.13-.02-.06-.03-.11-.09-.04-.02.02-.03.02-.05,0-.07-.07-.07-.07-.15-.03.03-.09.03-.16,0-.24-.09.06-.15-.18-.23,0,0-.2-.09-.39,0-.57.02,0,.03,0,.05-.01.02,0,.04,0,.08.01-.12.1-.15.22-.08.35.06.12.16.17.28.17.05,0,.1,0,.12-.05.02-.07-.05-.09-.08-.1-.13-.04-.1-.1-.04-.18.05-.06.06-.14.05-.22.02,0,.04,0,.05,0,.01.12,0,.22-.1.3.04.03.08.06.11.08.08.05.13-.02.18-.06.04-.03-.03-.06-.05-.09-.05-.09-.05-.27.02-.34.08-.08.17-.09.28,0-.1,0-.21-.04-.25.07-.04.1-.03.2.05.29.04.05.07.12-.04.15-.04.01-.11.03-.1.1.01.07.08.07.14.06.23-.01.36-.24.26-.45,0,0,.01-.01.02-.02,0,0,.02,0,.02,0,.07.09.06.19.03.28-.03.09-.06.18-.17.2-.09.01-.04.06-.01.1l-.02.03ZM123.44,26.73s.06,0,.08-.01c.05-.01.1-.04.1-.11,0-.07-.07-.03-.1-.05-.06-.03-.11-.02-.17,0-.03.01-.09-.01-.09.05,0,.06.04.09.09.1.03.01.07.01.09.02Z"/>
          <path class="cls-7" d="M123.38,25.96s-.04,0-.05,0c-.01,0-.02,0-.03.02-.05.05-.09.03-.13,0-.01-.01-.03-.03-.02-.06.03-.05.08,0,.12-.03-.05-.09-.12-.04-.18-.05.12-.12.25-.06.3.12Z"/>
          <path class="cls-26" d="M122.97,25.63c-.07-.12.01-.2.01-.31.1.04.16.1.16.23-.07-.01-.14-.02-.18.08Z"/>
          <path class="cls-26" d="M123.95,25.61s-.06-.08-.11-.07c-.03,0-.07.04-.07-.03,0-.09.06-.14.13-.17.05-.02.04.04.05.07.02.06.04.13,0,.21Z"/>
          <path class="cls-26" d="M123.74,25.93s-.05.07-.1.07c-.03,0-.07,0-.05-.05.01-.05.05-.07.1-.06.02,0,.05,0,.05.04Z"/>
          <path class="cls-18" d="M123.9,25.97c.05-.05.05-.12.05-.21.08.11.08.18-.02.24,0,0-.02-.02-.03-.02Z"/>
          <path class="cls-18" d="M122.99,25.98s-.03,0-.05.01c-.08-.05-.09-.11-.03-.21.02.09,0,.17.08.2Z"/>
          <path class="cls-18" d="M123.11,26.57c0,.07-.03.12-.07.18-.01-.09.02-.14.07-.18Z"/>
          <path class="cls-18" d="M122.86,26.92s-.02-.02-.03-.03c.02-.03.04-.07.06-.1,0,0,.02.02.02.02-.02.04-.04.08-.05.11Z"/>
          <path class="cls-18" d="M124.1,26.87s-.05-.06-.06-.1c0,0,0,0,.01-.01.03.02.06.05.07.09,0,0-.02.02-.02.03Z"/>
          <path class="cls-18" d="M124.19,26.94s-.02.02-.03.03c-.02-.03-.04-.06-.07-.1,0,0,.02-.02.02-.03.02.03.05.06.07.09Z"/>
          <path class="cls-18" d="M122.89,26.78s.03-.06.05-.09c.02.06-.01.08-.03.11,0,0-.02-.02-.02-.02Z"/>
          <path class="cls-26" d="M123.87,26.06s-.06-.03-.05-.06c0-.02.05-.02.08-.02,0,.02,0,.05,0,.07,0,0-.01.01-.02.02Z"/>
          <path class="cls-7" d="M123.99,26.99s0,.02-.02,0c0,0-.01-.01-.02-.02.01,0,.02,0,.03-.01,0,0,0,.02,0,.02Z"/>
          <path class="cls-18" d="M123.89,26.04s0-.05,0-.07c0,0,0,0,0,0,0,0,.02.02.03.02,0,.02,0,.03,0,.05,0,0-.02,0-.02,0Z"/>
          <path class="cls-26" d="M123.82,26.68s.03.03.01.05c-.01-.01-.02-.02-.03-.03,0,0,.01-.01.02-.02Z"/>
          <polygon class="cls-7" points="123.05 26.88 123.06 26.88 123.05 26.88 123.05 26.88"/>
          <polygon class="cls-7" points="123.77 26.93 123.76 26.93 123.76 26.94 123.77 26.93"/>
          <path class="cls-26" d="M123.78,26.68s-.02-.02-.03-.02c0-.01.01-.02.02-.03,0,0,.02.02.02.03,0,0-.01.02-.02.03Z"/>
          <path class="cls-26" d="M123.79,26.65s.02.02.02.03c0,0-.01.01-.02.02,0,0-.02-.01-.02-.02,0,0,.01-.02.02-.03Z"/>
          <path class="cls-18" d="M124.04,26.77s0-.01,0-.02c0,0,.01,0,.02,0,0,0,0,0-.01.01Z"/>
          <path class="cls-18" d="M122.27,25.27c.04-.11.11-.19.21-.22-.07.07-.14.15-.21.22Z"/>
          <path class="cls-18" d="M122.57,24.99s-.05.06-.07.03c-.02-.03.02-.05.04-.06l.03.03Z"/>
          <path class="cls-18" d="M122.54,24.97s.03-.03.05-.01c0,.01-.02.03-.03.04,0,0-.02-.02-.03-.03Z"/>
          <path class="cls-15" d="M122.6,27.16s0-.04,0-.05c.01,0,.03,0,.04,0-.01.02,0,.06-.05.04Z"/>
          <path class="cls-7" d="M125.49,28.33c.07.04.14.07.24.05-.07.08-.13.07-.18.05-.04-.01-.09-.04-.06-.11h0Z"/>
          <path class="cls-7" d="M125.79,28.27c.09.02.07.1.08.17-.07-.03-.05-.11-.08-.17Z"/>
          <path class="cls-7" d="M125.59,28.05s.04.02.03.06c-.04,0-.05-.02-.03-.06Z"/>
          <path class="cls-7" d="M125.74,28.24s.05-.01.05.03c-.03.02-.05.01-.05-.03Z"/>
          <path class="cls-7" d="M125.62,28.11s.03,0,.02.03c0,0-.02.02-.02,0,0,0,0-.02,0-.03Z"/>
          <path class="cls-7" d="M125.64,28.14s.03,0,.03.03c0,0-.01.02-.03,0-.01-.02,0-.02,0-.03Z"/>
          <path class="cls-7" d="M125.67,28.16s.03,0,.03.03c0,0-.02.02-.03,0-.01-.02,0-.02,0-.03Z"/>
          <path class="cls-7" d="M125.69,28.19s.04,0,.03.03c0,0-.02,0-.03,0-.02,0,0-.02,0-.03Z"/>
          <path class="cls-7" d="M125.72,28.22s.04,0,.03.03c-.02,0-.04.01-.03-.03Z"/>
          <path class="cls-7" d="M125.16,28.24s0,.02.01.03c0,0-.02,0-.02-.01,0,0,0,0,.01-.01Z"/>
          <path class="cls-7" d="M125.49,28.33s-.01,0-.02,0c0,0,0,0,0,0,0,0,0,0,0,.01,0,0,0,0,0,0Z"/>
          <path class="cls-7" d="M125.09,28.32s0,.02,0,.03c0,0-.02,0-.03-.01,0,0,.01-.01.02-.02Z"/>
          <path class="cls-26" d="M125.87,26.04s-.08.08-.12.13c0,0,0-.01-.01-.02,0-.02,0-.04-.03-.06,0,0,0,0-.01-.01.02-.03.04-.05.05-.08.01,0,.02,0,.03,0,.02,0,.03,0,.05,0,.01.01.02.02.03.03Z"/>
          <path class="cls-17" d="M125.87,26.04s-.02-.02-.03-.03c-.01-.02-.03-.03-.05-.03,0,0,0,0-.01-.01.02-.03.04-.06.06-.08,0,.01,0,.03,0,.04.02.06.07-.02.1.02,0,.06-.04.07-.07.09Z"/>
          <path class="cls-25" d="M125.99,25.71c0,.05-.03.09-.07.11-.02-.07,0-.11.07-.11Z"/>
          <path class="cls-25" d="M125.84,25.93s0-.03,0-.04c.02-.03.02-.1.08-.07,0,.06-.04.08-.08.11Z"/>
          <path class="cls-25" d="M126.02,25.65s0,.05-.03.05c-.04-.05,0-.05.03-.05Z"/>
          <path class="cls-17" d="M125.79,26.01s-.02,0-.03,0c0-.01.02-.02.02-.04,0,0,0,0,.01.01,0,0,0,.02,0,.03Z"/>
          <path class="cls-25" d="M125.71,26.1s.03.03.03.06c-.02-.01-.02-.03-.03-.06Z"/>
          <path class="cls-26" d="M124.76,25.81s.02.07.03.11c0,0,0,0-.01.01-.02,0-.04,0-.05.03,0,0,0,0-.01.01,0-.02-.01-.04-.02-.06h0s.05-.05.05-.09c0,0,0,0,.01-.01Z"/>
          <path class="cls-26" d="M124.69,25.91s-.02-.04-.02-.06c0,0,0,0,0,0,.04,0,.04.03.02.06,0,0,0,0,0,0Z"/>
          <path class="cls-15" d="M124.73,25.96s.03-.03.05-.03c0,.05-.02.04-.05.03Z"/>
          <path class="cls-26" d="M124.33,25.98s-.02-.02-.03-.03c0,.01.02.02.03.03Z"/>
          <path class="cls-26" d="M124.31,25.95s-.03-.01-.03-.03c.02,0,.02.01.03.03Z"/>
          <path class="cls-17" d="M126.12,25.99c-.02.08-.07.11-.13.14,0-.09.06-.12.13-.14Z"/>
          <path class="cls-17" d="M126.2,25.93s-.02.06-.05.03c0-.04,0-.07.05-.03Z"/>
          <path class="cls-17" d="M125.99,25.9s0-.04.03-.03c.01.03,0,.04-.03.03Z"/>
          <path class="cls-17" d="M125.99,26.13s0,.03-.03.03c0-.01-.02-.02,0-.03.02-.02.02,0,.03,0Z"/>
          <path class="cls-17" d="M126.15,25.96s0,.04-.03.03c0-.03,0-.04.03-.03Z"/>
          <path class="cls-26" d="M125.91,26.17s-.02.03-.03.04c0-.01.02-.03.03-.04Z"/>
          <path class="cls-26" d="M125.89,26.2s-.02.02-.03.03c0-.01.02-.02.03-.03Z"/>
          <path class="cls-17" d="M125.94,25.95s0-.04.03-.03c0,.03,0,.04-.03.03Z"/>
          <path class="cls-17" d="M126.22,25.9s0,.03-.03.03c0-.01-.02-.02,0-.03.02-.02.02,0,.03,0Z"/>
          <path class="cls-17" d="M125.96,25.92s0-.04.03-.03c0,.03,0,.04-.03.03Z"/>
          <path class="cls-17" d="M126.17,26.12c-.02.07-.06.11-.12.08.03-.05.07-.08.12-.08Z"/>
          <path class="cls-17" d="M126.52,25.34s0-.04.03-.03c0,0,0,.02,0,.03,0,0-.02,0-.03,0Z"/>
          <path class="cls-17" d="M126.49,25.36s0-.04.03-.03c0,0,0,.02,0,.02-.01,0-.02,0-.03,0Z"/>
          <path class="cls-17" d="M126.47,25.39s0-.04.03-.03c.01.03,0,.04-.03.03Z"/>
          <path class="cls-17" d="M126.44,25.42s0-.04.03-.03c.01.03,0,.04-.03.03Z"/>
          <path class="cls-17" d="M126.42,25.45s0-.04.03-.03c.01.03,0,.04-.03.03Z"/>
          <path class="cls-15" d="M124.7,25.9s.02-.06-.02-.06c.02-.03.05-.03.07-.03,0,.04,0,.08-.05.08Z"/>
          <polygon class="cls-7" points="124.36 27.61 124.37 27.62 124.36 27.63 124.35 27.62 124.36 27.61"/>
          <path class="cls-26" d="M126.7,26.7s.09-.03.07-.1c-.02-.07-.07-.04-.1-.03-.13.03-.27.06-.4.09,0-.01,0-.02,0-.04.01,0,.02,0,.03,0,.03,0,.05,0,.07-.02.02,0,.04,0,.06-.01.02,0,.03,0,.05-.01.06-.01.12-.03.18-.04.02,0,.03,0,.05-.01.09-.05.11,0,.11.09,0,.02,0,.03,0,.05,0,.03.02.06-.03.06-.03,0-.06-.01-.09-.02Z"/>
          <path class="cls-26" d="M126.32,26.82s-.02-.02-.03-.03c.13-.04.27-.06.41-.08,0,.01,0,.03,0,.04-.02,0-.04,0-.06.01-.02,0-.03,0-.05.01-.04,0-.07.01-.11.02-.02,0-.03,0-.05,0-.04,0-.08.02-.13.03Z"/>
          <path class="cls-26" d="M126.15,26.6s-.04,0-.06-.01c.05-.03.1-.08.16-.04-.02.05-.06.04-.1.05Z"/>
          <path class="cls-26" d="M126.15,26.69s0-.05,0-.07c.02,0,.05,0,.07.01.02,0,.03.02.05.03-.04,0-.08.02-.12.03Z"/>
          <path class="cls-26" d="M126.25,26.55s.04-.07.08-.03c-.02.03-.04.05-.08.03Z"/>
          <path class="cls-17" d="M126.7,26.74s0-.03,0-.04c0,0,0,0,0,0,.03,0,.06.01.09.02-.03.03-.06.02-.09.02Z"/>
          <path class="cls-17" d="M126.37,26.6s-.04.03-.07.02c.02-.02.04-.02.07-.02Z"/>
          <path class="cls-17" d="M126.27,26.67s-.03-.02-.05-.03c.02,0,.03,0,.05,0,0,.01,0,.02,0,.04,0,0,0,0,0,0Z"/>
          <path class="cls-17" d="M126.45,26.79s.03,0,.05,0c-.02,0-.03,0-.05,0Z"/>
          <path class="cls-17" d="M126.7,26.52s-.03,0-.05.01c.02,0,.03,0,.05-.01Z"/>
          <path class="cls-17" d="M126.47,26.57s-.03,0-.05.01c.02,0,.03,0,.05-.01Z"/>
          <path class="cls-17" d="M126.82,26.66s0-.03,0-.05c0,.02,0,.03,0,.05Z"/>
          <path class="cls-17" d="M126.6,26.76s.03,0,.05-.01c-.01,0-.03,0-.05.01Z"/>
          <path class="cls-26" d="M125.9,26.33c-.01-.07.02-.04.05-.03-.02.01-.03.02-.05.03Z"/>
          <path class="cls-23" d="M123.44,26.73s-.06,0-.09-.02c-.05-.02-.09-.04-.09-.1,0-.06.06-.04.09-.05.05-.02.11-.04.17,0,.03.02.1-.01.1.05,0,.06-.05.09-.1.11-.02,0-.05,0-.08.01Z"/>
          <path class="cls-25" d="M125.79,26.01s0-.02,0-.03c.02,0,.04,0,.05.03-.02,0-.03,0-.05,0Z"/>
          <path class="cls-8" d="M127.56,25.56s-.01-.02-.03-.02h.01s.01.02.01.02Z"/>
        </g>
      </g>
    </g>
    <polygon class="cls-20" points="76.61 17.11 76.61 30.3 97.07 30.3 97.07 36.89 76.61 36.89 76.61 56.67 72.52 56.67 72.52 10.52 101.16 10.52 101.16 17.11 76.61 17.11"/>
    <polygon class="cls-20" points="76.61 74.36 76.61 85.67 97.07 85.67 97.07 91.32 76.61 91.32 76.61 108.27 72.52 108.27 72.52 68.71 101.16 68.71 101.16 74.36 76.61 74.36"/>
    <path class="cls-20" d="M137.58,17.05c-.76-1.98-1.75-3.56-2.96-4.75-1.22-1.19-2.56-1.78-4.03-1.78h-12.28c-1.53,0-2.91.61-4.15,1.85-1.24,1.23-2.23,2.85-2.95,4.84s-1.08,4.17-1.08,6.49v32.97h4.09v-13.19h20.46v13.19h4.09V23.7c-.03-2.46-.43-4.68-1.19-6.65ZM134.68,36.89h-20.46v-13.24c0-1.78.41-3.3,1.21-4.59.8-1.3,1.77-1.94,2.89-1.94h12.28c1.12,0,2.08.64,2.88,1.94.8,1.29,1.21,2.81,1.21,4.59v13.24Z"/>
    <path class="cls-20" d="M137.58,74.3c-.08-.19-.17-.37-.27-.55-.08-.17-.16-.33-.26-.49-.67-1.22-1.48-2.22-2.44-3.03-1.22-1.02-2.56-1.53-4.03-1.53h-12.28c-1.53,0-2.91.53-4.15,1.58-1.24,1.06-2.23,2.43-2.95,4.15s-1.08,3.57-1.08,5.57v28.25h4.09v-11.3h20.46v11.3h4.09v-28.25c-.03-2.11-.43-4.01-1.19-5.71ZM114.22,79.95c.01-1.52.42-2.83,1.21-3.92s1.77-1.67,2.89-1.67h12.28c1.12,0,2.08.56,2.88,1.67.8,1.09,1.2,2.4,1.21,3.92v11.37h-20.46v-11.37Z"/>
    <path class="cls-20" d="M177.6,56.67h-2.91l-8.18-13.19h-13.46v13.19h-4.09V10.52h20.46c1.45,0,2.79.59,4.03,1.78,1.24,1.19,2.24,2.77,3.01,4.75s1.15,4.2,1.15,6.66v6.59c0,2.81-.53,5.37-1.58,7.68-1.05,2.31-2.42,3.92-4.11,4.85l5.69,9.16v4.68ZM173.51,30.3v-6.59c0-1.8-.4-3.35-1.21-4.65-.8-1.3-1.77-1.95-2.88-1.95h-16.37v19.78h16.37c1.12,0,2.08-.65,2.88-1.95.8-1.3,1.21-2.85,1.21-4.65Z"/>
    <path class="cls-20" d="M215.61,43.48c0,2.33-.36,4.49-1.08,6.49-.72,2-1.71,3.62-2.95,4.85-1.24,1.23-2.63,1.85-4.15,1.85h-12.28c-1.47,0-2.82-.58-4.05-1.75-1.23-1.16-2.21-2.75-2.95-4.75-.74-2-1.13-4.23-1.19-6.69h4.09c0,1.8.4,3.35,1.21,4.65.8,1.3,1.77,1.95,2.89,1.95h12.28c1.12,0,2.08-.65,2.89-1.95.8-1.3,1.21-2.85,1.21-4.65s-.4-3.35-1.21-4.65c-.8-1.3-1.77-1.95-2.89-1.95h-12.28c-1.45,0-2.8-.58-4.05-1.75s-2.26-2.75-3.01-4.75-1.13-4.23-1.13-6.69c0-2.33.36-4.49,1.08-6.49.72-2,1.71-3.62,2.95-4.85,1.24-1.23,2.63-1.85,4.15-1.85h12.28c1.47,0,2.82.59,4.03,1.78,1.21,1.19,2.2,2.77,2.97,4.75s1.16,4.2,1.19,6.66h-4.09c0-1.8-.4-3.35-1.21-4.65-.8-1.3-1.77-1.95-2.89-1.95h-12.28c-1.12,0-2.08.65-2.89,1.95-.8,1.3-1.21,2.85-1.21,4.65s.4,3.35,1.21,4.65c.8,1.3,1.77,1.95,2.89,1.95h12.28c1.45,0,2.79.59,4.03,1.78,1.24,1.19,2.24,2.77,3.01,4.75.76,1.98,1.15,4.2,1.15,6.66Z"/>
    <rect class="cls-20" x="224.43" y="10.52" width="4.09" height="46.15"/>
    <polygon class="cls-20" points="155.55 68.71 155.55 85.67 189.47 85.67 189.47 68.71 192.97 68.71 192.97 108.27 189.47 108.27 189.47 91.32 155.55 91.32 155.55 108.27 152.04 108.27 152.04 68.71 155.55 68.71"/>
    <path class="cls-20" d="M229.45,108.27h-2.49l-7.01-11.3h-11.54v11.3h-3.51v-39.56h17.54c1.24,0,2.39.51,3.45,1.53,1.06,1.02,1.92,2.37,2.58,4.07.65,1.7.98,3.6.98,5.71v5.65c0,2.41-.45,4.61-1.35,6.58-.9,1.98-2.08,3.36-3.52,4.15l4.88,7.86v4.01ZM225.95,85.67v-5.65c0-1.54-.34-2.87-1.03-3.98-.69-1.11-1.51-1.67-2.47-1.67h-14.03v16.95h14.03c.96,0,1.78-.56,2.47-1.67.69-1.11,1.03-2.44,1.03-3.98Z"/>
    <g>
      <path class="cls-20" d="M22.56,118.13v1.37c0,.48-.1.93-.29,1.34-.2.41-.46.75-.8,1s-.71.38-1.12.38h-4.43v2.73h-1.11v-9.56h5.54c.4,0,.76.12,1.09.37.33.25.6.57.8.98.21.41.31.87.32,1.38ZM21.46,119.49v-1.37c0-.37-.11-.69-.33-.96-.22-.27-.48-.4-.78-.4h-4.43v4.1h4.43c.3,0,.56-.13.78-.4.22-.27.33-.59.33-.96Z"/>
      <polygon class="cls-20" points="25.76 116.76 25.76 119.49 30.52 119.49 30.52 120.86 25.76 120.86 25.76 123.59 31.47 123.59 31.47 124.95 24.81 124.95 24.81 115.4 31.47 115.4 31.47 116.76 25.76 116.76"/>
      <path class="cls-20" d="M39.62,124.95h-.68l-1.9-2.73h-3.13v2.73h-.95v-9.56h4.76c.34,0,.65.12.94.37.29.25.52.57.7.98.18.41.27.87.27,1.38v1.37c0,.58-.12,1.11-.37,1.59-.24.48-.56.81-.96,1l1.32,1.9v.97ZM38.66,119.49v-1.37c0-.37-.09-.69-.28-.96-.19-.27-.41-.4-.67-.4h-3.81v4.1h3.81c.26,0,.48-.13.67-.4.19-.27.28-.59.28-.96Z"/>
      <path class="cls-20" d="M47.76,122.22c0,.48-.08.93-.25,1.34-.17.41-.4.75-.68,1s-.61.38-.97.38h-2.85c-.34,0-.66-.12-.94-.36-.29-.24-.51-.57-.68-.98-.17-.41-.26-.88-.28-1.39h.95c0,.37.09.69.28.96.19.27.41.4.67.4h2.85c.26,0,.48-.13.67-.4.19-.27.28-.59.28-.96s-.09-.69-.28-.96c-.19-.27-.41-.4-.67-.4h-2.85c-.34,0-.65-.12-.94-.36-.29-.24-.52-.57-.7-.98-.17-.41-.26-.88-.26-1.39,0-.48.08-.93.25-1.34.17-.41.4-.75.68-1s.61-.38.97-.38h2.85c.34,0,.65.12.94.37.28.25.51.57.69.98.18.41.27.87.28,1.38h-.95c0-.37-.09-.69-.28-.96-.19-.27-.41-.4-.67-.4h-2.85c-.26,0-.48.13-.67.4-.19.27-.28.59-.28.96s.09.69.28.96c.19.27.41.4.67.4h2.85c.34,0,.65.12.94.37.29.25.52.57.7.98s.27.87.27,1.38Z"/>
      <rect class="cls-20" x="49.34" y="115.4" width=".95" height="9.56"/>
      <path class="cls-20" d="M58.62,118.13v6.83h-.95v-2.73h-4.76v2.73h-.95v-6.83c0-.48.08-.93.25-1.34.17-.41.4-.75.68-1,.29-.25.61-.38.97-.38h2.85c.34,0,.65.12.94.37.28.25.51.57.69.98.18.41.27.87.28,1.38ZM56.72,116.76h-2.85c-.26,0-.48.13-.67.4-.19.27-.28.59-.28.96v2.73h4.76v-2.73c0-.37-.09-.69-.28-.96-.19-.27-.41-.4-.67-.4Z"/>
      <polygon class="cls-20" points="66.96 115.4 66.96 124.95 66.01 124.95 61.25 117.61 61.25 124.95 60.3 124.95 60.3 115.4 61.25 115.4 66.01 122.63 66.01 115.4 66.96 115.4"/>
      <path class="cls-20" d="M79.82,118.13v4.1c0,.48-.08.93-.25,1.34-.17.41-.4.75-.68,1s-.61.38-.97.38h-4.76v-9.56h4.76c.34,0,.65.12.94.37.28.25.51.57.69.98.18.41.27.87.28,1.38ZM78.87,122.22v-4.1c0-.37-.09-.69-.28-.96-.19-.27-.41-.4-.67-.4h-3.81v6.83h3.81c.26,0,.48-.13.67-.4.19-.27.28-.59.28-.96Z"/>
      <path class="cls-20" d="M88.06,124.95h-.68l-1.9-2.73h-3.13v2.73h-.95v-9.56h4.76c.34,0,.65.12.94.37.29.25.52.57.7.98.18.41.27.87.27,1.38v1.37c0,.58-.12,1.11-.37,1.59-.24.48-.56.81-.96,1l1.32,1.9v.97ZM87.11,119.49v-1.37c0-.37-.09-.69-.28-.96-.19-.27-.41-.4-.67-.4h-3.81v4.1h3.81c.26,0,.48-.13.67-.4.19-.27.28-.59.28-.96Z"/>
      <rect class="cls-20" x="89.64" y="115.4" width=".95" height="9.56"/>
      <polygon class="cls-20" points="94.4 124.95 91.98 118.13 91.98 115.4 92.93 115.4 92.93 117.8 94.98 123.59 95.63 123.59 97.69 117.8 97.69 115.4 98.64 115.4 98.64 118.13 96.21 124.95 94.4 124.95"/>
      <rect class="cls-20" x="100.03" y="115.4" width=".95" height="9.56"/>
      <polygon class="cls-20" points="109.31 115.4 109.31 124.95 108.36 124.95 103.6 117.61 103.6 124.95 102.65 124.95 102.65 115.4 103.6 115.4 108.36 122.63 108.36 115.4 109.31 115.4"/>
      <path class="cls-20" d="M113.75,120.86v-1.37h3.81v2.73c0,.48-.08.93-.25,1.34-.17.41-.4.75-.68,1s-.61.38-.97.38h-2.85c-.34,0-.65-.12-.94-.36-.29-.24-.52-.57-.7-.98-.17-.41-.26-.88-.26-1.39v-4.1c0-.48.08-.93.25-1.34.17-.41.4-.75.68-1s.61-.38.97-.38h2.85c.34,0,.65.12.94.37.28.25.51.57.69.98.18.41.27.87.28,1.38h-.95c0-.37-.09-.69-.28-.96-.19-.27-.41-.4-.67-.4h-2.85c-.26,0-.48.13-.67.4-.19.27-.28.59-.28.96v4.1c0,.37.09.69.28.96.19.27.41.4.67.4h2.85c.26,0,.48-.13.67-.4.19-.27.28-.59.28-.96v-1.37h-2.85Z"/>
      <polygon class="cls-20" points="124.61 115.4 124.61 123.59 130.32 123.59 130.32 124.95 123.66 124.95 123.66 115.4 124.61 115.4"/>
      <rect class="cls-20" x="131.52" y="115.4" width=".95" height="9.56"/>
      <path class="cls-20" d="M135.95,115.4h2.85c.34,0,.65.12.94.37s.51.57.69.98c.18.41.27.87.28,1.38h-.95c0-.37-.09-.69-.28-.96-.19-.27-.41-.4-.67-.4h-2.85c-.26,0-.48.13-.67.4-.19.27-.28.59-.28.96v4.1c0,.37.09.69.28.96.19.27.41.4.67.4h2.85c.26,0,.48-.13.67-.4.19-.27.28-.59.28-.96h.95c0,.48-.08.93-.25,1.34-.17.41-.4.75-.68,1s-.61.38-.97.38h-2.85c-.34,0-.65-.12-.94-.36-.29-.24-.52-.57-.7-.98-.17-.41-.26-.88-.26-1.39v-4.1c0-.49.08-.94.25-1.35.17-.41.4-.74.68-.99s.61-.38.97-.39Z"/>
      <polygon class="cls-20" points="143.14 116.76 143.14 119.49 147.9 119.49 147.9 120.86 143.14 120.86 143.14 123.59 148.85 123.59 148.85 124.95 142.19 124.95 142.19 115.4 148.85 115.4 148.85 116.76 143.14 116.76"/>
      <polygon class="cls-20" points="156.99 115.4 156.99 124.95 156.04 124.95 151.29 117.61 151.29 124.95 150.33 124.95 150.33 115.4 151.29 115.4 156.04 122.63 156.04 115.4 156.99 115.4"/>
      <path class="cls-20" d="M165.23,122.22c0,.48-.08.93-.25,1.34-.17.41-.4.75-.68,1s-.61.38-.97.38h-2.85c-.34,0-.66-.12-.94-.36-.29-.24-.51-.57-.68-.98-.17-.41-.26-.88-.28-1.39h.95c0,.37.09.69.28.96.19.27.41.4.67.4h2.85c.26,0,.48-.13.67-.4.19-.27.28-.59.28-.96s-.09-.69-.28-.96c-.19-.27-.41-.4-.67-.4h-2.85c-.34,0-.65-.12-.94-.36-.29-.24-.52-.57-.7-.98-.17-.41-.26-.88-.26-1.39,0-.48.08-.93.25-1.34.17-.41.4-.75.68-1s.61-.38.97-.38h2.85c.34,0,.65.12.94.37.28.25.51.57.69.98.18.41.27.87.28,1.38h-.95c0-.37-.09-.69-.28-.96-.19-.27-.41-.4-.67-.4h-2.85c-.26,0-.48.13-.67.4-.19.27-.28.59-.28.96s.09.69.28.96c.19.27.41.4.67.4h2.85c.34,0,.65.12.94.37.29.25.52.57.7.98s.27.87.27,1.38Z"/>
      <polygon class="cls-20" points="167.76 116.76 167.76 119.49 172.52 119.49 172.52 120.86 167.76 120.86 167.76 123.59 173.47 123.59 173.47 124.95 166.81 124.95 166.81 115.4 173.47 115.4 173.47 116.76 167.76 116.76"/>
      <polygon class="cls-20" points="185.67 116.76 182.81 116.76 182.81 124.95 181.86 124.95 181.86 116.76 179.01 116.76 179.01 115.4 185.67 115.4 185.67 116.76"/>
      <path class="cls-20" d="M193.53,124.95h-.68l-1.9-2.73h-3.13v2.73h-.95v-9.56h4.76c.34,0,.65.12.94.37.29.25.52.57.7.98.18.41.27.87.27,1.38v1.37c0,.58-.12,1.11-.37,1.59-.24.48-.56.81-.96,1l1.32,1.9v.97ZM192.57,119.49v-1.37c0-.37-.09-.69-.28-.96-.19-.27-.41-.4-.67-.4h-3.81v4.1h3.81c.26,0,.48-.13.67-.4.19-.27.28-.59.28-.96Z"/>
      <path class="cls-20" d="M201.77,118.13v6.83h-.95v-2.73h-4.76v2.73h-.95v-6.83c0-.48.08-.93.25-1.34.17-.41.4-.75.68-1,.29-.25.61-.38.97-.38h2.85c.34,0,.65.12.94.37.28.25.51.57.69.98.18.41.27.87.28,1.38ZM199.86,116.76h-2.85c-.26,0-.48.13-.67.4-.19.27-.28.59-.28.96v2.73h4.76v-2.73c0-.37-.09-.69-.28-.96-.19-.27-.41-.4-.67-.4Z"/>
      <rect class="cls-20" x="203.44" y="115.4" width=".95" height="9.56"/>
      <polygon class="cls-20" points="212.72 115.4 212.72 124.95 211.77 124.95 207.02 117.61 207.02 124.95 206.07 124.95 206.07 115.4 207.02 115.4 211.77 122.63 211.77 115.4 212.72 115.4"/>
      <rect class="cls-20" x="214.4" y="115.4" width=".95" height="9.56"/>
      <polygon class="cls-20" points="223.68 115.4 223.68 124.95 222.73 124.95 217.98 117.61 217.98 124.95 217.02 124.95 217.02 115.4 217.98 115.4 222.73 122.63 222.73 115.4 223.68 115.4"/>
      <path class="cls-20" d="M228.12,120.86v-1.37h3.81v2.73c0,.48-.08.93-.25,1.34-.17.41-.4.75-.68,1s-.61.38-.97.38h-2.85c-.34,0-.65-.12-.94-.36-.29-.24-.52-.57-.7-.98-.17-.41-.26-.88-.26-1.39v-4.1c0-.48.08-.93.25-1.34.17-.41.4-.75.68-1s.61-.38.97-.38h2.85c.34,0,.65.12.94.37.28.25.51.57.69.98.18.41.27.87.28,1.38h-.95c0-.37-.09-.69-.28-.96-.19-.27-.41-.4-.67-.4h-2.85c-.26,0-.48.13-.67.4-.19.27-.28.59-.28.96v4.1c0,.37.09.69.28.96.19.27.41.4.67.4h2.85c.26,0,.48-.13.67-.4.19-.27.28-.59.28-.96v-1.37h-2.85Z"/>
    </g>
  </g>
</svg>