<?xml version="1.0" encoding="UTF-8"?>
<svg id="Layer_2" data-name="Layer 2" xmlns="http://www.w3.org/2000/svg" viewBox="0 0 132.67 132.67">
  <defs>
    <style>
      .cls-1 {
        fill: #00669d;
      }

      .cls-1, .cls-2, .cls-3, .cls-4, .cls-5, .cls-6, .cls-7 {
        stroke-width: 0px;
      }

      .cls-2 {
        fill: #4e4f51;
      }

      .cls-3 {
        fill: #3e3b39;
      }

      .cls-4 {
        fill: #fabd0b;
      }

      .cls-5 {
        fill: #fff;
      }

      .cls-6 {
        fill: #8fd123;
      }

      .cls-7 {
        fill: #ee2742;
      }
    </style>
  </defs>
  <g id="Layer_1-2" data-name="Layer 1">
    <rect class="cls-1" width="132.67" height="132.67" rx="12.07" ry="12.07"/>
    <path class="cls-5" d="M19.07,6.74h40.29v119.19H19.07c-5.93,0-10.75-4.82-10.75-10.75V17.49c0-5.93,4.82-10.75,10.75-10.75Z"/>
    <g>
      <path class="cls-2" d="M47.25,70.87v19.53h5.25c.57,0,1,.68.9,1.41-.51,3.84-.47,6.76-3.53,6.76-1.29,0-1.48,1.38-1.48,3.08v1.74c0,.75-.46,1.37-1.04,1.37h-.1v6.75c0,4.33-2.66,7.84-5.94,7.84h-10.59s.46-.24.46-.24h0v.24h-4.8c-3.28,0-5.94-3.51-5.94-7.84v-6.75h-.1c-.57,0-1.04-.61-1.04-1.37v-1.74c0-1.7-1.04-3.08-2.34-3.08-3.06,0-3.03-2.92-3.53-6.76-.1-.74.33-1.41.9-1.41h6.11v-19.53h-.1c-.57,0-1.04-.61-1.04-1.37v-1.74c0-1.7-1.04-3.08-2.34-3.08-3.06,0-3.03-2.92-3.53-6.77-.1-.74.33-1.41.9-1.41h6.11v-20.98h-.1c-.57,0-1.04-.61-1.04-1.37v-1.74c0-1.7-1.04-3.08-2.34-3.08-3.06,0-3.03-2.92-3.53-6.77-.1-.74.33-1.41.9-1.41h6.11v-.02c0-4.33,2.66-7.83,5.94-7.83h14.93c3.28,0,5.94,3.51,5.94,7.83v.02h5.25c.57,0,1,.68.9,1.41-.51,3.84-.47,6.77-3.53,6.77-1.29,0-1.48,1.38-1.48,3.08v1.74c0,.76-.46,1.37-1.04,1.37h-.1v20.98h5.25c.57,0,1,.68.9,1.41-.51,3.84-.47,6.77-3.53,6.77-1.29,0-1.48,1.38-1.48,3.08v1.74c0,.76-.46,1.37-1.04,1.37h-.1"/>
      <path class="cls-3" d="M47.25,70.87v19.53h5.25c.57,0,1,.68.9,1.41-.51,3.84-.47,6.76-3.53,6.76-1.29,0-1.48,1.38-1.48,3.08v1.74c0,.75-.46,1.37-1.04,1.37h-.1v6.75c0,4.33-2.66,7.84-5.94,7.84h-4.97s-.26,0-.26,0h-.14s-2.09.01-2.09.01V13.3h7.47c3.28,0,5.94,3.51,5.94,7.83v.02h5.25c.57,0,1,.68.9,1.41-.51,3.84-.47,6.77-3.53,6.77-1.29,0-1.48,1.38-1.48,3.08v1.74c0,.76-.46,1.37-1.04,1.37h-.1v20.98h5.25c.57,0,1,.68.9,1.41-.51,3.84-.47,6.77-3.53,6.77-1.29,0-1.48,1.38-1.48,3.08v1.74c0,.76-.46,1.37-1.04,1.37h-.1"/>
      <g>
        <path class="cls-7" d="M44.72,30.98c0,7.92-4.87,14.33-10.87,14.33s-10.87-6.42-10.87-14.33,4.87-14.33,10.87-14.33,10.87,6.42,10.87,14.33"/>
        <path class="cls-4" d="M44.72,66.36c0,7.92-4.87,14.33-10.87,14.33s-10.87-6.42-10.87-14.33,4.87-14.33,10.87-14.33,10.87,6.42,10.87,14.33"/>
        <path class="cls-6" d="M44.72,99.9c0,7.92-4.87,14.33-10.87,14.33s-10.87-6.42-10.87-14.33,4.87-14.33,10.87-14.33,10.87,6.42,10.87,14.33"/>
      </g>
    </g>
    <polygon class="cls-5" points="76.98 23.49 76.98 57.76 117.09 57.76 117.09 74.9 76.98 74.9 76.98 126.32 68.96 126.32 68.96 6.35 125.11 6.35 125.11 23.49 76.98 23.49"/>
  </g>
</svg>